<svg xmlns="http://www.w3.org/2000/svg" version="1.1" preserveAspectRatio="xMidYMid meet" viewBox="0 0 1860 2480" class="class-0"><path d="M 328 299.5 L 1758 299.5" stroke="#888888" stroke-width="4" fill="none"/><path d="M 202.002 278.022 C 202.001 278.003 202 277.991 202 277.984 L 202 214.016 C 202 214.009 202.001 213.997 202.002 213.978 C 202.004 213.932 202.01 213.848 202.024 213.734 C 202.052 213.506 202.111 213.162 202.231 212.752 C 202.473 211.931 202.953 210.875 203.914 209.914 C 204.969 208.859 205.858 208.39 206.405 208.179 C 206.683 208.073 206.884 208.028 206.988 208.01 C 207.019 208.005 207.041 208.002 207.055 208 L 271.835 208 C 271.911 208.014 272.019 208.035 272.153 208.064 C 272.458 208.13 272.887 208.237 273.368 208.397 C 274.372 208.732 275.406 209.235 276.086 209.914 C 276.765 210.594 277.268 211.628 277.603 212.632 C 277.763 213.113 277.87 213.542 277.936 213.847 C 277.965 213.981 277.986 214.089 278 214.165 L 278 277.984 C 278 277.991 277.999 278.003 277.998 278.022 C 277.996 278.068 277.99 278.152 277.976 278.266 C 277.948 278.494 277.889 278.838 277.769 279.248 C 277.527 280.069 277.047 281.125 276.086 282.086 C 275.125 283.047 274.069 283.527 273.248 283.769 C 272.838 283.889 272.494 283.948 272.266 283.976 C 272.152 283.99 272.068 283.996 272.022 283.998 C 272.011 283.999 272.003 283.999 271.996 284 C 271.991 284 271.987 284 271.984 284 L 208.016 284 C 208.009 284 207.997 283.999 207.978 283.998 C 207.932 283.996 207.848 283.99 207.734 283.976 C 207.506 283.948 207.162 283.889 206.752 283.769 C 205.931 283.527 204.875 283.047 203.914 282.086 C 202.953 281.125 202.473 280.069 202.231 279.248 C 202.111 278.838 202.052 278.494 202.024 278.266 C 202.01 278.152 202.004 278.068 202.002 278.022 Z" stroke="#888888" stroke-width="4" fill="none"/><path d="M 328 445.5 L 1758 445.5" stroke="#888888" stroke-width="4" fill="none"/><path d="M 202.002 424.022 C 202.001 424.003 202 423.991 202 423.984 L 202 360.016 C 202 360.009 202.001 359.997 202.002 359.978 C 202.004 359.932 202.01 359.848 202.024 359.734 C 202.052 359.506 202.111 359.162 202.231 358.752 C 202.473 357.931 202.953 356.875 203.914 355.914 C 204.969 354.859 205.858 354.39 206.405 354.179 C 206.683 354.073 206.884 354.028 206.988 354.01 C 207.019 354.005 207.041 354.002 207.055 354 L 271.835 354 C 271.911 354.014 272.019 354.035 272.153 354.064 C 272.458 354.13 272.887 354.237 273.368 354.397 C 274.372 354.732 275.406 355.235 276.086 355.914 C 276.765 356.594 277.268 357.628 277.603 358.632 C 277.763 359.113 277.87 359.542 277.936 359.847 C 277.965 359.981 277.986 360.089 278 360.165 L 278 423.984 C 278 423.991 277.999 424.003 277.998 424.022 C 277.996 424.068 277.99 424.152 277.976 424.266 C 277.948 424.494 277.889 424.838 277.769 425.248 C 277.527 426.069 277.047 427.125 276.086 428.086 C 275.125 429.047 274.069 429.527 273.248 429.769 C 272.838 429.889 272.494 429.948 272.266 429.976 C 272.152 429.99 272.068 429.996 272.022 429.998 C 272.011 429.999 272.003 429.999 271.996 430 C 271.991 430 271.987 430 271.984 430 L 208.016 430 C 208.009 430 207.997 429.999 207.978 429.998 C 207.932 429.996 207.848 429.99 207.734 429.976 C 207.506 429.948 207.162 429.889 206.752 429.769 C 205.931 429.527 204.875 429.047 203.914 428.086 C 202.953 427.125 202.473 426.069 202.231 425.248 C 202.111 424.838 202.052 424.494 202.024 424.266 C 202.01 424.152 202.004 424.068 202.002 424.022 Z" stroke="#888888" stroke-width="4" fill="none"/><path d="M 328 591.5 L 1758 591.5" stroke="#888888" stroke-width="4" fill="none"/><path d="M 202.002 570.022 C 202.001 570.003 202 569.991 202 569.984 L 202 506.016 C 202 506.009 202.001 505.997 202.002 505.978 C 202.004 505.932 202.01 505.848 202.024 505.734 C 202.052 505.506 202.111 505.162 202.231 504.752 C 202.473 503.931 202.953 502.875 203.914 501.914 C 204.969 500.859 205.858 500.39 206.405 500.179 C 206.683 500.073 206.884 500.028 206.988 500.01 C 207.019 500.005 207.041 500.002 207.055 500 L 271.835 500 C 271.911 500.014 272.019 500.035 272.153 500.064 C 272.458 500.13 272.887 500.237 273.368 500.397 C 274.372 500.732 275.406 501.235 276.086 501.914 C 276.765 502.594 277.268 503.628 277.603 504.632 C 277.763 505.113 277.87 505.542 277.936 505.847 C 277.965 505.981 277.986 506.089 278 506.165 L 278 569.984 C 278 569.991 277.999 570.003 277.998 570.022 C 277.996 570.068 277.99 570.152 277.976 570.266 C 277.948 570.494 277.889 570.838 277.769 571.248 C 277.527 572.069 277.047 573.125 276.086 574.086 C 275.125 575.047 274.069 575.527 273.248 575.769 C 272.838 575.889 272.494 575.948 272.266 575.976 C 272.152 575.99 272.068 575.996 272.022 575.998 C 272.011 575.999 272.003 575.999 271.996 576 C 271.991 576 271.987 576 271.984 576 L 208.016 576 C 208.009 576 207.997 575.999 207.978 575.998 C 207.932 575.996 207.848 575.99 207.734 575.976 C 207.506 575.948 207.162 575.889 206.752 575.769 C 205.931 575.527 204.875 575.047 203.914 574.086 C 202.953 573.125 202.473 572.069 202.231 571.248 C 202.111 570.838 202.052 570.494 202.024 570.266 C 202.01 570.152 202.004 570.068 202.002 570.022 Z" stroke="#888888" stroke-width="4" fill="none"/><path d="M 328 737.5 L 1758 737.5" stroke="#888888" stroke-width="4" fill="none"/><path d="M 202.002 716.022 C 202.001 716.003 202 715.991 202 715.984 L 202 652.016 C 202 652.009 202.001 651.997 202.002 651.978 C 202.004 651.932 202.01 651.848 202.024 651.734 C 202.052 651.506 202.111 651.162 202.231 650.752 C 202.473 649.931 202.953 648.875 203.914 647.914 C 204.969 646.859 205.858 646.39 206.405 646.179 C 206.683 646.073 206.884 646.028 206.988 646.01 C 207.019 646.005 207.041 646.002 207.055 646 L 271.835 646 C 271.911 646.014 272.019 646.035 272.153 646.064 C 272.458 646.13 272.887 646.237 273.368 646.397 C 274.372 646.732 275.406 647.235 276.086 647.914 C 276.765 648.594 277.268 649.628 277.603 650.632 C 277.763 651.113 277.87 651.542 277.936 651.847 C 277.965 651.981 277.986 652.089 278 652.165 L 278 715.984 C 278 715.991 277.999 716.003 277.998 716.022 C 277.996 716.068 277.99 716.152 277.976 716.266 C 277.948 716.494 277.889 716.838 277.769 717.248 C 277.527 718.069 277.047 719.125 276.086 720.086 C 275.125 721.047 274.069 721.527 273.248 721.769 C 272.838 721.889 272.494 721.948 272.266 721.976 C 272.152 721.99 272.068 721.996 272.022 721.998 C 272.011 721.999 272.003 721.999 271.996 722 C 271.991 722 271.987 722 271.984 722 L 208.016 722 C 208.009 722 207.997 721.999 207.978 721.998 C 207.932 721.996 207.848 721.99 207.734 721.976 C 207.506 721.948 207.162 721.889 206.752 721.769 C 205.931 721.527 204.875 721.047 203.914 720.086 C 202.953 719.125 202.473 718.069 202.231 717.248 C 202.111 716.838 202.052 716.494 202.024 716.266 C 202.01 716.152 202.004 716.068 202.002 716.022 Z" stroke="#888888" stroke-width="4" fill="none"/><path d="M 328 883.5 L 1758 883.5" stroke="#888888" stroke-width="4" fill="none"/><path d="M 202.002 862.022 C 202.001 862.003 202 861.991 202 861.984 L 202 798.016 C 202 798.009 202.001 797.997 202.002 797.978 C 202.004 797.932 202.01 797.848 202.024 797.734 C 202.052 797.506 202.111 797.162 202.231 796.752 C 202.473 795.931 202.953 794.875 203.914 793.914 C 204.969 792.859 205.858 792.39 206.405 792.179 C 206.683 792.073 206.884 792.028 206.988 792.01 C 207.019 792.005 207.041 792.002 207.055 792 L 271.835 792 C 271.911 792.014 272.019 792.035 272.153 792.064 C 272.458 792.13 272.887 792.237 273.368 792.397 C 274.372 792.732 275.406 793.235 276.086 793.914 C 276.765 794.594 277.268 795.628 277.603 796.632 C 277.763 797.113 277.87 797.542 277.936 797.847 C 277.965 797.981 277.986 798.089 278 798.165 L 278 861.984 C 278 861.991 277.999 862.003 277.998 862.022 C 277.996 862.068 277.99 862.152 277.976 862.266 C 277.948 862.494 277.889 862.838 277.769 863.248 C 277.527 864.069 277.047 865.125 276.086 866.086 C 275.125 867.047 274.069 867.527 273.248 867.769 C 272.838 867.889 272.494 867.948 272.266 867.976 C 272.152 867.99 272.068 867.996 272.022 867.998 C 272.011 867.999 272.003 867.999 271.996 868 C 271.991 868 271.987 868 271.984 868 L 208.016 868 C 208.009 868 207.997 867.999 207.978 867.998 C 207.932 867.996 207.848 867.99 207.734 867.976 C 207.506 867.948 207.162 867.889 206.752 867.769 C 205.931 867.527 204.875 867.047 203.914 866.086 C 202.953 865.125 202.473 864.069 202.231 863.248 C 202.111 862.838 202.052 862.494 202.024 862.266 C 202.01 862.152 202.004 862.068 202.002 862.022 Z" stroke="#888888" stroke-width="4" fill="none"/><path d="M 328 1029.5 L 1758 1029.5" stroke="#888888" stroke-width="4" fill="none"/><path d="M 202.002 1008.02 C 202.001 1008 202 1007.99 202 1007.98 L 202 944.016 C 202 944.009 202.001 943.997 202.002 943.978 C 202.004 943.932 202.01 943.848 202.024 943.734 C 202.052 943.506 202.111 943.162 202.231 942.752 C 202.473 941.931 202.953 940.875 203.914 939.914 C 204.969 938.859 205.858 938.39 206.405 938.179 C 206.683 938.073 206.884 938.028 206.988 938.01 C 207.019 938.005 207.041 938.002 207.055 938 L 271.835 938 C 271.911 938.014 272.019 938.035 272.153 938.064 C 272.458 938.13 272.887 938.237 273.368 938.397 C 274.372 938.732 275.406 939.235 276.086 939.914 C 276.765 940.594 277.268 941.628 277.603 942.632 C 277.763 943.113 277.87 943.542 277.936 943.847 C 277.965 943.981 277.986 944.089 278 944.165 L 278 1007.98 C 278 1007.99 277.999 1008 277.998 1008.02 C 277.996 1008.07 277.99 1008.15 277.976 1008.27 C 277.948 1008.49 277.889 1008.84 277.769 1009.25 C 277.527 1010.07 277.047 1011.12 276.086 1012.09 C 275.125 1013.05 274.069 1013.53 273.248 1013.77 C 272.838 1013.89 272.494 1013.95 272.266 1013.98 C 272.152 1013.99 272.068 1014 272.022 1014 C 272.011 1014 272.003 1014 271.996 1014 C 271.991 1014 271.987 1014 271.984 1014 L 208.016 1014 C 208.009 1014 207.997 1014 207.978 1014 C 207.932 1014 207.848 1013.99 207.734 1013.98 C 207.506 1013.95 207.162 1013.89 206.752 1013.77 C 205.931 1013.53 204.875 1013.05 203.914 1012.09 C 202.953 1011.12 202.473 1010.07 202.231 1009.25 C 202.111 1008.84 202.052 1008.49 202.024 1008.27 C 202.01 1008.15 202.004 1008.07 202.002 1008.02 Z" stroke="#888888" stroke-width="4" fill="none"/><path d="M 328 1175.5 L 1758 1175.5" stroke="#888888" stroke-width="4" fill="none"/><path d="M 202.002 1154.02 C 202.001 1154 202 1153.99 202 1153.98 L 202 1090.02 C 202 1090.01 202.001 1090 202.002 1089.98 C 202.004 1089.93 202.01 1089.85 202.024 1089.73 C 202.052 1089.51 202.111 1089.16 202.231 1088.75 C 202.473 1087.93 202.953 1086.88 203.914 1085.91 C 204.969 1084.86 205.858 1084.39 206.405 1084.18 C 206.683 1084.07 206.884 1084.03 206.988 1084.01 C 207.019 1084 207.041 1084 207.055 1084 L 271.835 1084 C 271.911 1084.01 272.019 1084.03 272.153 1084.06 C 272.458 1084.13 272.887 1084.24 273.368 1084.4 C 274.372 1084.73 275.406 1085.23 276.086 1085.91 C 276.765 1086.59 277.268 1087.63 277.603 1088.63 C 277.763 1089.11 277.87 1089.54 277.936 1089.85 C 277.965 1089.98 277.986 1090.09 278 1090.17 L 278 1153.98 C 278 1153.99 277.999 1154 277.998 1154.02 C 277.996 1154.07 277.99 1154.15 277.976 1154.27 C 277.948 1154.49 277.889 1154.84 277.769 1155.25 C 277.527 1156.07 277.047 1157.12 276.086 1158.09 C 275.125 1159.05 274.069 1159.53 273.248 1159.77 C 272.838 1159.89 272.494 1159.95 272.266 1159.98 C 272.152 1159.99 272.068 1160 272.022 1160 C 272.011 1160 272.003 1160 271.996 1160 C 271.991 1160 271.987 1160 271.984 1160 L 208.016 1160 C 208.009 1160 207.997 1160 207.978 1160 C 207.932 1160 207.848 1159.99 207.734 1159.98 C 207.506 1159.95 207.162 1159.89 206.752 1159.77 C 205.931 1159.53 204.875 1159.05 203.914 1158.09 C 202.953 1157.12 202.473 1156.07 202.231 1155.25 C 202.111 1154.84 202.052 1154.49 202.024 1154.27 C 202.01 1154.15 202.004 1154.07 202.002 1154.02 Z" stroke="#888888" stroke-width="4" fill="none"/><path d="M 328 1321.5 L 1758 1321.5" stroke="#888888" stroke-width="4" fill="none"/><path d="M 202.002 1300.02 C 202.001 1300 202 1299.99 202 1299.98 L 202 1236.02 C 202 1236.01 202.001 1236 202.002 1235.98 C 202.004 1235.93 202.01 1235.85 202.024 1235.73 C 202.052 1235.51 202.111 1235.16 202.231 1234.75 C 202.473 1233.93 202.953 1232.88 203.914 1231.91 C 204.969 1230.86 205.858 1230.39 206.405 1230.18 C 206.683 1230.07 206.884 1230.03 206.988 1230.01 C 207.019 1230 207.041 1230 207.055 1230 L 271.835 1230 C 271.911 1230.01 272.019 1230.03 272.153 1230.06 C 272.458 1230.13 272.887 1230.24 273.368 1230.4 C 274.372 1230.73 275.406 1231.23 276.086 1231.91 C 276.765 1232.59 277.268 1233.63 277.603 1234.63 C 277.763 1235.11 277.87 1235.54 277.936 1235.85 C 277.965 1235.98 277.986 1236.09 278 1236.17 L 278 1299.98 C 278 1299.99 277.999 1300 277.998 1300.02 C 277.996 1300.07 277.99 1300.15 277.976 1300.27 C 277.948 1300.49 277.889 1300.84 277.769 1301.25 C 277.527 1302.07 277.047 1303.12 276.086 1304.09 C 275.125 1305.05 274.069 1305.53 273.248 1305.77 C 272.838 1305.89 272.494 1305.95 272.266 1305.98 C 272.152 1305.99 272.068 1306 272.022 1306 C 272.011 1306 272.003 1306 271.996 1306 C 271.991 1306 271.987 1306 271.984 1306 L 208.016 1306 C 208.009 1306 207.997 1306 207.978 1306 C 207.932 1306 207.848 1305.99 207.734 1305.98 C 207.506 1305.95 207.162 1305.89 206.752 1305.77 C 205.931 1305.53 204.875 1305.05 203.914 1304.09 C 202.953 1303.12 202.473 1302.07 202.231 1301.25 C 202.111 1300.84 202.052 1300.49 202.024 1300.27 C 202.01 1300.15 202.004 1300.07 202.002 1300.02 Z" stroke="#888888" stroke-width="4" fill="none"/><path d="M 328 1467.5 L 1758 1467.5" stroke="#888888" stroke-width="4" fill="none"/><path d="M 202.002 1446.02 C 202.001 1446 202 1445.99 202 1445.98 L 202 1382.02 C 202 1382.01 202.001 1382 202.002 1381.98 C 202.004 1381.93 202.01 1381.85 202.024 1381.73 C 202.052 1381.51 202.111 1381.16 202.231 1380.75 C 202.473 1379.93 202.953 1378.88 203.914 1377.91 C 204.969 1376.86 205.858 1376.39 206.405 1376.18 C 206.683 1376.07 206.884 1376.03 206.988 1376.01 C 207.019 1376 207.041 1376 207.055 1376 L 271.835 1376 C 271.911 1376.01 272.019 1376.03 272.153 1376.06 C 272.458 1376.13 272.887 1376.24 273.368 1376.4 C 274.372 1376.73 275.406 1377.23 276.086 1377.91 C 276.765 1378.59 277.268 1379.63 277.603 1380.63 C 277.763 1381.11 277.87 1381.54 277.936 1381.85 C 277.965 1381.98 277.986 1382.09 278 1382.17 L 278 1445.98 C 278 1445.99 277.999 1446 277.998 1446.02 C 277.996 1446.07 277.99 1446.15 277.976 1446.27 C 277.948 1446.49 277.889 1446.84 277.769 1447.25 C 277.527 1448.07 277.047 1449.12 276.086 1450.09 C 275.125 1451.05 274.069 1451.53 273.248 1451.77 C 272.838 1451.89 272.494 1451.95 272.266 1451.98 C 272.152 1451.99 272.068 1452 272.022 1452 C 272.011 1452 272.003 1452 271.996 1452 C 271.991 1452 271.987 1452 271.984 1452 L 208.016 1452 C 208.009 1452 207.997 1452 207.978 1452 C 207.932 1452 207.848 1451.99 207.734 1451.98 C 207.506 1451.95 207.162 1451.89 206.752 1451.77 C 205.931 1451.53 204.875 1451.05 203.914 1450.09 C 202.953 1449.12 202.473 1448.07 202.231 1447.25 C 202.111 1446.84 202.052 1446.49 202.024 1446.27 C 202.01 1446.15 202.004 1446.07 202.002 1446.02 Z" stroke="#888888" stroke-width="4" fill="none"/><path d="M 328 1613.5 L 1758 1613.5" stroke="#888888" stroke-width="4" fill="none"/><path d="M 202.002 1592.02 C 202.001 1592 202 1591.99 202 1591.98 L 202 1528.02 C 202 1528.01 202.001 1528 202.002 1527.98 C 202.004 1527.93 202.01 1527.85 202.024 1527.73 C 202.052 1527.51 202.111 1527.16 202.231 1526.75 C 202.473 1525.93 202.953 1524.88 203.914 1523.91 C 204.969 1522.86 205.858 1522.39 206.405 1522.18 C 206.683 1522.07 206.884 1522.03 206.988 1522.01 C 207.019 1522 207.041 1522 207.055 1522 L 271.835 1522 C 271.911 1522.01 272.019 1522.03 272.153 1522.06 C 272.458 1522.13 272.887 1522.24 273.368 1522.4 C 274.372 1522.73 275.406 1523.23 276.086 1523.91 C 276.765 1524.59 277.268 1525.63 277.603 1526.63 C 277.763 1527.11 277.87 1527.54 277.936 1527.85 C 277.965 1527.98 277.986 1528.09 278 1528.17 L 278 1591.98 C 278 1591.99 277.999 1592 277.998 1592.02 C 277.996 1592.07 277.99 1592.15 277.976 1592.27 C 277.948 1592.49 277.889 1592.84 277.769 1593.25 C 277.527 1594.07 277.047 1595.12 276.086 1596.09 C 275.125 1597.05 274.069 1597.53 273.248 1597.77 C 272.838 1597.89 272.494 1597.95 272.266 1597.98 C 272.152 1597.99 272.068 1598 272.022 1598 C 272.011 1598 272.003 1598 271.996 1598 C 271.991 1598 271.987 1598 271.984 1598 L 208.016 1598 C 208.009 1598 207.997 1598 207.978 1598 C 207.932 1598 207.848 1597.99 207.734 1597.98 C 207.506 1597.95 207.162 1597.89 206.752 1597.77 C 205.931 1597.53 204.875 1597.05 203.914 1596.09 C 202.953 1595.12 202.473 1594.07 202.231 1593.25 C 202.111 1592.84 202.052 1592.49 202.024 1592.27 C 202.01 1592.15 202.004 1592.07 202.002 1592.02 Z" stroke="#888888" stroke-width="4" fill="none"/><path d="M 328 1759.5 L 1758 1759.5" stroke="#888888" stroke-width="4" fill="none"/><path d="M 202.002 1738.02 C 202.001 1738 202 1737.99 202 1737.98 L 202 1674.02 C 202 1674.01 202.001 1674 202.002 1673.98 C 202.004 1673.93 202.01 1673.85 202.024 1673.73 C 202.052 1673.51 202.111 1673.16 202.231 1672.75 C 202.473 1671.93 202.953 1670.88 203.914 1669.91 C 204.969 1668.86 205.858 1668.39 206.405 1668.18 C 206.683 1668.07 206.884 1668.03 206.988 1668.01 C 207.019 1668 207.041 1668 207.055 1668 L 271.835 1668 C 271.911 1668.01 272.019 1668.03 272.153 1668.06 C 272.458 1668.13 272.887 1668.24 273.368 1668.4 C 274.372 1668.73 275.406 1669.23 276.086 1669.91 C 276.765 1670.59 277.268 1671.63 277.603 1672.63 C 277.763 1673.11 277.87 1673.54 277.936 1673.85 C 277.965 1673.98 277.986 1674.09 278 1674.17 L 278 1737.98 C 278 1737.99 277.999 1738 277.998 1738.02 C 277.996 1738.07 277.99 1738.15 277.976 1738.27 C 277.948 1738.49 277.889 1738.84 277.769 1739.25 C 277.527 1740.07 277.047 1741.12 276.086 1742.09 C 275.125 1743.05 274.069 1743.53 273.248 1743.77 C 272.838 1743.89 272.494 1743.95 272.266 1743.98 C 272.152 1743.99 272.068 1744 272.022 1744 C 272.011 1744 272.003 1744 271.996 1744 C 271.991 1744 271.987 1744 271.984 1744 L 208.016 1744 C 208.009 1744 207.997 1744 207.978 1744 C 207.932 1744 207.848 1743.99 207.734 1743.98 C 207.506 1743.95 207.162 1743.89 206.752 1743.77 C 205.931 1743.53 204.875 1743.05 203.914 1742.09 C 202.953 1741.12 202.473 1740.07 202.231 1739.25 C 202.111 1738.84 202.052 1738.49 202.024 1738.27 C 202.01 1738.15 202.004 1738.07 202.002 1738.02 Z" stroke="#888888" stroke-width="4" fill="none"/><path d="M 328 1905.5 L 1758 1905.5" stroke="#888888" stroke-width="4" fill="none"/><path d="M 202.002 1884.02 C 202.001 1884 202 1883.99 202 1883.98 L 202 1820.02 C 202 1820.01 202.001 1820 202.002 1819.98 C 202.004 1819.93 202.01 1819.85 202.024 1819.73 C 202.052 1819.51 202.111 1819.16 202.231 1818.75 C 202.473 1817.93 202.953 1816.88 203.914 1815.91 C 204.969 1814.86 205.858 1814.39 206.405 1814.18 C 206.683 1814.07 206.884 1814.03 206.988 1814.01 C 207.019 1814 207.041 1814 207.055 1814 L 271.835 1814 C 271.911 1814.01 272.019 1814.03 272.153 1814.06 C 272.458 1814.13 272.887 1814.24 273.368 1814.4 C 274.372 1814.73 275.406 1815.23 276.086 1815.91 C 276.765 1816.59 277.268 1817.63 277.603 1818.63 C 277.763 1819.11 277.87 1819.54 277.936 1819.85 C 277.965 1819.98 277.986 1820.09 278 1820.17 L 278 1883.98 C 278 1883.99 277.999 1884 277.998 1884.02 C 277.996 1884.07 277.99 1884.15 277.976 1884.27 C 277.948 1884.49 277.889 1884.84 277.769 1885.25 C 277.527 1886.07 277.047 1887.12 276.086 1888.09 C 275.125 1889.05 274.069 1889.53 273.248 1889.77 C 272.838 1889.89 272.494 1889.95 272.266 1889.98 C 272.152 1889.99 272.068 1890 272.022 1890 C 272.011 1890 272.003 1890 271.996 1890 C 271.991 1890 271.987 1890 271.984 1890 L 208.016 1890 C 208.009 1890 207.997 1890 207.978 1890 C 207.932 1890 207.848 1889.99 207.734 1889.98 C 207.506 1889.95 207.162 1889.89 206.752 1889.77 C 205.931 1889.53 204.875 1889.05 203.914 1888.09 C 202.953 1887.12 202.473 1886.07 202.231 1885.25 C 202.111 1884.84 202.052 1884.49 202.024 1884.27 C 202.01 1884.15 202.004 1884.07 202.002 1884.02 Z" stroke="#888888" stroke-width="4" fill="none"/><path d="M 328 2051.5 L 1758 2051.5" stroke="#888888" stroke-width="4" fill="none"/><path d="M 202.002 2030.02 C 202.001 2030 202 2029.99 202 2029.98 L 202 1966.02 C 202 1966.01 202.001 1966 202.002 1965.98 C 202.004 1965.93 202.01 1965.85 202.024 1965.73 C 202.052 1965.51 202.111 1965.16 202.231 1964.75 C 202.473 1963.93 202.953 1962.88 203.914 1961.91 C 204.969 1960.86 205.858 1960.39 206.405 1960.18 C 206.683 1960.07 206.884 1960.03 206.988 1960.01 C 207.019 1960 207.041 1960 207.055 1960 L 271.835 1960 C 271.911 1960.01 272.019 1960.03 272.153 1960.06 C 272.458 1960.13 272.887 1960.24 273.368 1960.4 C 274.372 1960.73 275.406 1961.23 276.086 1961.91 C 276.765 1962.59 277.268 1963.63 277.603 1964.63 C 277.763 1965.11 277.87 1965.54 277.936 1965.85 C 277.965 1965.98 277.986 1966.09 278 1966.17 L 278 2029.98 C 278 2029.99 277.999 2030 277.998 2030.02 C 277.996 2030.07 277.99 2030.15 277.976 2030.27 C 277.948 2030.49 277.889 2030.84 277.769 2031.25 C 277.527 2032.07 277.047 2033.12 276.086 2034.09 C 275.125 2035.05 274.069 2035.53 273.248 2035.77 C 272.838 2035.89 272.494 2035.95 272.266 2035.98 C 272.152 2035.99 272.068 2036 272.022 2036 C 272.011 2036 272.003 2036 271.996 2036 C 271.991 2036 271.987 2036 271.984 2036 L 208.016 2036 C 208.009 2036 207.997 2036 207.978 2036 C 207.932 2036 207.848 2035.99 207.734 2035.98 C 207.506 2035.95 207.162 2035.89 206.752 2035.77 C 205.931 2035.53 204.875 2035.05 203.914 2034.09 C 202.953 2033.12 202.473 2032.07 202.231 2031.25 C 202.111 2030.84 202.052 2030.49 202.024 2030.27 C 202.01 2030.15 202.004 2030.07 202.002 2030.02 Z" stroke="#888888" stroke-width="4" fill="none"/><path d="M 328 2197.5 L 1758 2197.5" stroke="#888888" stroke-width="4" fill="none"/><path d="M 202.002 2176.02 C 202.001 2176 202 2175.99 202 2175.98 L 202 2112.02 C 202 2112.01 202.001 2112 202.002 2111.98 C 202.004 2111.93 202.01 2111.85 202.024 2111.73 C 202.052 2111.51 202.111 2111.16 202.231 2110.75 C 202.473 2109.93 202.953 2108.88 203.914 2107.91 C 204.969 2106.86 205.858 2106.39 206.405 2106.18 C 206.683 2106.07 206.884 2106.03 206.988 2106.01 C 207.019 2106 207.041 2106 207.055 2106 L 271.835 2106 C 271.911 2106.01 272.019 2106.03 272.153 2106.06 C 272.458 2106.13 272.887 2106.24 273.368 2106.4 C 274.372 2106.73 275.406 2107.23 276.086 2107.91 C 276.765 2108.59 277.268 2109.63 277.603 2110.63 C 277.763 2111.11 277.87 2111.54 277.936 2111.85 C 277.965 2111.98 277.986 2112.09 278 2112.17 L 278 2175.98 C 278 2175.99 277.999 2176 277.998 2176.02 C 277.996 2176.07 277.99 2176.15 277.976 2176.27 C 277.948 2176.49 277.889 2176.84 277.769 2177.25 C 277.527 2178.07 277.047 2179.12 276.086 2180.09 C 275.125 2181.05 274.069 2181.53 273.248 2181.77 C 272.838 2181.89 272.494 2181.95 272.266 2181.98 C 272.152 2181.99 272.068 2182 272.022 2182 C 272.011 2182 272.003 2182 271.996 2182 C 271.991 2182 271.987 2182 271.984 2182 L 208.016 2182 C 208.009 2182 207.997 2182 207.978 2182 C 207.932 2182 207.848 2181.99 207.734 2181.98 C 207.506 2181.95 207.162 2181.89 206.752 2181.77 C 205.931 2181.53 204.875 2181.05 203.914 2180.09 C 202.953 2179.12 202.473 2178.07 202.231 2177.25 C 202.111 2176.84 202.052 2176.49 202.024 2176.27 C 202.01 2176.15 202.004 2176.07 202.002 2176.02 Z" stroke="#888888" stroke-width="4" fill="none"/><path d="M 328 2343.5 L 1758 2343.5" stroke="#888888" stroke-width="4" fill="none"/><path d="M 202.002 2322.02 C 202.001 2322 202 2321.99 202 2321.98 L 202 2258.02 C 202 2258.01 202.001 2258 202.002 2257.98 C 202.004 2257.93 202.01 2257.85 202.024 2257.73 C 202.052 2257.51 202.111 2257.16 202.231 2256.75 C 202.473 2255.93 202.953 2254.88 203.914 2253.91 C 204.969 2252.86 205.858 2252.39 206.405 2252.18 C 206.683 2252.07 206.884 2252.03 206.988 2252.01 C 207.019 2252 207.041 2252 207.055 2252 L 271.835 2252 C 271.911 2252.01 272.019 2252.03 272.153 2252.06 C 272.458 2252.13 272.887 2252.24 273.368 2252.4 C 274.372 2252.73 275.406 2253.23 276.086 2253.91 C 276.765 2254.59 277.268 2255.63 277.603 2256.63 C 277.763 2257.11 277.87 2257.54 277.936 2257.85 C 277.965 2257.98 277.986 2258.09 278 2258.17 L 278 2321.98 C 278 2321.99 277.999 2322 277.998 2322.02 C 277.996 2322.07 277.99 2322.15 277.976 2322.27 C 277.948 2322.49 277.889 2322.84 277.769 2323.25 C 277.527 2324.07 277.047 2325.12 276.086 2326.09 C 275.125 2327.05 274.069 2327.53 273.248 2327.77 C 272.838 2327.89 272.494 2327.95 272.266 2327.98 C 272.152 2327.99 272.068 2328 272.022 2328 C 272.011 2328 272.003 2328 271.996 2328 C 271.991 2328 271.987 2328 271.984 2328 L 208.016 2328 C 208.009 2328 207.997 2328 207.978 2328 C 207.932 2328 207.848 2327.99 207.734 2327.98 C 207.506 2327.95 207.162 2327.89 206.752 2327.77 C 205.931 2327.53 204.875 2327.05 203.914 2326.09 C 202.953 2325.12 202.473 2324.07 202.231 2323.25 C 202.111 2322.84 202.052 2322.49 202.024 2322.27 C 202.01 2322.15 202.004 2322.07 202.002 2322.02 Z" stroke="#888888" stroke-width="4" fill="none"/></svg>
