<svg xmlns="http://www.w3.org/2000/svg" version="1.1" preserveAspectRatio="xMidYMid meet" viewBox="0 0 1860 2480" class="class-0"><path d="M 67 0 L 66.9999 2480 Z" stroke="#888888" stroke-width="4" fill="none"/><path d="M 142 0 L 142 2480 Z" stroke="#888888" stroke-width="4" fill="none"/><path d="M 217 0 L 217 2480 Z" stroke="#888888" stroke-width="4" fill="none"/><path d="M 292 0 L 292 2480 Z" stroke="#888888" stroke-width="4" fill="none"/><path d="M 367 0 L 367 2480 Z" stroke="#888888" stroke-width="4" fill="none"/><path d="M 442 0 L 442 2480 Z" stroke="#888888" stroke-width="4" fill="none"/><path d="M 517.001 0 L 517.001 2480 Z" stroke="#888888" stroke-width="4" fill="none"/><path d="M 592.001 0 L 592.001 2480 Z" stroke="#888888" stroke-width="4" fill="none"/><path d="M 667.001 0 L 667.001 2480 Z" stroke="#888888" stroke-width="4" fill="none"/><path d="M 742.001 0 L 742.001 2480 Z" stroke="#888888" stroke-width="4" fill="none"/><path d="M 817.001 0 L 817.001 2480 Z" stroke="#888888" stroke-width="4" fill="none"/><path d="M 892.001 0 L 892.001 2480 Z" stroke="#888888" stroke-width="4" fill="none"/><path d="M 967.001 0 L 967.001 2480 Z" stroke="#888888" stroke-width="4" fill="none"/><path d="M 1042 0 L 1042 2480 Z" stroke="#888888" stroke-width="4" fill="none"/><path d="M 1117 0 L 1117 2480 Z" stroke="#888888" stroke-width="4" fill="none"/><path d="M 1192 0 L 1192 2480 Z" stroke="#888888" stroke-width="4" fill="none"/><path d="M 1267 0 L 1267 2480 Z" stroke="#888888" stroke-width="4" fill="none"/><path d="M 1342 0 L 1342 2480 Z" stroke="#888888" stroke-width="4" fill="none"/><path d="M 1417 0 L 1417 2480 Z" stroke="#888888" stroke-width="4" fill="none"/><path d="M 1492 0 L 1492 2480 Z" stroke="#888888" stroke-width="4" fill="none"/><path d="M 1567 0 L 1567 2480 Z" stroke="#888888" stroke-width="4" fill="none"/><path d="M 1642 0 L 1642 2480 Z" stroke="#888888" stroke-width="4" fill="none"/><path d="M 1717 0 L 1717 2480 Z" stroke="#888888" stroke-width="4" fill="none"/><path d="M 1792 0 L 1792 2480 Z" stroke="#888888" stroke-width="4" fill="none"/><path d="M 0 78 L 1860 78 Z" stroke="#888888" stroke-width="4" fill="none"/><path d="M 0 153 L 1860 153 Z" stroke="#888888" stroke-width="4" fill="none"/><path d="M 0 228 L 1860 228 Z" stroke="#888888" stroke-width="4" fill="none"/><path d="M 0 303 L 1860 303 Z" stroke="#888888" stroke-width="4" fill="none"/><path d="M 0 378 L 1860 378 Z" stroke="#888888" stroke-width="4" fill="none"/><path d="M 0 453 L 1860 453 Z" stroke="#888888" stroke-width="4" fill="none"/><path d="M 0 528 L 1860 528 Z" stroke="#888888" stroke-width="4" fill="none"/><path d="M 0 603 L 1860 603 Z" stroke="#888888" stroke-width="4" fill="none"/><path d="M 0 678 L 1860 678 Z" stroke="#888888" stroke-width="4" fill="none"/><path d="M 0 753 L 1860 753 Z" stroke="#888888" stroke-width="4" fill="none"/><path d="M 0 828 L 1860 828 Z" stroke="#888888" stroke-width="4" fill="none"/><path d="M 0 903 L 1860 903 Z" stroke="#888888" stroke-width="4" fill="none"/><path d="M 0 978 L 1860 978 Z" stroke="#888888" stroke-width="4" fill="none"/><path d="M 0 1053 L 1860 1053 Z" stroke="#888888" stroke-width="4" fill="none"/><path d="M 0 1128 L 1860 1128 Z" stroke="#888888" stroke-width="4" fill="none"/><path d="M 0 1203 L 1860 1203 Z" stroke="#888888" stroke-width="4" fill="none"/><path d="M 0 1278 L 1860 1278 Z" stroke="#888888" stroke-width="4" fill="none"/><path d="M 0 1353 L 1860 1353 Z" stroke="#888888" stroke-width="4" fill="none"/><path d="M 0 1428 L 1860 1428 Z" stroke="#888888" stroke-width="4" fill="none"/><path d="M 0 1503 L 1860 1503 Z" stroke="#888888" stroke-width="4" fill="none"/><path d="M 0 1578 L 1860 1578 Z" stroke="#888888" stroke-width="4" fill="none"/><path d="M 0 1653 L 1860 1653 Z" stroke="#888888" stroke-width="4" fill="none"/><path d="M 0 1728 L 1860 1728 Z" stroke="#888888" stroke-width="4" fill="none"/><path d="M 0 1803 L 1860 1803 Z" stroke="#888888" stroke-width="4" fill="none"/><path d="M 0 1878 L 1860 1878 Z" stroke="#888888" stroke-width="4" fill="none"/><path d="M 0 1953 L 1860 1953 Z" stroke="#888888" stroke-width="4" fill="none"/><path d="M 0 2028 L 1860 2028 Z" stroke="#888888" stroke-width="4" fill="none"/><path d="M 0 2103 L 1860 2103 Z" stroke="#888888" stroke-width="4" fill="none"/><path d="M 0 2178 L 1860 2178 Z" stroke="#888888" stroke-width="4" fill="none"/><path d="M 0 2253 L 1860 2253 Z" stroke="#888888" stroke-width="4" fill="none"/><path d="M 0 2328 L 1860 2328 Z" stroke="#888888" stroke-width="4" fill="none"/><path d="M 0 2403 L 1860 2403 Z" stroke="#888888" stroke-width="4" fill="none"/></svg>
