<svg xmlns="http://www.w3.org/2000/svg" version="1.1" preserveAspectRatio="xMidYMid meet" viewBox="0 0 1860 2480" class="class-0"><path d="M 200 389.5 L 1760 389.5" stroke="#888888" stroke-width="4" fill="none"/><path d="M 200 454.5 L 1760 454.5" stroke="#888888" stroke-width="4" fill="none"/><path d="M 200 519.5 L 1760 519.5" stroke="#888888" stroke-width="4" fill="none"/><path d="M 200 584.5 L 1760 584.5" stroke="#888888" stroke-width="4" fill="none"/><path d="M 200 649.5 L 1760 649.5" stroke="#888888" stroke-width="4" fill="none"/><path d="M 200 714.5 L 1760 714.5" stroke="#888888" stroke-width="4" fill="none"/><path d="M 200 779.5 L 1760 779.5" stroke="#888888" stroke-width="4" fill="none"/><path d="M 200 844.5 L 1760 844.5" stroke="#888888" stroke-width="4" fill="none"/><path d="M 200 909.5 L 1760 909.5" stroke="#888888" stroke-width="4" fill="none"/><path d="M 200 974.5 L 1760 974.5" stroke="#888888" stroke-width="4" fill="none"/><path d="M 200 1039.5 L 1760 1039.5" stroke="#888888" stroke-width="4" fill="none"/><path d="M 200 1104.5 L 1760 1104.5" stroke="#888888" stroke-width="4" fill="none"/><path d="M 200 1169.5 L 1760 1169.5" stroke="#888888" stroke-width="4" fill="none"/><path d="M 200 1234.5 L 1760 1234.5" stroke="#888888" stroke-width="4" fill="none"/><path d="M 200 1299.5 L 1760 1299.5" stroke="#888888" stroke-width="4" fill="none"/><path d="M 200 1364.5 L 1760 1364.5" stroke="#888888" stroke-width="4" fill="none"/><path d="M 200 1429.5 L 1760 1429.5" stroke="#888888" stroke-width="4" fill="none"/><path d="M 200 1494.5 L 1760 1494.5" stroke="#888888" stroke-width="4" fill="none"/><path d="M 200 1559.5 L 1760 1559.5" stroke="#888888" stroke-width="4" fill="none"/><path d="M 200 1624.5 L 1760 1624.5" stroke="#888888" stroke-width="4" fill="none"/><path d="M 200 1689.5 L 1760 1689.5" stroke="#888888" stroke-width="4" fill="none"/><path d="M 200 1754.5 L 1760 1754.5" stroke="#888888" stroke-width="4" fill="none"/><path d="M 200 1819.5 L 1760 1819.5" stroke="#888888" stroke-width="4" fill="none"/><path d="M 200 1884.5 L 1760 1884.5" stroke="#888888" stroke-width="4" fill="none"/><path d="M 200 1949.5 L 1760 1949.5" stroke="#888888" stroke-width="4" fill="none"/><path d="M 200 2014.5 L 1760 2014.5" stroke="#888888" stroke-width="4" fill="none"/><path d="M 200 2079.5 L 1760 2079.5" stroke="#888888" stroke-width="4" fill="none"/><path d="M 200 2144.5 L 1760 2144.5" stroke="#888888" stroke-width="4" fill="none"/><path d="M 200 2209.5 L 1760 2209.5" stroke="#888888" stroke-width="4" fill="none"/><path d="M 200 2274.5 L 1760 2274.5" stroke="#888888" stroke-width="4" fill="none"/><path d="M 200 2339.5 L 1760 2339.5" stroke="#888888" stroke-width="4" fill="none"/><path d="M 200 2404.5 L 1760 2404.5" stroke="#888888" stroke-width="4" fill="none"/><path d="M 264.5 76 L 264.5 2406" stroke="#888888" stroke-width="4" fill="none"/><path d="M 400.5 76 L 400.5 2406" stroke="#888888" stroke-width="4" fill="none"/><path d="M 536.5 76 L 536.5 2406" stroke="#888888" stroke-width="4" fill="none"/><path d="M 672.5 76 L 672.5 2406" stroke="#888888" stroke-width="4" fill="none"/><path d="M 808.5 76 L 808.5 2406" stroke="#888888" stroke-width="4" fill="none"/><path d="M 944.5 76 L 944.5 2406" stroke="#888888" stroke-width="4" fill="none"/><path d="M 1080.5 76 L 1080.5 2406" stroke="#888888" stroke-width="4" fill="none"/><path d="M 1216.5 76 L 1216.5 2406" stroke="#888888" stroke-width="4" fill="none"/><path d="M 1352.5 76 L 1352.5 2406" stroke="#888888" stroke-width="4" fill="none"/><path d="M 1488.5 76 L 1488.5 2406" stroke="#888888" stroke-width="4" fill="none"/><path d="M 1624.5 76 L 1624.5 2406" stroke="#888888" stroke-width="4" fill="none"/><path d="M 1760.5 76 L 1760.5 2406" stroke="#888888" stroke-width="4" fill="none"/><path d="M 238.589 431 L 228.613 431 L 228.729 429.753 C 228.961 429.656 229.425 429.521 230.121 429.347 C 230.836 429.154 231.667 428.96 232.615 428.767 L 232.615 414.818 L 229.86 414.818 C 229.28 414.818 228.903 414.779 228.729 414.702 C 228.555 414.605 228.429 414.431 228.352 414.18 L 228.149 413.252 C 229.231 412.962 230.353 412.614 231.513 412.208 C 232.692 411.802 233.659 411.357 234.413 410.874 L 235.689 411.657 L 235.457 413.571 L 235.457 428.738 L 237.98 429.057 C 238.56 429.134 238.85 429.395 238.85 429.84 C 238.85 429.995 238.821 430.178 238.763 430.391 C 238.724 430.604 238.666 430.807 238.589 431 Z" fill="black"/><path d="M 238.386 496 L 228.294 496 C 227.984 496 227.733 495.952 227.54 495.855 C 227.366 495.739 227.221 495.517 227.105 495.188 C 226.989 494.84 226.853 494.308 226.699 493.593 L 229.541 490.954 C 230.971 489.639 232.131 488.518 233.021 487.59 C 233.91 486.643 234.587 485.831 235.051 485.154 C 235.534 484.458 235.863 483.83 236.037 483.269 C 236.23 482.689 236.327 482.109 236.327 481.529 C 236.327 480.388 236.037 479.528 235.457 478.948 C 234.896 478.368 234.074 478.078 232.992 478.078 C 231.696 478.078 230.749 478.513 230.15 479.383 C 229.55 480.234 229.251 481.345 229.251 482.718 L 228.555 482.718 C 228.052 482.718 227.636 482.554 227.308 482.225 C 226.998 481.896 226.844 481.481 226.844 480.978 C 226.844 480.147 227.153 479.344 227.772 478.571 C 228.39 477.798 229.222 477.16 230.266 476.657 C 231.329 476.154 232.508 475.903 233.804 475.903 C 235.544 475.903 236.897 476.357 237.864 477.266 C 238.85 478.155 239.343 479.431 239.343 481.094 C 239.343 482.041 239.091 483.027 238.589 484.052 C 238.105 485.057 237.303 486.188 236.182 487.445 C 235.06 488.702 233.552 490.161 231.658 491.824 L 229.918 493.39 L 240.271 493.39 L 240.271 494.231 C 240.271 494.85 240.116 495.304 239.807 495.594 C 239.517 495.865 239.043 496 238.386 496 Z" fill="black"/><path d="M 227.076 559.318 L 227.859 559.318 C 230.546 559.318 232.634 558.931 234.123 558.158 C 235.631 557.365 236.385 556.176 236.385 554.591 C 236.385 553.74 236.124 553.064 235.602 552.561 C 235.08 552.039 234.326 551.778 233.34 551.778 C 232.818 551.778 232.325 551.807 231.861 551.865 C 231.397 551.923 230.884 552.02 230.324 552.155 L 229.744 550.357 C 230.42 550.202 230.981 550.057 231.426 549.922 C 231.89 549.767 232.315 549.603 232.702 549.429 C 234.848 548.443 235.921 547.167 235.921 545.601 C 235.921 544.77 235.689 544.132 235.225 543.687 C 234.761 543.242 234.103 543.02 233.253 543.02 C 232.189 543.02 231.252 543.31 230.44 543.89 C 229.647 544.47 228.99 545.263 228.468 546.268 L 227.888 545.833 C 227.366 545.466 227.105 545.002 227.105 544.441 C 227.105 543.88 227.424 543.329 228.062 542.788 C 228.7 542.247 229.521 541.802 230.527 541.454 C 231.551 541.087 232.634 540.903 233.775 540.903 C 235.341 540.903 236.549 541.299 237.4 542.092 C 238.27 542.865 238.705 543.967 238.705 545.398 C 238.705 546.307 238.424 547.196 237.864 548.066 C 237.303 548.917 236.549 549.584 235.602 550.067 C 236.665 550.318 237.554 550.802 238.27 551.517 C 238.985 552.213 239.343 553.16 239.343 554.359 C 239.343 555.693 238.946 556.892 238.154 557.955 C 237.38 559.018 236.317 559.859 234.964 560.478 C 233.63 561.077 232.102 561.377 230.382 561.377 C 229.202 561.377 228.381 561.232 227.917 560.942 C 227.472 560.652 227.192 560.111 227.076 559.318 Z" fill="black"/><path d="M 237.545 626.377 L 234.935 626.377 L 234.935 621.215 L 227.105 621.215 C 226.737 621.215 226.438 621.051 226.206 620.722 C 225.993 620.393 225.8 619.813 225.626 618.982 L 234.645 606.164 L 237.545 605.903 L 237.545 618.924 L 240.938 618.924 L 240.938 621.215 L 237.545 621.215 L 237.545 626.377 Z M 234.935 618.924 L 234.935 609.267 L 228.294 618.924 L 234.935 618.924 Z" fill="black"/><path d="M 226.757 689.318 L 227.772 689.318 C 230.556 689.318 232.673 688.883 234.123 688.013 C 235.573 687.124 236.298 685.877 236.298 684.272 C 236.298 682.977 235.689 682.02 234.471 681.401 C 233.253 680.782 231.348 680.444 228.758 680.386 L 229.541 671.019 L 239.488 671.019 L 239.285 673.455 L 231.774 673.455 L 231.397 677.689 C 234.103 677.998 236.085 678.656 237.342 679.661 C 238.598 680.666 239.227 682.126 239.227 684.04 C 239.227 685.432 238.83 686.689 238.038 687.81 C 237.264 688.912 236.172 689.782 234.761 690.42 C 233.349 691.058 231.687 691.377 229.773 691.377 C 228.748 691.377 228.013 691.222 227.569 690.913 C 227.124 690.584 226.853 690.053 226.757 689.318 Z" fill="black"/><path d="M 240.271 737.498 C 237.931 737.575 235.901 738.184 234.181 739.325 C 232.46 740.466 231.203 741.983 230.411 743.878 C 231.397 743.646 232.363 743.53 233.311 743.53 C 235.437 743.53 237.11 744.1 238.328 745.241 C 239.565 746.382 240.184 747.967 240.184 749.997 C 240.184 751.234 239.903 752.336 239.343 753.303 C 238.782 754.27 237.999 755.024 236.994 755.565 C 236.008 756.106 234.857 756.377 233.543 756.377 C 231.377 756.377 229.695 755.681 228.497 754.289 C 227.317 752.878 226.728 750.915 226.728 748.402 C 226.728 746.565 227.027 744.883 227.627 743.356 C 228.245 741.829 229.077 740.514 230.121 739.412 C 231.165 738.291 232.334 737.43 233.63 736.831 C 234.925 736.212 236.249 735.903 237.603 735.903 C 239.13 735.903 240.019 736.435 240.271 737.498 Z M 229.802 745.937 C 229.686 746.633 229.628 747.348 229.628 748.083 C 229.628 749.92 230.014 751.399 230.788 752.52 C 231.58 753.641 232.615 754.202 233.891 754.202 C 234.954 754.202 235.785 753.883 236.385 753.245 C 237.003 752.588 237.313 751.631 237.313 750.374 C 237.313 748.827 236.897 747.648 236.066 746.836 C 235.234 746.024 234.016 745.618 232.412 745.618 C 231.928 745.618 231.464 745.647 231.02 745.705 C 230.594 745.763 230.188 745.84 229.802 745.937 Z" fill="black"/><path d="M 232.76 821.377 L 232.064 821.377 C 231.464 821.377 231.029 821.222 230.759 820.913 C 230.488 820.604 230.353 820.091 230.353 819.376 C 230.353 818.332 230.652 816.979 231.252 815.316 C 231.87 813.634 232.731 811.817 233.833 809.864 C 234.683 808.375 235.389 807.157 235.95 806.21 C 236.51 805.243 237.061 804.344 237.603 803.513 L 230.005 803.513 L 229.048 806.848 L 228.236 806.848 C 227.984 806.848 227.791 806.732 227.656 806.5 C 227.54 806.249 227.482 805.91 227.482 805.485 C 227.482 804.712 227.52 803.929 227.598 803.136 C 227.694 802.324 227.81 801.618 227.946 801.019 L 239.633 801.019 C 239.961 801.019 240.222 801.116 240.416 801.309 C 240.609 801.502 240.706 801.792 240.706 802.179 L 240.706 803.194 C 240.242 803.851 239.729 804.615 239.169 805.485 C 238.627 806.336 238.096 807.206 237.574 808.095 C 237.052 808.965 236.597 809.767 236.211 810.502 C 235.244 812.358 234.48 814.185 233.92 815.983 C 233.359 817.762 232.972 819.56 232.76 821.377 Z" fill="black"/><path d="M 235.863 875.357 C 237.467 876.246 238.589 877.068 239.227 877.822 C 239.884 878.576 240.213 879.475 240.213 880.519 C 240.213 881.66 239.913 882.675 239.314 883.564 C 238.714 884.434 237.883 885.12 236.82 885.623 C 235.776 886.126 234.558 886.377 233.166 886.377 C 231.213 886.377 229.657 885.894 228.497 884.927 C 227.337 883.96 226.757 882.665 226.757 881.041 C 226.757 880.016 227.076 879.098 227.714 878.286 C 228.371 877.455 229.473 876.594 231.02 875.705 C 229.879 875.028 229.038 874.323 228.497 873.588 C 227.955 872.834 227.685 872.003 227.685 871.094 C 227.685 870.089 227.955 869.199 228.497 868.426 C 229.057 867.653 229.811 867.044 230.759 866.599 C 231.725 866.135 232.808 865.903 234.007 865.903 C 235.727 865.903 237.09 866.319 238.096 867.15 C 239.12 867.962 239.633 869.083 239.633 870.514 C 239.633 871.461 239.333 872.322 238.734 873.095 C 238.134 873.868 237.177 874.622 235.863 875.357 Z M 233.92 874.429 C 235.969 873.424 236.994 872.186 236.994 870.717 C 236.994 869.886 236.694 869.219 236.095 868.716 C 235.495 868.213 234.712 867.962 233.746 867.962 C 232.76 867.962 231.948 868.233 231.31 868.774 C 230.672 869.296 230.353 869.973 230.353 870.804 C 230.353 871.481 230.614 872.09 231.136 872.631 C 231.658 873.153 232.586 873.752 233.92 874.429 Z M 232.905 876.633 C 231.745 877.29 230.904 877.948 230.382 878.605 C 229.86 879.262 229.599 880.016 229.599 880.867 C 229.599 881.892 229.947 882.713 230.643 883.332 C 231.339 883.951 232.286 884.26 233.485 884.26 C 234.645 884.26 235.582 883.97 236.298 883.39 C 237.013 882.791 237.371 882.008 237.371 881.041 C 237.371 880.461 237.226 879.939 236.936 879.475 C 236.665 879.011 236.201 878.557 235.544 878.112 C 234.906 877.667 234.026 877.174 232.905 876.633 Z" fill="black"/><path d="M 226.496 949.724 C 228.97 949.492 231.039 948.844 232.702 947.781 C 234.364 946.718 235.553 945.268 236.269 943.431 C 235.785 943.528 235.292 943.605 234.79 943.663 C 234.306 943.702 233.833 943.721 233.369 943.721 C 231.223 943.721 229.541 943.151 228.323 942.01 C 227.105 940.869 226.496 939.284 226.496 937.254 C 226.496 935.997 226.776 934.895 227.337 933.948 C 227.897 932.981 228.671 932.237 229.657 931.715 C 230.662 931.174 231.812 930.903 233.108 930.903 C 235.273 930.903 236.945 931.599 238.125 932.991 C 239.323 934.383 239.923 936.345 239.923 938.878 C 239.923 940.637 239.613 942.281 238.995 943.808 C 238.395 945.316 237.574 946.64 236.53 947.781 C 235.505 948.922 234.345 949.811 233.05 950.449 C 231.754 951.068 230.43 951.377 229.077 951.377 C 228.265 951.377 227.656 951.222 227.25 950.913 C 226.844 950.604 226.592 950.207 226.496 949.724 Z M 236.849 941.314 C 236.887 940.985 236.926 940.637 236.965 940.27 C 237.003 939.903 237.023 939.535 237.023 939.168 C 237.023 937.331 236.636 935.862 235.863 934.76 C 235.089 933.639 234.055 933.078 232.76 933.078 C 231.696 933.078 230.865 933.416 230.266 934.093 C 229.666 934.75 229.367 935.678 229.367 936.877 C 229.367 938.424 229.782 939.603 230.614 940.415 C 231.464 941.227 232.682 941.633 234.268 941.633 C 234.654 941.633 235.051 941.614 235.457 941.575 C 235.863 941.517 236.327 941.43 236.849 941.314 Z" fill="black"/><path d="M 229.555 1016 L 219.579 1016 L 219.695 1014.75 C 219.927 1014.66 220.391 1014.52 221.087 1014.35 C 221.802 1014.15 222.633 1013.96 223.581 1013.77 L 223.581 999.818 L 220.826 999.818 C 220.246 999.818 219.869 999.779 219.695 999.702 C 219.521 999.605 219.395 999.431 219.318 999.18 L 219.115 998.252 C 220.197 997.962 221.319 997.614 222.479 997.208 C 223.658 996.802 224.625 996.357 225.379 995.874 L 226.655 996.657 L 226.423 998.571 L 226.423 1013.74 L 228.946 1014.06 C 229.526 1014.13 229.816 1014.4 229.816 1014.84 C 229.816 1014.99 229.787 1015.18 229.729 1015.39 C 229.69 1015.6 229.632 1015.81 229.555 1016 Z M 242.113 1016.38 C 239.774 1016.38 237.985 1015.55 236.748 1013.88 C 235.511 1012.22 234.892 1009.84 234.892 1006.75 C 234.892 1003.33 235.598 1000.67 237.009 998.774 C 238.42 996.86 240.402 995.903 242.954 995.903 C 245.313 995.903 247.101 996.734 248.319 998.397 C 249.556 1000.04 250.175 1002.42 250.175 1005.53 C 250.175 1008.95 249.469 1011.62 248.058 1013.53 C 246.647 1015.43 244.665 1016.38 242.113 1016.38 Z M 242.403 1014.17 C 244.008 1014.17 245.216 1013.46 246.028 1012.03 C 246.859 1010.58 247.275 1008.45 247.275 1005.65 C 247.275 1003.19 246.879 1001.33 246.086 1000.05 C 245.293 998.755 244.153 998.107 242.664 998.107 C 241.079 998.107 239.87 998.822 239.039 1000.25 C 238.208 1001.68 237.792 1003.81 237.792 1006.63 C 237.792 1009.09 238.188 1010.96 238.981 1012.26 C 239.793 1013.53 240.934 1014.17 242.403 1014.17 Z" fill="black"/><path d="M 229.555 1081 L 219.579 1081 L 219.695 1079.75 C 219.927 1079.66 220.391 1079.52 221.087 1079.35 C 221.802 1079.15 222.633 1078.96 223.581 1078.77 L 223.581 1064.82 L 220.826 1064.82 C 220.246 1064.82 219.869 1064.78 219.695 1064.7 C 219.521 1064.61 219.395 1064.43 219.318 1064.18 L 219.115 1063.25 C 220.197 1062.96 221.319 1062.61 222.479 1062.21 C 223.658 1061.8 224.625 1061.36 225.379 1060.87 L 226.655 1061.66 L 226.423 1063.57 L 226.423 1078.74 L 228.946 1079.06 C 229.526 1079.13 229.816 1079.4 229.816 1079.84 C 229.816 1079.99 229.787 1080.18 229.729 1080.39 C 229.69 1080.6 229.632 1080.81 229.555 1081 Z M 247.623 1081 L 237.647 1081 L 237.763 1079.75 C 237.995 1079.66 238.459 1079.52 239.155 1079.35 C 239.87 1079.15 240.702 1078.96 241.649 1078.77 L 241.649 1064.82 L 238.894 1064.82 C 238.314 1064.82 237.937 1064.78 237.763 1064.7 C 237.589 1064.61 237.463 1064.43 237.386 1064.18 L 237.183 1063.25 C 238.266 1062.96 239.387 1062.61 240.547 1062.21 C 241.726 1061.8 242.693 1061.36 243.447 1060.87 L 244.723 1061.66 L 244.491 1063.57 L 244.491 1078.74 L 247.014 1079.06 C 247.594 1079.13 247.884 1079.4 247.884 1079.84 C 247.884 1079.99 247.855 1080.18 247.797 1080.39 C 247.758 1080.6 247.7 1080.81 247.623 1081 Z" fill="black"/><path d="M 229.555 1146 L 219.579 1146 L 219.695 1144.75 C 219.927 1144.66 220.391 1144.52 221.087 1144.35 C 221.802 1144.15 222.633 1143.96 223.581 1143.77 L 223.581 1129.82 L 220.826 1129.82 C 220.246 1129.82 219.869 1129.78 219.695 1129.7 C 219.521 1129.61 219.395 1129.43 219.318 1129.18 L 219.115 1128.25 C 220.197 1127.96 221.319 1127.61 222.479 1127.21 C 223.658 1126.8 224.625 1126.36 225.379 1125.87 L 226.655 1126.66 L 226.423 1128.57 L 226.423 1143.74 L 228.946 1144.06 C 229.526 1144.13 229.816 1144.4 229.816 1144.84 C 229.816 1144.99 229.787 1145.18 229.729 1145.39 C 229.69 1145.6 229.632 1145.81 229.555 1146 Z M 247.42 1146 L 237.328 1146 C 237.019 1146 236.767 1145.95 236.574 1145.85 C 236.4 1145.74 236.255 1145.52 236.139 1145.19 C 236.023 1144.84 235.888 1144.31 235.733 1143.59 L 238.575 1140.95 C 240.006 1139.64 241.166 1138.52 242.055 1137.59 C 242.944 1136.64 243.621 1135.83 244.085 1135.15 C 244.568 1134.46 244.897 1133.83 245.071 1133.27 C 245.264 1132.69 245.361 1132.11 245.361 1131.53 C 245.361 1130.39 245.071 1129.53 244.491 1128.95 C 243.93 1128.37 243.109 1128.08 242.026 1128.08 C 240.731 1128.08 239.783 1128.51 239.184 1129.38 C 238.585 1130.23 238.285 1131.35 238.285 1132.72 L 237.589 1132.72 C 237.086 1132.72 236.671 1132.55 236.342 1132.22 C 236.033 1131.9 235.878 1131.48 235.878 1130.98 C 235.878 1130.15 236.187 1129.34 236.806 1128.57 C 237.425 1127.8 238.256 1127.16 239.3 1126.66 C 240.363 1126.15 241.543 1125.9 242.838 1125.9 C 244.578 1125.9 245.931 1126.36 246.898 1127.27 C 247.884 1128.16 248.377 1129.43 248.377 1131.09 C 248.377 1132.04 248.126 1133.03 247.623 1134.05 C 247.14 1135.06 246.337 1136.19 245.216 1137.44 C 244.095 1138.7 242.587 1140.16 240.692 1141.82 L 238.952 1143.39 L 249.305 1143.39 L 249.305 1144.23 C 249.305 1144.85 249.15 1145.3 248.841 1145.59 C 248.551 1145.86 248.077 1146 247.42 1146 Z" fill="black"/><path d="M 229.555 1211 L 219.579 1211 L 219.695 1209.75 C 219.927 1209.66 220.391 1209.52 221.087 1209.35 C 221.802 1209.15 222.633 1208.96 223.581 1208.77 L 223.581 1194.82 L 220.826 1194.82 C 220.246 1194.82 219.869 1194.78 219.695 1194.7 C 219.521 1194.61 219.395 1194.43 219.318 1194.18 L 219.115 1193.25 C 220.197 1192.96 221.319 1192.61 222.479 1192.21 C 223.658 1191.8 224.625 1191.36 225.379 1190.87 L 226.655 1191.66 L 226.423 1193.57 L 226.423 1208.74 L 228.946 1209.06 C 229.526 1209.13 229.816 1209.4 229.816 1209.84 C 229.816 1209.99 229.787 1210.18 229.729 1210.39 C 229.69 1210.6 229.632 1210.81 229.555 1211 Z M 236.11 1209.32 L 236.893 1209.32 C 239.58 1209.32 241.668 1208.93 243.157 1208.16 C 244.665 1207.37 245.419 1206.18 245.419 1204.59 C 245.419 1203.74 245.158 1203.06 244.636 1202.56 C 244.114 1202.04 243.36 1201.78 242.374 1201.78 C 241.852 1201.78 241.359 1201.81 240.895 1201.86 C 240.431 1201.92 239.919 1202.02 239.358 1202.15 L 238.778 1200.36 C 239.455 1200.2 240.015 1200.06 240.46 1199.92 C 240.924 1199.77 241.349 1199.6 241.736 1199.43 C 243.882 1198.44 244.955 1197.17 244.955 1195.6 C 244.955 1194.77 244.723 1194.13 244.259 1193.69 C 243.795 1193.24 243.138 1193.02 242.287 1193.02 C 241.224 1193.02 240.286 1193.31 239.474 1193.89 C 238.681 1194.47 238.024 1195.26 237.502 1196.27 L 236.922 1195.83 C 236.4 1195.47 236.139 1195 236.139 1194.44 C 236.139 1193.88 236.458 1193.33 237.096 1192.79 C 237.734 1192.25 238.556 1191.8 239.561 1191.45 C 240.586 1191.09 241.668 1190.9 242.809 1190.9 C 244.375 1190.9 245.583 1191.3 246.434 1192.09 C 247.304 1192.87 247.739 1193.97 247.739 1195.4 C 247.739 1196.31 247.459 1197.2 246.898 1198.07 C 246.337 1198.92 245.583 1199.58 244.636 1200.07 C 245.699 1200.32 246.589 1200.8 247.304 1201.52 C 248.019 1202.21 248.377 1203.16 248.377 1204.36 C 248.377 1205.69 247.981 1206.89 247.188 1207.95 C 246.415 1209.02 245.351 1209.86 243.998 1210.48 C 242.664 1211.08 241.137 1211.38 239.416 1211.38 C 238.237 1211.38 237.415 1211.23 236.951 1210.94 C 236.506 1210.65 236.226 1210.11 236.11 1209.32 Z" fill="black"/><path d="M 229.555 1276 L 219.579 1276 L 219.695 1274.75 C 219.927 1274.66 220.391 1274.52 221.087 1274.35 C 221.802 1274.15 222.633 1273.96 223.581 1273.77 L 223.581 1259.82 L 220.826 1259.82 C 220.246 1259.82 219.869 1259.78 219.695 1259.7 C 219.521 1259.61 219.395 1259.43 219.318 1259.18 L 219.115 1258.25 C 220.197 1257.96 221.319 1257.61 222.479 1257.21 C 223.658 1256.8 224.625 1256.36 225.379 1255.87 L 226.655 1256.66 L 226.423 1258.57 L 226.423 1273.74 L 228.946 1274.06 C 229.526 1274.13 229.816 1274.4 229.816 1274.84 C 229.816 1274.99 229.787 1275.18 229.729 1275.39 C 229.69 1275.6 229.632 1275.81 229.555 1276 Z M 246.579 1276.38 L 243.969 1276.38 L 243.969 1271.21 L 236.139 1271.21 C 235.772 1271.21 235.472 1271.05 235.24 1270.72 C 235.027 1270.39 234.834 1269.81 234.66 1268.98 L 243.679 1256.16 L 246.579 1255.9 L 246.579 1268.92 L 249.972 1268.92 L 249.972 1271.21 L 246.579 1271.21 L 246.579 1276.38 Z M 243.969 1268.92 L 243.969 1259.27 L 237.328 1268.92 L 243.969 1268.92 Z" fill="black"/><path d="M 229.555 1341 L 219.579 1341 L 219.695 1339.75 C 219.927 1339.66 220.391 1339.52 221.087 1339.35 C 221.802 1339.15 222.633 1338.96 223.581 1338.77 L 223.581 1324.82 L 220.826 1324.82 C 220.246 1324.82 219.869 1324.78 219.695 1324.7 C 219.521 1324.61 219.395 1324.43 219.318 1324.18 L 219.115 1323.25 C 220.197 1322.96 221.319 1322.61 222.479 1322.21 C 223.658 1321.8 224.625 1321.36 225.379 1320.87 L 226.655 1321.66 L 226.423 1323.57 L 226.423 1338.74 L 228.946 1339.06 C 229.526 1339.13 229.816 1339.4 229.816 1339.84 C 229.816 1339.99 229.787 1340.18 229.729 1340.39 C 229.69 1340.6 229.632 1340.81 229.555 1341 Z M 235.791 1339.32 L 236.806 1339.32 C 239.59 1339.32 241.707 1338.88 243.157 1338.01 C 244.607 1337.12 245.332 1335.88 245.332 1334.27 C 245.332 1332.98 244.723 1332.02 243.505 1331.4 C 242.287 1330.78 240.383 1330.44 237.792 1330.39 L 238.575 1321.02 L 248.522 1321.02 L 248.319 1323.45 L 240.808 1323.45 L 240.431 1327.69 C 243.138 1328 245.119 1328.66 246.376 1329.66 C 247.633 1330.67 248.261 1332.13 248.261 1334.04 C 248.261 1335.43 247.865 1336.69 247.072 1337.81 C 246.299 1338.91 245.206 1339.78 243.795 1340.42 C 242.384 1341.06 240.721 1341.38 238.807 1341.38 C 237.782 1341.38 237.048 1341.22 236.603 1340.91 C 236.158 1340.58 235.888 1340.05 235.791 1339.32 Z" fill="black"/><path d="M 229.555 1406 L 219.579 1406 L 219.695 1404.75 C 219.927 1404.66 220.391 1404.52 221.087 1404.35 C 221.802 1404.15 222.633 1403.96 223.581 1403.77 L 223.581 1389.82 L 220.826 1389.82 C 220.246 1389.82 219.869 1389.78 219.695 1389.7 C 219.521 1389.61 219.395 1389.43 219.318 1389.18 L 219.115 1388.25 C 220.197 1387.96 221.319 1387.61 222.479 1387.21 C 223.658 1386.8 224.625 1386.36 225.379 1385.87 L 226.655 1386.66 L 226.423 1388.57 L 226.423 1403.74 L 228.946 1404.06 C 229.526 1404.13 229.816 1404.4 229.816 1404.84 C 229.816 1404.99 229.787 1405.18 229.729 1405.39 C 229.69 1405.6 229.632 1405.81 229.555 1406 Z M 249.305 1387.5 C 246.966 1387.58 244.936 1388.18 243.215 1389.32 C 241.494 1390.47 240.238 1391.98 239.445 1393.88 C 240.431 1393.65 241.398 1393.53 242.345 1393.53 C 244.472 1393.53 246.144 1394.1 247.362 1395.24 C 248.599 1396.38 249.218 1397.97 249.218 1400 C 249.218 1401.23 248.938 1402.34 248.377 1403.3 C 247.816 1404.27 247.033 1405.02 246.028 1405.56 C 245.042 1406.11 243.892 1406.38 242.577 1406.38 C 240.412 1406.38 238.73 1405.68 237.531 1404.29 C 236.352 1402.88 235.762 1400.92 235.762 1398.4 C 235.762 1396.57 236.062 1394.88 236.661 1393.36 C 237.28 1391.83 238.111 1390.51 239.155 1389.41 C 240.199 1388.29 241.369 1387.43 242.664 1386.83 C 243.959 1386.21 245.284 1385.9 246.637 1385.9 C 248.164 1385.9 249.054 1386.43 249.305 1387.5 Z M 238.836 1395.94 C 238.72 1396.63 238.662 1397.35 238.662 1398.08 C 238.662 1399.92 239.049 1401.4 239.822 1402.52 C 240.615 1403.64 241.649 1404.2 242.925 1404.2 C 243.988 1404.2 244.82 1403.88 245.419 1403.24 C 246.038 1402.59 246.347 1401.63 246.347 1400.37 C 246.347 1398.83 245.931 1397.65 245.1 1396.84 C 244.269 1396.02 243.051 1395.62 241.446 1395.62 C 240.963 1395.62 240.499 1395.65 240.054 1395.7 C 239.629 1395.76 239.223 1395.84 238.836 1395.94 Z" fill="black"/><path d="M 229.555 1471 L 219.579 1471 L 219.695 1469.75 C 219.927 1469.66 220.391 1469.52 221.087 1469.35 C 221.802 1469.15 222.633 1468.96 223.581 1468.77 L 223.581 1454.82 L 220.826 1454.82 C 220.246 1454.82 219.869 1454.78 219.695 1454.7 C 219.521 1454.61 219.395 1454.43 219.318 1454.18 L 219.115 1453.25 C 220.197 1452.96 221.319 1452.61 222.479 1452.21 C 223.658 1451.8 224.625 1451.36 225.379 1450.87 L 226.655 1451.66 L 226.423 1453.57 L 226.423 1468.74 L 228.946 1469.06 C 229.526 1469.13 229.816 1469.4 229.816 1469.84 C 229.816 1469.99 229.787 1470.18 229.729 1470.39 C 229.69 1470.6 229.632 1470.81 229.555 1471 Z M 241.794 1471.38 L 241.098 1471.38 C 240.499 1471.38 240.064 1471.22 239.793 1470.91 C 239.522 1470.6 239.387 1470.09 239.387 1469.38 C 239.387 1468.33 239.687 1466.98 240.286 1465.32 C 240.905 1463.63 241.765 1461.82 242.867 1459.86 C 243.718 1458.38 244.423 1457.16 244.984 1456.21 C 245.545 1455.24 246.096 1454.34 246.637 1453.51 L 239.039 1453.51 L 238.082 1456.85 L 237.27 1456.85 C 237.019 1456.85 236.825 1456.73 236.69 1456.5 C 236.574 1456.25 236.516 1455.91 236.516 1455.48 C 236.516 1454.71 236.555 1453.93 236.632 1453.14 C 236.729 1452.32 236.845 1451.62 236.98 1451.02 L 248.667 1451.02 C 248.996 1451.02 249.257 1451.12 249.45 1451.31 C 249.643 1451.5 249.74 1451.79 249.74 1452.18 L 249.74 1453.19 C 249.276 1453.85 248.764 1454.61 248.203 1455.48 C 247.662 1456.34 247.13 1457.21 246.608 1458.09 C 246.086 1458.96 245.632 1459.77 245.245 1460.5 C 244.278 1462.36 243.515 1464.18 242.954 1465.98 C 242.393 1467.76 242.007 1469.56 241.794 1471.38 Z" fill="black"/><path d="M 229.555 1536 L 219.579 1536 L 219.695 1534.75 C 219.927 1534.66 220.391 1534.52 221.087 1534.35 C 221.802 1534.15 222.633 1533.96 223.581 1533.77 L 223.581 1519.82 L 220.826 1519.82 C 220.246 1519.82 219.869 1519.78 219.695 1519.7 C 219.521 1519.61 219.395 1519.43 219.318 1519.18 L 219.115 1518.25 C 220.197 1517.96 221.319 1517.61 222.479 1517.21 C 223.658 1516.8 224.625 1516.36 225.379 1515.87 L 226.655 1516.66 L 226.423 1518.57 L 226.423 1533.74 L 228.946 1534.06 C 229.526 1534.13 229.816 1534.4 229.816 1534.84 C 229.816 1534.99 229.787 1535.18 229.729 1535.39 C 229.69 1535.6 229.632 1535.81 229.555 1536 Z M 244.897 1525.36 C 246.502 1526.25 247.623 1527.07 248.261 1527.82 C 248.918 1528.58 249.247 1529.47 249.247 1530.52 C 249.247 1531.66 248.947 1532.67 248.348 1533.56 C 247.749 1534.43 246.917 1535.12 245.854 1535.62 C 244.81 1536.13 243.592 1536.38 242.2 1536.38 C 240.247 1536.38 238.691 1535.89 237.531 1534.93 C 236.371 1533.96 235.791 1532.66 235.791 1531.04 C 235.791 1530.02 236.11 1529.1 236.748 1528.29 C 237.405 1527.45 238.507 1526.59 240.054 1525.7 C 238.913 1525.03 238.072 1524.32 237.531 1523.59 C 236.99 1522.83 236.719 1522 236.719 1521.09 C 236.719 1520.09 236.99 1519.2 237.531 1518.43 C 238.092 1517.65 238.846 1517.04 239.793 1516.6 C 240.76 1516.13 241.842 1515.9 243.041 1515.9 C 244.762 1515.9 246.125 1516.32 247.13 1517.15 C 248.155 1517.96 248.667 1519.08 248.667 1520.51 C 248.667 1521.46 248.367 1522.32 247.768 1523.09 C 247.169 1523.87 246.212 1524.62 244.897 1525.36 Z M 242.954 1524.43 C 245.003 1523.42 246.028 1522.19 246.028 1520.72 C 246.028 1519.89 245.728 1519.22 245.129 1518.72 C 244.53 1518.21 243.747 1517.96 242.78 1517.96 C 241.794 1517.96 240.982 1518.23 240.344 1518.77 C 239.706 1519.3 239.387 1519.97 239.387 1520.8 C 239.387 1521.48 239.648 1522.09 240.17 1522.63 C 240.692 1523.15 241.62 1523.75 242.954 1524.43 Z M 241.939 1526.63 C 240.779 1527.29 239.938 1527.95 239.416 1528.6 C 238.894 1529.26 238.633 1530.02 238.633 1530.87 C 238.633 1531.89 238.981 1532.71 239.677 1533.33 C 240.373 1533.95 241.32 1534.26 242.519 1534.26 C 243.679 1534.26 244.617 1533.97 245.332 1533.39 C 246.047 1532.79 246.405 1532.01 246.405 1531.04 C 246.405 1530.46 246.26 1529.94 245.97 1529.47 C 245.699 1529.01 245.235 1528.56 244.578 1528.11 C 243.94 1527.67 243.06 1527.17 241.939 1526.63 Z" fill="black"/><path d="M 229.555 1601 L 219.579 1601 L 219.695 1599.75 C 219.927 1599.66 220.391 1599.52 221.087 1599.35 C 221.802 1599.15 222.633 1598.96 223.581 1598.77 L 223.581 1584.82 L 220.826 1584.82 C 220.246 1584.82 219.869 1584.78 219.695 1584.7 C 219.521 1584.61 219.395 1584.43 219.318 1584.18 L 219.115 1583.25 C 220.197 1582.96 221.319 1582.61 222.479 1582.21 C 223.658 1581.8 224.625 1581.36 225.379 1580.87 L 226.655 1581.66 L 226.423 1583.57 L 226.423 1598.74 L 228.946 1599.06 C 229.526 1599.13 229.816 1599.4 229.816 1599.84 C 229.816 1599.99 229.787 1600.18 229.729 1600.39 C 229.69 1600.6 229.632 1600.81 229.555 1601 Z M 235.53 1599.72 C 238.005 1599.49 240.073 1598.84 241.736 1597.78 C 243.399 1596.72 244.588 1595.27 245.303 1593.43 C 244.82 1593.53 244.327 1593.6 243.824 1593.66 C 243.341 1593.7 242.867 1593.72 242.403 1593.72 C 240.257 1593.72 238.575 1593.15 237.357 1592.01 C 236.139 1590.87 235.53 1589.28 235.53 1587.25 C 235.53 1586 235.81 1584.9 236.371 1583.95 C 236.932 1582.98 237.705 1582.24 238.691 1581.71 C 239.696 1581.17 240.847 1580.9 242.142 1580.9 C 244.307 1580.9 245.98 1581.6 247.159 1582.99 C 248.358 1584.38 248.957 1586.35 248.957 1588.88 C 248.957 1590.64 248.648 1592.28 248.029 1593.81 C 247.43 1595.32 246.608 1596.64 245.564 1597.78 C 244.539 1598.92 243.379 1599.81 242.084 1600.45 C 240.789 1601.07 239.464 1601.38 238.111 1601.38 C 237.299 1601.38 236.69 1601.22 236.284 1600.91 C 235.878 1600.6 235.627 1600.21 235.53 1599.72 Z M 245.883 1591.31 C 245.922 1590.99 245.96 1590.64 245.999 1590.27 C 246.038 1589.9 246.057 1589.54 246.057 1589.17 C 246.057 1587.33 245.67 1585.86 244.897 1584.76 C 244.124 1583.64 243.089 1583.08 241.794 1583.08 C 240.731 1583.08 239.899 1583.42 239.3 1584.09 C 238.701 1584.75 238.401 1585.68 238.401 1586.88 C 238.401 1588.42 238.817 1589.6 239.648 1590.41 C 240.499 1591.23 241.717 1591.63 243.302 1591.63 C 243.689 1591.63 244.085 1591.61 244.491 1591.57 C 244.897 1591.52 245.361 1591.43 245.883 1591.31 Z" fill="black"/><path d="M 229.352 1666 L 219.26 1666 C 218.95 1666 218.699 1665.95 218.506 1665.85 C 218.332 1665.74 218.187 1665.52 218.071 1665.19 C 217.955 1664.84 217.819 1664.31 217.665 1663.59 L 220.507 1660.95 C 221.937 1659.64 223.097 1658.52 223.987 1657.59 C 224.876 1656.64 225.553 1655.83 226.017 1655.15 C 226.5 1654.46 226.829 1653.83 227.003 1653.27 C 227.196 1652.69 227.293 1652.11 227.293 1651.53 C 227.293 1650.39 227.003 1649.53 226.423 1648.95 C 225.862 1648.37 225.04 1648.08 223.958 1648.08 C 222.662 1648.08 221.715 1648.51 221.116 1649.38 C 220.516 1650.23 220.217 1651.35 220.217 1652.72 L 219.521 1652.72 C 219.018 1652.72 218.602 1652.55 218.274 1652.22 C 217.964 1651.9 217.81 1651.48 217.81 1650.98 C 217.81 1650.15 218.119 1649.34 218.738 1648.57 C 219.356 1647.8 220.188 1647.16 221.232 1646.66 C 222.295 1646.15 223.474 1645.9 224.77 1645.9 C 226.51 1645.9 227.863 1646.36 228.83 1647.27 C 229.816 1648.16 230.309 1649.43 230.309 1651.09 C 230.309 1652.04 230.057 1653.03 229.555 1654.05 C 229.071 1655.06 228.269 1656.19 227.148 1657.44 C 226.026 1658.7 224.518 1660.16 222.624 1661.82 L 220.884 1663.39 L 231.237 1663.39 L 231.237 1664.23 C 231.237 1664.85 231.082 1665.3 230.773 1665.59 C 230.483 1665.86 230.009 1666 229.352 1666 Z M 242.113 1666.38 C 239.774 1666.38 237.985 1665.55 236.748 1663.88 C 235.511 1662.22 234.892 1659.84 234.892 1656.75 C 234.892 1653.33 235.598 1650.67 237.009 1648.77 C 238.42 1646.86 240.402 1645.9 242.954 1645.9 C 245.313 1645.9 247.101 1646.73 248.319 1648.4 C 249.556 1650.04 250.175 1652.42 250.175 1655.53 C 250.175 1658.95 249.469 1661.62 248.058 1663.53 C 246.647 1665.43 244.665 1666.38 242.113 1666.38 Z M 242.403 1664.17 C 244.008 1664.17 245.216 1663.46 246.028 1662.03 C 246.859 1660.58 247.275 1658.45 247.275 1655.65 C 247.275 1653.19 246.879 1651.33 246.086 1650.05 C 245.293 1648.75 244.153 1648.11 242.664 1648.11 C 241.079 1648.11 239.87 1648.82 239.039 1650.25 C 238.208 1651.68 237.792 1653.81 237.792 1656.63 C 237.792 1659.09 238.188 1660.96 238.981 1662.26 C 239.793 1663.53 240.934 1664.17 242.403 1664.17 Z" fill="black"/><path d="M 229.352 1731 L 219.26 1731 C 218.95 1731 218.699 1730.95 218.506 1730.85 C 218.332 1730.74 218.187 1730.52 218.071 1730.19 C 217.955 1729.84 217.819 1729.31 217.665 1728.59 L 220.507 1725.95 C 221.937 1724.64 223.097 1723.52 223.987 1722.59 C 224.876 1721.64 225.553 1720.83 226.017 1720.15 C 226.5 1719.46 226.829 1718.83 227.003 1718.27 C 227.196 1717.69 227.293 1717.11 227.293 1716.53 C 227.293 1715.39 227.003 1714.53 226.423 1713.95 C 225.862 1713.37 225.04 1713.08 223.958 1713.08 C 222.662 1713.08 221.715 1713.51 221.116 1714.38 C 220.516 1715.23 220.217 1716.35 220.217 1717.72 L 219.521 1717.72 C 219.018 1717.72 218.602 1717.55 218.274 1717.22 C 217.964 1716.9 217.81 1716.48 217.81 1715.98 C 217.81 1715.15 218.119 1714.34 218.738 1713.57 C 219.356 1712.8 220.188 1712.16 221.232 1711.66 C 222.295 1711.15 223.474 1710.9 224.77 1710.9 C 226.51 1710.9 227.863 1711.36 228.83 1712.27 C 229.816 1713.16 230.309 1714.43 230.309 1716.09 C 230.309 1717.04 230.057 1718.03 229.555 1719.05 C 229.071 1720.06 228.269 1721.19 227.148 1722.44 C 226.026 1723.7 224.518 1725.16 222.624 1726.82 L 220.884 1728.39 L 231.237 1728.39 L 231.237 1729.23 C 231.237 1729.85 231.082 1730.3 230.773 1730.59 C 230.483 1730.86 230.009 1731 229.352 1731 Z M 247.623 1731 L 237.647 1731 L 237.763 1729.75 C 237.995 1729.66 238.459 1729.52 239.155 1729.35 C 239.87 1729.15 240.702 1728.96 241.649 1728.77 L 241.649 1714.82 L 238.894 1714.82 C 238.314 1714.82 237.937 1714.78 237.763 1714.7 C 237.589 1714.61 237.463 1714.43 237.386 1714.18 L 237.183 1713.25 C 238.266 1712.96 239.387 1712.61 240.547 1712.21 C 241.726 1711.8 242.693 1711.36 243.447 1710.87 L 244.723 1711.66 L 244.491 1713.57 L 244.491 1728.74 L 247.014 1729.06 C 247.594 1729.13 247.884 1729.4 247.884 1729.84 C 247.884 1729.99 247.855 1730.18 247.797 1730.39 C 247.758 1730.6 247.7 1730.81 247.623 1731 Z" fill="black"/><path d="M 229.352 1796 L 219.26 1796 C 218.95 1796 218.699 1795.95 218.506 1795.85 C 218.332 1795.74 218.187 1795.52 218.071 1795.19 C 217.955 1794.84 217.819 1794.31 217.665 1793.59 L 220.507 1790.95 C 221.937 1789.64 223.097 1788.52 223.987 1787.59 C 224.876 1786.64 225.553 1785.83 226.017 1785.15 C 226.5 1784.46 226.829 1783.83 227.003 1783.27 C 227.196 1782.69 227.293 1782.11 227.293 1781.53 C 227.293 1780.39 227.003 1779.53 226.423 1778.95 C 225.862 1778.37 225.04 1778.08 223.958 1778.08 C 222.662 1778.08 221.715 1778.51 221.116 1779.38 C 220.516 1780.23 220.217 1781.35 220.217 1782.72 L 219.521 1782.72 C 219.018 1782.72 218.602 1782.55 218.274 1782.22 C 217.964 1781.9 217.81 1781.48 217.81 1780.98 C 217.81 1780.15 218.119 1779.34 218.738 1778.57 C 219.356 1777.8 220.188 1777.16 221.232 1776.66 C 222.295 1776.15 223.474 1775.9 224.77 1775.9 C 226.51 1775.9 227.863 1776.36 228.83 1777.27 C 229.816 1778.16 230.309 1779.43 230.309 1781.09 C 230.309 1782.04 230.057 1783.03 229.555 1784.05 C 229.071 1785.06 228.269 1786.19 227.148 1787.44 C 226.026 1788.7 224.518 1790.16 222.624 1791.82 L 220.884 1793.39 L 231.237 1793.39 L 231.237 1794.23 C 231.237 1794.85 231.082 1795.3 230.773 1795.59 C 230.483 1795.86 230.009 1796 229.352 1796 Z M 247.42 1796 L 237.328 1796 C 237.019 1796 236.767 1795.95 236.574 1795.85 C 236.4 1795.74 236.255 1795.52 236.139 1795.19 C 236.023 1794.84 235.888 1794.31 235.733 1793.59 L 238.575 1790.95 C 240.006 1789.64 241.166 1788.52 242.055 1787.59 C 242.944 1786.64 243.621 1785.83 244.085 1785.15 C 244.568 1784.46 244.897 1783.83 245.071 1783.27 C 245.264 1782.69 245.361 1782.11 245.361 1781.53 C 245.361 1780.39 245.071 1779.53 244.491 1778.95 C 243.93 1778.37 243.109 1778.08 242.026 1778.08 C 240.731 1778.08 239.783 1778.51 239.184 1779.38 C 238.585 1780.23 238.285 1781.35 238.285 1782.72 L 237.589 1782.72 C 237.086 1782.72 236.671 1782.55 236.342 1782.22 C 236.033 1781.9 235.878 1781.48 235.878 1780.98 C 235.878 1780.15 236.187 1779.34 236.806 1778.57 C 237.425 1777.8 238.256 1777.16 239.3 1776.66 C 240.363 1776.15 241.543 1775.9 242.838 1775.9 C 244.578 1775.9 245.931 1776.36 246.898 1777.27 C 247.884 1778.16 248.377 1779.43 248.377 1781.09 C 248.377 1782.04 248.126 1783.03 247.623 1784.05 C 247.14 1785.06 246.337 1786.19 245.216 1787.44 C 244.095 1788.7 242.587 1790.16 240.692 1791.82 L 238.952 1793.39 L 249.305 1793.39 L 249.305 1794.23 C 249.305 1794.85 249.15 1795.3 248.841 1795.59 C 248.551 1795.86 248.077 1796 247.42 1796 Z" fill="black"/><path d="M 229.352 1861 L 219.26 1861 C 218.95 1861 218.699 1860.95 218.506 1860.85 C 218.332 1860.74 218.187 1860.52 218.071 1860.19 C 217.955 1859.84 217.819 1859.31 217.665 1858.59 L 220.507 1855.95 C 221.937 1854.64 223.097 1853.52 223.987 1852.59 C 224.876 1851.64 225.553 1850.83 226.017 1850.15 C 226.5 1849.46 226.829 1848.83 227.003 1848.27 C 227.196 1847.69 227.293 1847.11 227.293 1846.53 C 227.293 1845.39 227.003 1844.53 226.423 1843.95 C 225.862 1843.37 225.04 1843.08 223.958 1843.08 C 222.662 1843.08 221.715 1843.51 221.116 1844.38 C 220.516 1845.23 220.217 1846.35 220.217 1847.72 L 219.521 1847.72 C 219.018 1847.72 218.602 1847.55 218.274 1847.22 C 217.964 1846.9 217.81 1846.48 217.81 1845.98 C 217.81 1845.15 218.119 1844.34 218.738 1843.57 C 219.356 1842.8 220.188 1842.16 221.232 1841.66 C 222.295 1841.15 223.474 1840.9 224.77 1840.9 C 226.51 1840.9 227.863 1841.36 228.83 1842.27 C 229.816 1843.16 230.309 1844.43 230.309 1846.09 C 230.309 1847.04 230.057 1848.03 229.555 1849.05 C 229.071 1850.06 228.269 1851.19 227.148 1852.44 C 226.026 1853.7 224.518 1855.16 222.624 1856.82 L 220.884 1858.39 L 231.237 1858.39 L 231.237 1859.23 C 231.237 1859.85 231.082 1860.3 230.773 1860.59 C 230.483 1860.86 230.009 1861 229.352 1861 Z M 236.11 1859.32 L 236.893 1859.32 C 239.58 1859.32 241.668 1858.93 243.157 1858.16 C 244.665 1857.37 245.419 1856.18 245.419 1854.59 C 245.419 1853.74 245.158 1853.06 244.636 1852.56 C 244.114 1852.04 243.36 1851.78 242.374 1851.78 C 241.852 1851.78 241.359 1851.81 240.895 1851.86 C 240.431 1851.92 239.919 1852.02 239.358 1852.15 L 238.778 1850.36 C 239.455 1850.2 240.015 1850.06 240.46 1849.92 C 240.924 1849.77 241.349 1849.6 241.736 1849.43 C 243.882 1848.44 244.955 1847.17 244.955 1845.6 C 244.955 1844.77 244.723 1844.13 244.259 1843.69 C 243.795 1843.24 243.138 1843.02 242.287 1843.02 C 241.224 1843.02 240.286 1843.31 239.474 1843.89 C 238.681 1844.47 238.024 1845.26 237.502 1846.27 L 236.922 1845.83 C 236.4 1845.47 236.139 1845 236.139 1844.44 C 236.139 1843.88 236.458 1843.33 237.096 1842.79 C 237.734 1842.25 238.556 1841.8 239.561 1841.45 C 240.586 1841.09 241.668 1840.9 242.809 1840.9 C 244.375 1840.9 245.583 1841.3 246.434 1842.09 C 247.304 1842.87 247.739 1843.97 247.739 1845.4 C 247.739 1846.31 247.459 1847.2 246.898 1848.07 C 246.337 1848.92 245.583 1849.58 244.636 1850.07 C 245.699 1850.32 246.589 1850.8 247.304 1851.52 C 248.019 1852.21 248.377 1853.16 248.377 1854.36 C 248.377 1855.69 247.981 1856.89 247.188 1857.95 C 246.415 1859.02 245.351 1859.86 243.998 1860.48 C 242.664 1861.08 241.137 1861.38 239.416 1861.38 C 238.237 1861.38 237.415 1861.23 236.951 1860.94 C 236.506 1860.65 236.226 1860.11 236.11 1859.32 Z" fill="black"/><path d="M 229.352 1926 L 219.26 1926 C 218.95 1926 218.699 1925.95 218.506 1925.85 C 218.332 1925.74 218.187 1925.52 218.071 1925.19 C 217.955 1924.84 217.819 1924.31 217.665 1923.59 L 220.507 1920.95 C 221.937 1919.64 223.097 1918.52 223.987 1917.59 C 224.876 1916.64 225.553 1915.83 226.017 1915.15 C 226.5 1914.46 226.829 1913.83 227.003 1913.27 C 227.196 1912.69 227.293 1912.11 227.293 1911.53 C 227.293 1910.39 227.003 1909.53 226.423 1908.95 C 225.862 1908.37 225.04 1908.08 223.958 1908.08 C 222.662 1908.08 221.715 1908.51 221.116 1909.38 C 220.516 1910.23 220.217 1911.35 220.217 1912.72 L 219.521 1912.72 C 219.018 1912.72 218.602 1912.55 218.274 1912.22 C 217.964 1911.9 217.81 1911.48 217.81 1910.98 C 217.81 1910.15 218.119 1909.34 218.738 1908.57 C 219.356 1907.8 220.188 1907.16 221.232 1906.66 C 222.295 1906.15 223.474 1905.9 224.77 1905.9 C 226.51 1905.9 227.863 1906.36 228.83 1907.27 C 229.816 1908.16 230.309 1909.43 230.309 1911.09 C 230.309 1912.04 230.057 1913.03 229.555 1914.05 C 229.071 1915.06 228.269 1916.19 227.148 1917.44 C 226.026 1918.7 224.518 1920.16 222.624 1921.82 L 220.884 1923.39 L 231.237 1923.39 L 231.237 1924.23 C 231.237 1924.85 231.082 1925.3 230.773 1925.59 C 230.483 1925.86 230.009 1926 229.352 1926 Z M 246.579 1926.38 L 243.969 1926.38 L 243.969 1921.21 L 236.139 1921.21 C 235.772 1921.21 235.472 1921.05 235.24 1920.72 C 235.027 1920.39 234.834 1919.81 234.66 1918.98 L 243.679 1906.16 L 246.579 1905.9 L 246.579 1918.92 L 249.972 1918.92 L 249.972 1921.21 L 246.579 1921.21 L 246.579 1926.38 Z M 243.969 1918.92 L 243.969 1909.27 L 237.328 1918.92 L 243.969 1918.92 Z" fill="black"/><path d="M 229.352 1991 L 219.26 1991 C 218.95 1991 218.699 1990.95 218.506 1990.85 C 218.332 1990.74 218.187 1990.52 218.071 1990.19 C 217.955 1989.84 217.819 1989.31 217.665 1988.59 L 220.507 1985.95 C 221.937 1984.64 223.097 1983.52 223.987 1982.59 C 224.876 1981.64 225.553 1980.83 226.017 1980.15 C 226.5 1979.46 226.829 1978.83 227.003 1978.27 C 227.196 1977.69 227.293 1977.11 227.293 1976.53 C 227.293 1975.39 227.003 1974.53 226.423 1973.95 C 225.862 1973.37 225.04 1973.08 223.958 1973.08 C 222.662 1973.08 221.715 1973.51 221.116 1974.38 C 220.516 1975.23 220.217 1976.35 220.217 1977.72 L 219.521 1977.72 C 219.018 1977.72 218.602 1977.55 218.274 1977.22 C 217.964 1976.9 217.81 1976.48 217.81 1975.98 C 217.81 1975.15 218.119 1974.34 218.738 1973.57 C 219.356 1972.8 220.188 1972.16 221.232 1971.66 C 222.295 1971.15 223.474 1970.9 224.77 1970.9 C 226.51 1970.9 227.863 1971.36 228.83 1972.27 C 229.816 1973.16 230.309 1974.43 230.309 1976.09 C 230.309 1977.04 230.057 1978.03 229.555 1979.05 C 229.071 1980.06 228.269 1981.19 227.148 1982.44 C 226.026 1983.7 224.518 1985.16 222.624 1986.82 L 220.884 1988.39 L 231.237 1988.39 L 231.237 1989.23 C 231.237 1989.85 231.082 1990.3 230.773 1990.59 C 230.483 1990.86 230.009 1991 229.352 1991 Z M 235.791 1989.32 L 236.806 1989.32 C 239.59 1989.32 241.707 1988.88 243.157 1988.01 C 244.607 1987.12 245.332 1985.88 245.332 1984.27 C 245.332 1982.98 244.723 1982.02 243.505 1981.4 C 242.287 1980.78 240.383 1980.44 237.792 1980.39 L 238.575 1971.02 L 248.522 1971.02 L 248.319 1973.45 L 240.808 1973.45 L 240.431 1977.69 C 243.138 1978 245.119 1978.66 246.376 1979.66 C 247.633 1980.67 248.261 1982.13 248.261 1984.04 C 248.261 1985.43 247.865 1986.69 247.072 1987.81 C 246.299 1988.91 245.206 1989.78 243.795 1990.42 C 242.384 1991.06 240.721 1991.38 238.807 1991.38 C 237.782 1991.38 237.048 1991.22 236.603 1990.91 C 236.158 1990.58 235.888 1990.05 235.791 1989.32 Z" fill="black"/><path d="M 229.352 2056 L 219.26 2056 C 218.95 2056 218.699 2055.95 218.506 2055.85 C 218.332 2055.74 218.187 2055.52 218.071 2055.19 C 217.955 2054.84 217.819 2054.31 217.665 2053.59 L 220.507 2050.95 C 221.937 2049.64 223.097 2048.52 223.987 2047.59 C 224.876 2046.64 225.553 2045.83 226.017 2045.15 C 226.5 2044.46 226.829 2043.83 227.003 2043.27 C 227.196 2042.69 227.293 2042.11 227.293 2041.53 C 227.293 2040.39 227.003 2039.53 226.423 2038.95 C 225.862 2038.37 225.04 2038.08 223.958 2038.08 C 222.662 2038.08 221.715 2038.51 221.116 2039.38 C 220.516 2040.23 220.217 2041.35 220.217 2042.72 L 219.521 2042.72 C 219.018 2042.72 218.602 2042.55 218.274 2042.22 C 217.964 2041.9 217.81 2041.48 217.81 2040.98 C 217.81 2040.15 218.119 2039.34 218.738 2038.57 C 219.356 2037.8 220.188 2037.16 221.232 2036.66 C 222.295 2036.15 223.474 2035.9 224.77 2035.9 C 226.51 2035.9 227.863 2036.36 228.83 2037.27 C 229.816 2038.16 230.309 2039.43 230.309 2041.09 C 230.309 2042.04 230.057 2043.03 229.555 2044.05 C 229.071 2045.06 228.269 2046.19 227.148 2047.44 C 226.026 2048.7 224.518 2050.16 222.624 2051.82 L 220.884 2053.39 L 231.237 2053.39 L 231.237 2054.23 C 231.237 2054.85 231.082 2055.3 230.773 2055.59 C 230.483 2055.86 230.009 2056 229.352 2056 Z M 249.305 2037.5 C 246.966 2037.58 244.936 2038.18 243.215 2039.32 C 241.494 2040.47 240.238 2041.98 239.445 2043.88 C 240.431 2043.65 241.398 2043.53 242.345 2043.53 C 244.472 2043.53 246.144 2044.1 247.362 2045.24 C 248.599 2046.38 249.218 2047.97 249.218 2050 C 249.218 2051.23 248.938 2052.34 248.377 2053.3 C 247.816 2054.27 247.033 2055.02 246.028 2055.56 C 245.042 2056.11 243.892 2056.38 242.577 2056.38 C 240.412 2056.38 238.73 2055.68 237.531 2054.29 C 236.352 2052.88 235.762 2050.92 235.762 2048.4 C 235.762 2046.57 236.062 2044.88 236.661 2043.36 C 237.28 2041.83 238.111 2040.51 239.155 2039.41 C 240.199 2038.29 241.369 2037.43 242.664 2036.83 C 243.959 2036.21 245.284 2035.9 246.637 2035.9 C 248.164 2035.9 249.054 2036.43 249.305 2037.5 Z M 238.836 2045.94 C 238.72 2046.63 238.662 2047.35 238.662 2048.08 C 238.662 2049.92 239.049 2051.4 239.822 2052.52 C 240.615 2053.64 241.649 2054.2 242.925 2054.2 C 243.988 2054.2 244.82 2053.88 245.419 2053.24 C 246.038 2052.59 246.347 2051.63 246.347 2050.37 C 246.347 2048.83 245.931 2047.65 245.1 2046.84 C 244.269 2046.02 243.051 2045.62 241.446 2045.62 C 240.963 2045.62 240.499 2045.65 240.054 2045.7 C 239.629 2045.76 239.223 2045.84 238.836 2045.94 Z" fill="black"/><path d="M 229.352 2121 L 219.26 2121 C 218.95 2121 218.699 2120.95 218.506 2120.85 C 218.332 2120.74 218.187 2120.52 218.071 2120.19 C 217.955 2119.84 217.819 2119.31 217.665 2118.59 L 220.507 2115.95 C 221.937 2114.64 223.097 2113.52 223.987 2112.59 C 224.876 2111.64 225.553 2110.83 226.017 2110.15 C 226.5 2109.46 226.829 2108.83 227.003 2108.27 C 227.196 2107.69 227.293 2107.11 227.293 2106.53 C 227.293 2105.39 227.003 2104.53 226.423 2103.95 C 225.862 2103.37 225.04 2103.08 223.958 2103.08 C 222.662 2103.08 221.715 2103.51 221.116 2104.38 C 220.516 2105.23 220.217 2106.35 220.217 2107.72 L 219.521 2107.72 C 219.018 2107.72 218.602 2107.55 218.274 2107.22 C 217.964 2106.9 217.81 2106.48 217.81 2105.98 C 217.81 2105.15 218.119 2104.34 218.738 2103.57 C 219.356 2102.8 220.188 2102.16 221.232 2101.66 C 222.295 2101.15 223.474 2100.9 224.77 2100.9 C 226.51 2100.9 227.863 2101.36 228.83 2102.27 C 229.816 2103.16 230.309 2104.43 230.309 2106.09 C 230.309 2107.04 230.057 2108.03 229.555 2109.05 C 229.071 2110.06 228.269 2111.19 227.148 2112.44 C 226.026 2113.7 224.518 2115.16 222.624 2116.82 L 220.884 2118.39 L 231.237 2118.39 L 231.237 2119.23 C 231.237 2119.85 231.082 2120.3 230.773 2120.59 C 230.483 2120.86 230.009 2121 229.352 2121 Z M 241.794 2121.38 L 241.098 2121.38 C 240.499 2121.38 240.064 2121.22 239.793 2120.91 C 239.522 2120.6 239.387 2120.09 239.387 2119.38 C 239.387 2118.33 239.687 2116.98 240.286 2115.32 C 240.905 2113.63 241.765 2111.82 242.867 2109.86 C 243.718 2108.38 244.423 2107.16 244.984 2106.21 C 245.545 2105.24 246.096 2104.34 246.637 2103.51 L 239.039 2103.51 L 238.082 2106.85 L 237.27 2106.85 C 237.019 2106.85 236.825 2106.73 236.69 2106.5 C 236.574 2106.25 236.516 2105.91 236.516 2105.48 C 236.516 2104.71 236.555 2103.93 236.632 2103.14 C 236.729 2102.32 236.845 2101.62 236.98 2101.02 L 248.667 2101.02 C 248.996 2101.02 249.257 2101.12 249.45 2101.31 C 249.643 2101.5 249.74 2101.79 249.74 2102.18 L 249.74 2103.19 C 249.276 2103.85 248.764 2104.61 248.203 2105.48 C 247.662 2106.34 247.13 2107.21 246.608 2108.09 C 246.086 2108.96 245.632 2109.77 245.245 2110.5 C 244.278 2112.36 243.515 2114.18 242.954 2115.98 C 242.393 2117.76 242.007 2119.56 241.794 2121.38 Z" fill="black"/><path d="M 229.352 2186 L 219.26 2186 C 218.95 2186 218.699 2185.95 218.506 2185.85 C 218.332 2185.74 218.187 2185.52 218.071 2185.19 C 217.955 2184.84 217.819 2184.31 217.665 2183.59 L 220.507 2180.95 C 221.937 2179.64 223.097 2178.52 223.987 2177.59 C 224.876 2176.64 225.553 2175.83 226.017 2175.15 C 226.5 2174.46 226.829 2173.83 227.003 2173.27 C 227.196 2172.69 227.293 2172.11 227.293 2171.53 C 227.293 2170.39 227.003 2169.53 226.423 2168.95 C 225.862 2168.37 225.04 2168.08 223.958 2168.08 C 222.662 2168.08 221.715 2168.51 221.116 2169.38 C 220.516 2170.23 220.217 2171.35 220.217 2172.72 L 219.521 2172.72 C 219.018 2172.72 218.602 2172.55 218.274 2172.22 C 217.964 2171.9 217.81 2171.48 217.81 2170.98 C 217.81 2170.15 218.119 2169.34 218.738 2168.57 C 219.356 2167.8 220.188 2167.16 221.232 2166.66 C 222.295 2166.15 223.474 2165.9 224.77 2165.9 C 226.51 2165.9 227.863 2166.36 228.83 2167.27 C 229.816 2168.16 230.309 2169.43 230.309 2171.09 C 230.309 2172.04 230.057 2173.03 229.555 2174.05 C 229.071 2175.06 228.269 2176.19 227.148 2177.44 C 226.026 2178.7 224.518 2180.16 222.624 2181.82 L 220.884 2183.39 L 231.237 2183.39 L 231.237 2184.23 C 231.237 2184.85 231.082 2185.3 230.773 2185.59 C 230.483 2185.86 230.009 2186 229.352 2186 Z M 244.897 2175.36 C 246.502 2176.25 247.623 2177.07 248.261 2177.82 C 248.918 2178.58 249.247 2179.47 249.247 2180.52 C 249.247 2181.66 248.947 2182.67 248.348 2183.56 C 247.749 2184.43 246.917 2185.12 245.854 2185.62 C 244.81 2186.13 243.592 2186.38 242.2 2186.38 C 240.247 2186.38 238.691 2185.89 237.531 2184.93 C 236.371 2183.96 235.791 2182.66 235.791 2181.04 C 235.791 2180.02 236.11 2179.1 236.748 2178.29 C 237.405 2177.45 238.507 2176.59 240.054 2175.7 C 238.913 2175.03 238.072 2174.32 237.531 2173.59 C 236.99 2172.83 236.719 2172 236.719 2171.09 C 236.719 2170.09 236.99 2169.2 237.531 2168.43 C 238.092 2167.65 238.846 2167.04 239.793 2166.6 C 240.76 2166.13 241.842 2165.9 243.041 2165.9 C 244.762 2165.9 246.125 2166.32 247.13 2167.15 C 248.155 2167.96 248.667 2169.08 248.667 2170.51 C 248.667 2171.46 248.367 2172.32 247.768 2173.09 C 247.169 2173.87 246.212 2174.62 244.897 2175.36 Z M 242.954 2174.43 C 245.003 2173.42 246.028 2172.19 246.028 2170.72 C 246.028 2169.89 245.728 2169.22 245.129 2168.72 C 244.53 2168.21 243.747 2167.96 242.78 2167.96 C 241.794 2167.96 240.982 2168.23 240.344 2168.77 C 239.706 2169.3 239.387 2169.97 239.387 2170.8 C 239.387 2171.48 239.648 2172.09 240.17 2172.63 C 240.692 2173.15 241.62 2173.75 242.954 2174.43 Z M 241.939 2176.63 C 240.779 2177.29 239.938 2177.95 239.416 2178.6 C 238.894 2179.26 238.633 2180.02 238.633 2180.87 C 238.633 2181.89 238.981 2182.71 239.677 2183.33 C 240.373 2183.95 241.32 2184.26 242.519 2184.26 C 243.679 2184.26 244.617 2183.97 245.332 2183.39 C 246.047 2182.79 246.405 2182.01 246.405 2181.04 C 246.405 2180.46 246.26 2179.94 245.97 2179.47 C 245.699 2179.01 245.235 2178.56 244.578 2178.11 C 243.94 2177.67 243.06 2177.17 241.939 2176.63 Z" fill="black"/><path d="M 229.352 2251 L 219.26 2251 C 218.95 2251 218.699 2250.95 218.506 2250.85 C 218.332 2250.74 218.187 2250.52 218.071 2250.19 C 217.955 2249.84 217.819 2249.31 217.665 2248.59 L 220.507 2245.95 C 221.937 2244.64 223.097 2243.52 223.987 2242.59 C 224.876 2241.64 225.553 2240.83 226.017 2240.15 C 226.5 2239.46 226.829 2238.83 227.003 2238.27 C 227.196 2237.69 227.293 2237.11 227.293 2236.53 C 227.293 2235.39 227.003 2234.53 226.423 2233.95 C 225.862 2233.37 225.04 2233.08 223.958 2233.08 C 222.662 2233.08 221.715 2233.51 221.116 2234.38 C 220.516 2235.23 220.217 2236.35 220.217 2237.72 L 219.521 2237.72 C 219.018 2237.72 218.602 2237.55 218.274 2237.22 C 217.964 2236.9 217.81 2236.48 217.81 2235.98 C 217.81 2235.15 218.119 2234.34 218.738 2233.57 C 219.356 2232.8 220.188 2232.16 221.232 2231.66 C 222.295 2231.15 223.474 2230.9 224.77 2230.9 C 226.51 2230.9 227.863 2231.36 228.83 2232.27 C 229.816 2233.16 230.309 2234.43 230.309 2236.09 C 230.309 2237.04 230.057 2238.03 229.555 2239.05 C 229.071 2240.06 228.269 2241.19 227.148 2242.44 C 226.026 2243.7 224.518 2245.16 222.624 2246.82 L 220.884 2248.39 L 231.237 2248.39 L 231.237 2249.23 C 231.237 2249.85 231.082 2250.3 230.773 2250.59 C 230.483 2250.86 230.009 2251 229.352 2251 Z M 235.53 2249.72 C 238.005 2249.49 240.073 2248.84 241.736 2247.78 C 243.399 2246.72 244.588 2245.27 245.303 2243.43 C 244.82 2243.53 244.327 2243.6 243.824 2243.66 C 243.341 2243.7 242.867 2243.72 242.403 2243.72 C 240.257 2243.72 238.575 2243.15 237.357 2242.01 C 236.139 2240.87 235.53 2239.28 235.53 2237.25 C 235.53 2236 235.81 2234.9 236.371 2233.95 C 236.932 2232.98 237.705 2232.24 238.691 2231.71 C 239.696 2231.17 240.847 2230.9 242.142 2230.9 C 244.307 2230.9 245.98 2231.6 247.159 2232.99 C 248.358 2234.38 248.957 2236.35 248.957 2238.88 C 248.957 2240.64 248.648 2242.28 248.029 2243.81 C 247.43 2245.32 246.608 2246.64 245.564 2247.78 C 244.539 2248.92 243.379 2249.81 242.084 2250.45 C 240.789 2251.07 239.464 2251.38 238.111 2251.38 C 237.299 2251.38 236.69 2251.22 236.284 2250.91 C 235.878 2250.6 235.627 2250.21 235.53 2249.72 Z M 245.883 2241.31 C 245.922 2240.99 245.96 2240.64 245.999 2240.27 C 246.038 2239.9 246.057 2239.54 246.057 2239.17 C 246.057 2237.33 245.67 2235.86 244.897 2234.76 C 244.124 2233.64 243.089 2233.08 241.794 2233.08 C 240.731 2233.08 239.899 2233.42 239.3 2234.09 C 238.701 2234.75 238.401 2235.68 238.401 2236.88 C 238.401 2238.42 238.817 2239.6 239.648 2240.41 C 240.499 2241.23 241.717 2241.63 243.302 2241.63 C 243.689 2241.63 244.085 2241.61 244.491 2241.57 C 244.897 2241.52 245.361 2241.43 245.883 2241.31 Z" fill="black"/><path d="M 218.042 2314.32 L 218.825 2314.32 C 221.512 2314.32 223.6 2313.93 225.089 2313.16 C 226.597 2312.37 227.351 2311.18 227.351 2309.59 C 227.351 2308.74 227.09 2308.06 226.568 2307.56 C 226.046 2307.04 225.292 2306.78 224.306 2306.78 C 223.784 2306.78 223.291 2306.81 222.827 2306.86 C 222.363 2306.92 221.85 2307.02 221.29 2307.15 L 220.71 2305.36 C 221.386 2305.2 221.947 2305.06 222.392 2304.92 C 222.856 2304.77 223.281 2304.6 223.668 2304.43 C 225.814 2303.44 226.887 2302.17 226.887 2300.6 C 226.887 2299.77 226.655 2299.13 226.191 2298.69 C 225.727 2298.24 225.069 2298.02 224.219 2298.02 C 223.155 2298.02 222.218 2298.31 221.406 2298.89 C 220.613 2299.47 219.956 2300.26 219.434 2301.27 L 218.854 2300.83 C 218.332 2300.47 218.071 2300 218.071 2299.44 C 218.071 2298.88 218.39 2298.33 219.028 2297.79 C 219.666 2297.25 220.487 2296.8 221.493 2296.45 C 222.517 2296.09 223.6 2295.9 224.741 2295.9 C 226.307 2295.9 227.515 2296.3 228.366 2297.09 C 229.236 2297.87 229.671 2298.97 229.671 2300.4 C 229.671 2301.31 229.39 2302.2 228.83 2303.07 C 228.269 2303.92 227.515 2304.58 226.568 2305.07 C 227.631 2305.32 228.52 2305.8 229.236 2306.52 C 229.951 2307.21 230.309 2308.16 230.309 2309.36 C 230.309 2310.69 229.912 2311.89 229.12 2312.95 C 228.346 2314.02 227.283 2314.86 225.93 2315.48 C 224.596 2316.08 223.068 2316.38 221.348 2316.38 C 220.168 2316.38 219.347 2316.23 218.883 2315.94 C 218.438 2315.65 218.158 2315.11 218.042 2314.32 Z M 242.113 2316.38 C 239.774 2316.38 237.985 2315.55 236.748 2313.88 C 235.511 2312.22 234.892 2309.84 234.892 2306.75 C 234.892 2303.33 235.598 2300.67 237.009 2298.77 C 238.42 2296.86 240.402 2295.9 242.954 2295.9 C 245.313 2295.9 247.101 2296.73 248.319 2298.4 C 249.556 2300.04 250.175 2302.42 250.175 2305.53 C 250.175 2308.95 249.469 2311.62 248.058 2313.53 C 246.647 2315.43 244.665 2316.38 242.113 2316.38 Z M 242.403 2314.17 C 244.008 2314.17 245.216 2313.46 246.028 2312.03 C 246.859 2310.58 247.275 2308.45 247.275 2305.65 C 247.275 2303.19 246.879 2301.33 246.086 2300.05 C 245.293 2298.75 244.153 2298.11 242.664 2298.11 C 241.079 2298.11 239.87 2298.82 239.039 2300.25 C 238.208 2301.68 237.792 2303.81 237.792 2306.63 C 237.792 2309.09 238.188 2310.96 238.981 2312.26 C 239.793 2313.53 240.934 2314.17 242.403 2314.17 Z" fill="black"/><path d="M 218.042 2379.32 L 218.825 2379.32 C 221.512 2379.32 223.6 2378.93 225.089 2378.16 C 226.597 2377.37 227.351 2376.18 227.351 2374.59 C 227.351 2373.74 227.09 2373.06 226.568 2372.56 C 226.046 2372.04 225.292 2371.78 224.306 2371.78 C 223.784 2371.78 223.291 2371.81 222.827 2371.86 C 222.363 2371.92 221.85 2372.02 221.29 2372.15 L 220.71 2370.36 C 221.386 2370.2 221.947 2370.06 222.392 2369.92 C 222.856 2369.77 223.281 2369.6 223.668 2369.43 C 225.814 2368.44 226.887 2367.17 226.887 2365.6 C 226.887 2364.77 226.655 2364.13 226.191 2363.69 C 225.727 2363.24 225.069 2363.02 224.219 2363.02 C 223.155 2363.02 222.218 2363.31 221.406 2363.89 C 220.613 2364.47 219.956 2365.26 219.434 2366.27 L 218.854 2365.83 C 218.332 2365.47 218.071 2365 218.071 2364.44 C 218.071 2363.88 218.39 2363.33 219.028 2362.79 C 219.666 2362.25 220.487 2361.8 221.493 2361.45 C 222.517 2361.09 223.6 2360.9 224.741 2360.9 C 226.307 2360.9 227.515 2361.3 228.366 2362.09 C 229.236 2362.87 229.671 2363.97 229.671 2365.4 C 229.671 2366.31 229.39 2367.2 228.83 2368.07 C 228.269 2368.92 227.515 2369.58 226.568 2370.07 C 227.631 2370.32 228.52 2370.8 229.236 2371.52 C 229.951 2372.21 230.309 2373.16 230.309 2374.36 C 230.309 2375.69 229.912 2376.89 229.12 2377.95 C 228.346 2379.02 227.283 2379.86 225.93 2380.48 C 224.596 2381.08 223.068 2381.38 221.348 2381.38 C 220.168 2381.38 219.347 2381.23 218.883 2380.94 C 218.438 2380.65 218.158 2380.11 218.042 2379.32 Z M 247.623 2381 L 237.647 2381 L 237.763 2379.75 C 237.995 2379.66 238.459 2379.52 239.155 2379.35 C 239.87 2379.15 240.702 2378.96 241.649 2378.77 L 241.649 2364.82 L 238.894 2364.82 C 238.314 2364.82 237.937 2364.78 237.763 2364.7 C 237.589 2364.61 237.463 2364.43 237.386 2364.18 L 237.183 2363.25 C 238.266 2362.96 239.387 2362.61 240.547 2362.21 C 241.726 2361.8 242.693 2361.36 243.447 2360.87 L 244.723 2361.66 L 244.491 2363.57 L 244.491 2378.74 L 247.014 2379.06 C 247.594 2379.13 247.884 2379.4 247.884 2379.84 C 247.884 2379.99 247.855 2380.18 247.797 2380.39 C 247.758 2380.6 247.7 2380.81 247.623 2381 Z" fill="black"/></svg>
