<svg xmlns="http://www.w3.org/2000/svg" version="1.1" preserveAspectRatio="xMidYMid meet" viewBox="0 0 1860 2480" class="class-0"><path d="M 300.5 0 L 300.5 2480" stroke="#888888" stroke-width="4" fill="none"/><path d="M 0 133.5 L 1860 133.5" stroke="#888888" stroke-width="4" fill="none"/><path d="M 0 244.5 L 1860 244.5" stroke="#888888" stroke-width="4" fill="none"/><path d="M 0 355.5 L 1860 355.5" stroke="#888888" stroke-width="4" fill="none"/><path d="M 0 466.5 L 1860 466.5" stroke="#888888" stroke-width="4" fill="none"/><path d="M 0 577.5 L 1860 577.5" stroke="#888888" stroke-width="4" fill="none"/><path d="M 0 688.5 L 1860 688.5" stroke="#888888" stroke-width="4" fill="none"/><path d="M 0 799.5 L 1860 799.5" stroke="#888888" stroke-width="4" fill="none"/><path d="M 0 910.5 L 1860 910.5" stroke="#888888" stroke-width="4" fill="none"/><path d="M 0 1021.5 L 1860 1021.5" stroke="#888888" stroke-width="4" fill="none"/><path d="M 0 1132.5 L 1860 1132.5" stroke="#888888" stroke-width="4" fill="none"/><path d="M 0 1243.5 L 1860 1243.5" stroke="#888888" stroke-width="4" fill="none"/><path d="M 0 1354.5 L 1860 1354.5" stroke="#888888" stroke-width="4" fill="none"/><path d="M 0 1465.5 L 1860 1465.5" stroke="#888888" stroke-width="4" fill="none"/><path d="M 0 1576.5 L 1860 1576.5" stroke="#888888" stroke-width="4" fill="none"/><path d="M 0 1687.5 L 1860 1687.5" stroke="#888888" stroke-width="4" fill="none"/><path d="M 0 1798.5 L 1860 1798.5" stroke="#888888" stroke-width="4" fill="none"/><path d="M 0 1909.5 L 1860 1909.5" stroke="#888888" stroke-width="4" fill="none"/><path d="M 0 2020.5 L 1860 2020.5" stroke="#888888" stroke-width="4" fill="none"/><path d="M 0 2131.5 L 1860 2131.5" stroke="#888888" stroke-width="4" fill="none"/><path d="M 0 2242.5 L 1860 2242.5" stroke="#888888" stroke-width="4" fill="none"/><path d="M 0 2353.5 L 1860 2353.5" stroke="#888888" stroke-width="4" fill="none"/></svg>
