<svg xmlns="http://www.w3.org/2000/svg" version="1.1" preserveAspectRatio="xMidYMid meet" viewBox="0 0 1860 2480" class="class-0"><path d="M 207.978 78.0017 C 207.997 78.0007 208.009 78.0002 208.016 78 L 1751.57 78 L 1755.93 79.982 L 1758 85.3714 L 1758 1673.99 C 1758 1673.99 1758 1674 1758 1674.02 C 1758 1674.04 1758 1674.06 1757.99 1674.09 C 1757.99 1674.13 1757.98 1674.19 1757.98 1674.27 C 1757.95 1674.49 1757.89 1674.84 1757.77 1675.25 C 1757.53 1676.07 1757.05 1677.12 1756.09 1678.09 C 1755.12 1679.05 1754.07 1679.53 1753.25 1679.77 C 1752.84 1679.89 1752.49 1679.95 1752.27 1679.98 C 1752.15 1679.99 1752.07 1680 1752.02 1680 C 1752 1680 1751.99 1680 1751.98 1680 L 208.018 1680 L 208.015 1680 C 208.008 1680 207.996 1680 207.978 1680 C 207.932 1680 207.848 1679.99 207.734 1679.98 C 207.506 1679.95 207.162 1679.89 206.752 1679.77 C 205.931 1679.53 204.875 1679.05 203.914 1678.09 C 202.953 1677.12 202.473 1676.07 202.231 1675.25 C 202.111 1674.84 202.052 1674.49 202.024 1674.27 C 202.01 1674.15 202.004 1674.07 202.002 1674.02 C 202.001 1674 202 1673.99 202 1673.98 L 202 84.0158 C 202 84.0093 202.001 83.9967 202.002 83.9784 C 202.004 83.9315 202.01 83.8481 202.024 83.7343 C 202.052 83.5056 202.111 83.1621 202.231 82.7518 C 202.473 81.9306 202.953 80.875 203.914 79.9142 C 204.875 78.9534 205.931 78.4728 206.752 78.2312 C 207.162 78.1106 207.506 78.0522 207.734 78.0244 C 207.848 78.0105 207.932 78.0044 207.978 78.0017 Z" stroke="#888888" stroke-width="4" fill="none"/><path d="M 200 316.5 L 1760 316.5" stroke="#888888" stroke-width="4" fill="none"/><path d="M 202 420.5 L 1758 420.5" stroke="#888888" stroke-width="4" fill="none"/><path d="M 202 672.5 L 1758 672.5" stroke="#888888" stroke-width="4" fill="none"/><path d="M 202 924.5 L 1758 924.5" stroke="#888888" stroke-width="4" fill="none"/><path d="M 202 1176.5 L 1758 1176.5" stroke="#888888" stroke-width="4" fill="none"/><path d="M 202 1428.5 L 1758 1428.5" stroke="#888888" stroke-width="4" fill="none"/><path d="M 422.5 316 L 422.5 1678" stroke="#888888" stroke-width="4" fill="none"/><path d="M 644.5 316 L 644.5 1678" stroke="#888888" stroke-width="4" fill="none"/><path d="M 866.5 316 L 866.5 1678" stroke="#888888" stroke-width="4" fill="none"/><path d="M 1088.5 316 L 1088.5 1678" stroke="#888888" stroke-width="4" fill="none"/><path d="M 1310.5 316 L 1310.5 1678" stroke="#888888" stroke-width="4" fill="none"/><path d="M 1532.5 316 L 1532.5 1678" stroke="#888888" stroke-width="4" fill="none"/><path d="M 254 422 L 254 472 L 204 472" stroke="#888888" stroke-width="4" fill="none"/><path d="M 254 674 L 254 724 L 204 724" stroke="#888888" stroke-width="4" fill="none"/><path d="M 254 926 L 254 976 L 204 976" stroke="#888888" stroke-width="4" fill="none"/><path d="M 254 1178 L 254 1228 L 204 1228" stroke="#888888" stroke-width="4" fill="none"/><path d="M 254 1430 L 254 1480 L 204 1480" stroke="#888888" stroke-width="4" fill="none"/><path d="M 474 422 L 474 472 L 424 472" stroke="#888888" stroke-width="4" fill="none"/><path d="M 474 674 L 474 724 L 424 724" stroke="#888888" stroke-width="4" fill="none"/><path d="M 474 926 L 474 976 L 424 976" stroke="#888888" stroke-width="4" fill="none"/><path d="M 474 1178 L 474 1228 L 424 1228" stroke="#888888" stroke-width="4" fill="none"/><path d="M 474 1430 L 474 1480 L 424 1480" stroke="#888888" stroke-width="4" fill="none"/><path d="M 696 422 L 696 472 L 646 472" stroke="#888888" stroke-width="4" fill="none"/><path d="M 696 674 L 696 724 L 646 724" stroke="#888888" stroke-width="4" fill="none"/><path d="M 696 926 L 696 976 L 646 976" stroke="#888888" stroke-width="4" fill="none"/><path d="M 696 1178 L 696 1228 L 646 1228" stroke="#888888" stroke-width="4" fill="none"/><path d="M 696 1430 L 696 1480 L 646 1480" stroke="#888888" stroke-width="4" fill="none"/><path d="M 918 422 L 918 472 L 868 472" stroke="#888888" stroke-width="4" fill="none"/><path d="M 918 674 L 918 724 L 868 724" stroke="#888888" stroke-width="4" fill="none"/><path d="M 918 926 L 918 976 L 868 976" stroke="#888888" stroke-width="4" fill="none"/><path d="M 918 1178 L 918 1228 L 868 1228" stroke="#888888" stroke-width="4" fill="none"/><path d="M 918 1430 L 918 1480 L 868 1480" stroke="#888888" stroke-width="4" fill="none"/><path d="M 1140 422 L 1140 472 L 1090 472" stroke="#888888" stroke-width="4" fill="none"/><path d="M 1140 674 L 1140 724 L 1090 724" stroke="#888888" stroke-width="4" fill="none"/><path d="M 1140 926 L 1140 976 L 1090 976" stroke="#888888" stroke-width="4" fill="none"/><path d="M 1140 1178 L 1140 1228 L 1090 1228" stroke="#888888" stroke-width="4" fill="none"/><path d="M 1140 1430 L 1140 1480 L 1090 1480" stroke="#888888" stroke-width="4" fill="none"/><path d="M 1362 422 L 1362 472 L 1312 472" stroke="#888888" stroke-width="4" fill="none"/><path d="M 1362 674 L 1362 724 L 1312 724" stroke="#888888" stroke-width="4" fill="none"/><path d="M 1362 926 L 1362 976 L 1312 976" stroke="#888888" stroke-width="4" fill="none"/><path d="M 1362 1178 L 1362 1228 L 1312 1228" stroke="#888888" stroke-width="4" fill="none"/><path d="M 1362 1430 L 1362 1480 L 1312 1480" stroke="#888888" stroke-width="4" fill="none"/><path d="M 1584 422 L 1584 472 L 1534 472" stroke="#888888" stroke-width="4" fill="none"/><path d="M 1584 674 L 1584 724 L 1534 724" stroke="#888888" stroke-width="4" fill="none"/><path d="M 1584 926 L 1584 976 L 1534 976" stroke="#888888" stroke-width="4" fill="none"/><path d="M 1584 1178 L 1584 1228 L 1534 1228" stroke="#888888" stroke-width="4" fill="none"/><path d="M 1584 1430 L 1584 1480 L 1534 1480" stroke="#888888" stroke-width="4" fill="none"/><path d="M 200 1842.5 L 930 1842.5" stroke="#888888" stroke-width="4" fill="none"/><path d="M 200 1938.5 L 930 1938.5" stroke="#888888" stroke-width="4" fill="none"/><path d="M 200 2034.5 L 930 2034.5" stroke="#888888" stroke-width="4" fill="none"/><path d="M 200 2130.5 L 930 2130.5" stroke="#888888" stroke-width="4" fill="none"/><path d="M 200 2226.5 L 930 2226.5" stroke="#888888" stroke-width="4" fill="none"/><path d="M 200 2322.5 L 930 2322.5" stroke="#888888" stroke-width="4" fill="none"/><path d="M 1030 1842.5 L 1760 1842.5" stroke="#888888" stroke-width="4" fill="none"/><path d="M 1030 1938.5 L 1760 1938.5" stroke="#888888" stroke-width="4" fill="none"/><path d="M 1030 2034.5 L 1760 2034.5" stroke="#888888" stroke-width="4" fill="none"/><path d="M 1030 2130.5 L 1760 2130.5" stroke="#888888" stroke-width="4" fill="none"/><path d="M 1030 2226.5 L 1760 2226.5" stroke="#888888" stroke-width="4" fill="none"/><path d="M 1030 2322.5 L 1760 2322.5" stroke="#888888" stroke-width="4" fill="none"/></svg>
