<svg xmlns="http://www.w3.org/2000/svg" version="1.1" preserveAspectRatio="xMidYMid meet" viewBox="0 0 1860 2480" class="class-0"><path d="M 160 155.5 L 1700 155.5" stroke="#888888" stroke-width="4" fill="none"/><path d="M 160 188.5 L 1700 188.5" stroke="#888888" stroke-width="4" fill="none"/><path d="M 160 221.5 L 1700 221.5" stroke="#888888" stroke-width="4" fill="none"/><path d="M 160 254.5 L 1700 254.5" stroke="#888888" stroke-width="4" fill="none"/><path d="M 160 287.5 L 1700 287.5" stroke="#888888" stroke-width="4" fill="none"/><path d="M 160 446.5 L 1700 446.5" stroke="#888888" stroke-width="4" fill="none"/><path d="M 160 479.5 L 1700 479.5" stroke="#888888" stroke-width="4" fill="none"/><path d="M 160 512.5 L 1700 512.5" stroke="#888888" stroke-width="4" fill="none"/><path d="M 160 545.5 L 1700 545.5" stroke="#888888" stroke-width="4" fill="none"/><path d="M 160 578.5 L 1700 578.5" stroke="#888888" stroke-width="4" fill="none"/><path d="M 160 737.5 L 1700 737.5" stroke="#888888" stroke-width="4" fill="none"/><path d="M 160 770.5 L 1700 770.5" stroke="#888888" stroke-width="4" fill="none"/><path d="M 160 803.5 L 1700 803.5" stroke="#888888" stroke-width="4" fill="none"/><path d="M 160 836.5 L 1700 836.5" stroke="#888888" stroke-width="4" fill="none"/><path d="M 160 869.5 L 1700 869.5" stroke="#888888" stroke-width="4" fill="none"/><path d="M 160 1028.5 L 1700 1028.5" stroke="#888888" stroke-width="4" fill="none"/><path d="M 160 1061.5 L 1700 1061.5" stroke="#888888" stroke-width="4" fill="none"/><path d="M 160 1094.5 L 1700 1094.5" stroke="#888888" stroke-width="4" fill="none"/><path d="M 160 1127.5 L 1700 1127.5" stroke="#888888" stroke-width="4" fill="none"/><path d="M 160 1160.5 L 1700 1160.5" stroke="#888888" stroke-width="4" fill="none"/><path d="M 160 1319.5 L 1700 1319.5" stroke="#888888" stroke-width="4" fill="none"/><path d="M 160 1352.5 L 1700 1352.5" stroke="#888888" stroke-width="4" fill="none"/><path d="M 160 1385.5 L 1700 1385.5" stroke="#888888" stroke-width="4" fill="none"/><path d="M 160 1418.5 L 1700 1418.5" stroke="#888888" stroke-width="4" fill="none"/><path d="M 160 1451.5 L 1700 1451.5" stroke="#888888" stroke-width="4" fill="none"/><path d="M 160 1610.5 L 1700 1610.5" stroke="#888888" stroke-width="4" fill="none"/><path d="M 160 1643.5 L 1700 1643.5" stroke="#888888" stroke-width="4" fill="none"/><path d="M 160 1676.5 L 1700 1676.5" stroke="#888888" stroke-width="4" fill="none"/><path d="M 160 1709.5 L 1700 1709.5" stroke="#888888" stroke-width="4" fill="none"/><path d="M 160 1742.5 L 1700 1742.5" stroke="#888888" stroke-width="4" fill="none"/><path d="M 160 1901.5 L 1700 1901.5" stroke="#888888" stroke-width="4" fill="none"/><path d="M 160 1934.5 L 1700 1934.5" stroke="#888888" stroke-width="4" fill="none"/><path d="M 160 1967.5 L 1700 1967.5" stroke="#888888" stroke-width="4" fill="none"/><path d="M 160 2000.5 L 1700 2000.5" stroke="#888888" stroke-width="4" fill="none"/><path d="M 160 2033.5 L 1700 2033.5" stroke="#888888" stroke-width="4" fill="none"/><path d="M 160 2192.5 L 1700 2192.5" stroke="#888888" stroke-width="4" fill="none"/><path d="M 160 2225.5 L 1700 2225.5" stroke="#888888" stroke-width="4" fill="none"/><path d="M 160 2258.5 L 1700 2258.5" stroke="#888888" stroke-width="4" fill="none"/><path d="M 160 2291.5 L 1700 2291.5" stroke="#888888" stroke-width="4" fill="none"/><path d="M 160 2324.5 L 1700 2324.5" stroke="#888888" stroke-width="4" fill="none"/></svg>
