<svg xmlns="http://www.w3.org/2000/svg" version="1.1" preserveAspectRatio="xMidYMid meet" viewBox="0 0 1860 2480" class="class-0"><path d="M 0 78 L 1860 78 Z" stroke="#888888" stroke-width="4" fill="none"/><path d="M 0 153 L 1860 153 Z" stroke="#888888" stroke-width="4" fill="none"/><path d="M 0 228 L 1860 228 Z" stroke="#888888" stroke-width="4" fill="none"/><path d="M 0 303 L 1860 303 Z" stroke="#888888" stroke-width="4" fill="none"/><path d="M 0 378 L 1860 378 Z" stroke="#888888" stroke-width="4" fill="none"/><path d="M 0 453 L 1860 453 Z" stroke="#888888" stroke-width="4" fill="none"/><path d="M 0 528 L 1860 528 Z" stroke="#888888" stroke-width="4" fill="none"/><path d="M 0 603 L 1860 603 Z" stroke="#888888" stroke-width="4" fill="none"/><path d="M 0 678 L 1860 678 Z" stroke="#888888" stroke-width="4" fill="none"/><path d="M 0 753 L 1860 753 Z" stroke="#888888" stroke-width="4" fill="none"/><path d="M 0 828 L 1860 828 Z" stroke="#888888" stroke-width="4" fill="none"/><path d="M 0 903 L 1860 903 Z" stroke="#888888" stroke-width="4" fill="none"/><path d="M 0 978 L 1860 978 Z" stroke="#888888" stroke-width="4" fill="none"/><path d="M 0 1053 L 1860 1053 Z" stroke="#888888" stroke-width="4" fill="none"/><path d="M 0 1128 L 1860 1128 Z" stroke="#888888" stroke-width="4" fill="none"/><path d="M 0 1203 L 1860 1203 Z" stroke="#888888" stroke-width="4" fill="none"/><path d="M 0 1278 L 1860 1278 Z" stroke="#888888" stroke-width="4" fill="none"/><path d="M 0 1353 L 1860 1353 Z" stroke="#888888" stroke-width="4" fill="none"/><path d="M 0 1428 L 1860 1428 Z" stroke="#888888" stroke-width="4" fill="none"/><path d="M 0 1503 L 1860 1503 Z" stroke="#888888" stroke-width="4" fill="none"/><path d="M 0 1578 L 1860 1578 Z" stroke="#888888" stroke-width="4" fill="none"/><path d="M 0 1653 L 1860 1653 Z" stroke="#888888" stroke-width="4" fill="none"/><path d="M 0 1728 L 1860 1728 Z" stroke="#888888" stroke-width="4" fill="none"/><path d="M 0 1803 L 1860 1803 Z" stroke="#888888" stroke-width="4" fill="none"/><path d="M 0 1878 L 1860 1878 Z" stroke="#888888" stroke-width="4" fill="none"/><path d="M 0 1953 L 1860 1953 Z" stroke="#888888" stroke-width="4" fill="none"/><path d="M 0 2028 L 1860 2028 Z" stroke="#888888" stroke-width="4" fill="none"/><path d="M 0 2103 L 1860 2103 Z" stroke="#888888" stroke-width="4" fill="none"/><path d="M 0 2178 L 1860 2178 Z" stroke="#888888" stroke-width="4" fill="none"/><path d="M 0 2253 L 1860 2253 Z" stroke="#888888" stroke-width="4" fill="none"/><path d="M 0 2328 L 1860 2328 Z" stroke="#888888" stroke-width="4" fill="none"/><path d="M 0 2403 L 1860 2403 Z" stroke="#888888" stroke-width="4" fill="none"/></svg>
