<svg xmlns="http://www.w3.org/2000/svg" version="1.1" preserveAspectRatio="xMidYMid meet" viewBox="0 0 1860 2480" class="class-0"><path d="M 153.914 103.914 C 154.875 102.953 155.931 102.473 156.752 102.231 C 157.162 102.111 157.506 102.052 157.734 102.024 C 157.848 102.01 157.932 102.004 157.978 102.002 C 157.997 102.001 158.009 102 158.016 102 L 1701.57 102 L 1705.93 103.982 L 1708 109.371 L 1708 216.98 L 1708 216.981 L 1708 216.985 C 1708 216.992 1708 217.004 1708 217.022 C 1708 217.044 1707.99 217.074 1707.99 217.112 C 1707.99 217.154 1707.98 217.206 1707.98 217.266 C 1707.95 217.494 1707.89 217.838 1707.77 218.248 C 1707.53 219.069 1707.05 220.125 1706.09 221.086 C 1705.12 222.047 1704.07 222.527 1703.25 222.769 C 1702.84 222.889 1702.49 222.948 1702.27 222.976 C 1702.2 222.984 1702.15 222.989 1702.1 222.993 C 1702.07 222.995 1702.04 222.997 1702.02 222.998 C 1702 222.999 1701.99 223 1701.98 223 L 158.016 223 C 158.009 223 157.997 222.999 157.978 222.998 C 157.932 222.996 157.848 222.99 157.734 222.976 C 157.506 222.948 157.162 222.889 156.752 222.769 C 155.931 222.527 154.875 222.047 153.914 221.086 C 152.953 220.125 152.473 219.069 152.231 218.248 C 152.111 217.838 152.052 217.494 152.024 217.266 C 152.01 217.152 152.004 217.068 152.002 217.022 C 152.001 217.003 152 216.991 152 216.984 L 152 108.016 C 152 108.009 152.001 107.997 152.002 107.978 C 152.004 107.932 152.01 107.848 152.024 107.734 C 152.052 107.506 152.111 107.162 152.231 106.752 C 152.473 105.931 152.953 104.875 153.914 103.914 Z" stroke="#888888" stroke-width="4" fill="none"/><path d="M 868 308.002 L 868 308.008 L 868 771.984 C 868 771.991 867.999 772.003 867.998 772.022 C 867.996 772.068 867.99 772.152 867.976 772.266 C 867.948 772.494 867.889 772.838 867.769 773.248 C 867.527 774.069 867.047 775.125 866.086 776.086 C 865.125 777.047 864.069 777.527 863.248 777.769 C 862.838 777.889 862.494 777.948 862.266 777.976 C 862.152 777.99 862.068 777.996 862.022 777.998 C 862.003 777.999 861.99 778 861.984 778 L 158.016 778 C 158.01 778 157.997 777.999 157.978 777.998 C 157.932 777.996 157.848 777.99 157.734 777.976 C 157.506 777.948 157.162 777.889 156.752 777.769 C 155.931 777.527 154.875 777.047 153.914 776.086 C 152.953 775.125 152.473 774.069 152.231 773.248 C 152.111 772.838 152.052 772.494 152.024 772.266 C 152.01 772.152 152.004 772.068 152.002 772.022 C 152.001 772.003 152 771.991 152 771.984 L 152 307.016 C 152 307.009 152.001 306.997 152.002 306.978 C 152.004 306.932 152.01 306.848 152.024 306.734 C 152.052 306.506 152.111 306.162 152.231 305.752 C 152.473 304.931 152.953 303.875 153.914 302.914 C 154.875 301.953 155.931 301.473 156.752 301.231 C 157.162 301.111 157.506 301.052 157.734 301.024 C 157.848 301.01 157.932 301.004 157.978 301.002 C 157.997 301.001 158.009 301 158.016 301 L 861.984 301 C 861.991 301 862.003 301.001 862.022 301.002 C 862.068 301.004 862.152 301.01 862.266 301.024 C 862.494 301.052 862.838 301.111 863.248 301.231 C 864.069 301.473 865.125 301.953 866.086 302.914 C 866.971 303.799 867.473 305.023 867.742 306.151 C 867.872 306.698 867.938 307.182 867.97 307.524 C 867.986 307.694 867.993 307.825 867.997 307.909 C 867.999 307.95 868 307.98 868 307.995 L 868 308.002 Z M 868 308.002 L 870 308 C 868 308 868 308.001 868 308.002 Z" stroke="#888888" stroke-width="4" fill="none"/><path d="M 973 683.5 L 1705 683.5" stroke="#888888" stroke-width="4" fill="none"/><path d="M 976 491.5 L 1708 491.5" stroke="#888888" stroke-width="4" fill="none"/><path d="M 976 395.5 L 1708 395.5" stroke="#888888" stroke-width="4" fill="none"/><path d="M 973 779.5 L 1705 779.5" stroke="#888888" stroke-width="4" fill="none"/><path d="M 976 587.5 L 1708 587.5" stroke="#888888" stroke-width="4" fill="none"/><path d="M 868 841.002 L 868 841.008 L 868 1304.98 C 868 1304.99 867.999 1305 867.998 1305.02 C 867.996 1305.07 867.99 1305.15 867.976 1305.27 C 867.948 1305.49 867.889 1305.84 867.769 1306.25 C 867.527 1307.07 867.047 1308.12 866.086 1309.09 C 865.125 1310.05 864.069 1310.53 863.248 1310.77 C 862.838 1310.89 862.494 1310.95 862.266 1310.98 C 862.152 1310.99 862.068 1311 862.022 1311 C 862.003 1311 861.99 1311 861.984 1311 L 158.016 1311 C 158.01 1311 157.997 1311 157.978 1311 C 157.932 1311 157.848 1310.99 157.734 1310.98 C 157.506 1310.95 157.162 1310.89 156.752 1310.77 C 155.931 1310.53 154.875 1310.05 153.914 1309.09 C 152.953 1308.12 152.473 1307.07 152.231 1306.25 C 152.111 1305.84 152.052 1305.49 152.024 1305.27 C 152.01 1305.15 152.004 1305.07 152.002 1305.02 C 152.001 1305 152 1304.99 152 1304.98 L 152 840.016 C 152 840.009 152.001 839.997 152.002 839.978 C 152.004 839.932 152.01 839.848 152.024 839.734 C 152.052 839.506 152.111 839.162 152.231 838.752 C 152.473 837.931 152.953 836.875 153.914 835.914 C 154.875 834.953 155.931 834.473 156.752 834.231 C 157.162 834.111 157.506 834.052 157.734 834.024 C 157.848 834.01 157.932 834.004 157.978 834.002 C 157.997 834.001 158.009 834 158.016 834 L 861.984 834 C 861.991 834 862.003 834.001 862.022 834.002 C 862.068 834.004 862.152 834.01 862.266 834.024 C 862.494 834.052 862.838 834.111 863.248 834.231 C 864.069 834.473 865.125 834.953 866.086 835.914 C 866.971 836.799 867.473 838.023 867.742 839.151 C 867.872 839.698 867.938 840.182 867.97 840.524 C 867.986 840.694 867.993 840.825 867.997 840.909 C 867.999 840.95 868 840.98 868 840.995 L 868 841.002 Z M 868 841.002 L 870 841 C 868 841 868 841.001 868 841.002 Z" stroke="#888888" stroke-width="4" fill="none"/><path d="M 973 1216.5 L 1705 1216.5" stroke="#888888" stroke-width="4" fill="none"/><path d="M 976 1024.5 L 1708 1024.5" stroke="#888888" stroke-width="4" fill="none"/><path d="M 976 928.5 L 1708 928.5" stroke="#888888" stroke-width="4" fill="none"/><path d="M 973 1312.5 L 1705 1312.5" stroke="#888888" stroke-width="4" fill="none"/><path d="M 976 1120.5 L 1708 1120.5" stroke="#888888" stroke-width="4" fill="none"/><path d="M 868 1374 L 868 1374.01 L 868 1837.98 C 868 1837.99 867.999 1838 867.998 1838.02 C 867.996 1838.07 867.99 1838.15 867.976 1838.27 C 867.948 1838.49 867.889 1838.84 867.769 1839.25 C 867.527 1840.07 867.047 1841.12 866.086 1842.09 C 865.125 1843.05 864.069 1843.53 863.248 1843.77 C 862.838 1843.89 862.494 1843.95 862.266 1843.98 C 862.152 1843.99 862.068 1844 862.022 1844 C 862.003 1844 861.99 1844 861.984 1844 L 158.016 1844 C 158.01 1844 157.997 1844 157.978 1844 C 157.932 1844 157.848 1843.99 157.734 1843.98 C 157.506 1843.95 157.162 1843.89 156.752 1843.77 C 155.931 1843.53 154.875 1843.05 153.914 1842.09 C 152.953 1841.12 152.473 1840.07 152.231 1839.25 C 152.111 1838.84 152.052 1838.49 152.024 1838.27 C 152.01 1838.15 152.004 1838.07 152.002 1838.02 C 152.001 1838 152 1837.99 152 1837.98 L 152 1373.02 C 152 1373.01 152.001 1373 152.002 1372.98 C 152.004 1372.93 152.01 1372.85 152.024 1372.73 C 152.052 1372.51 152.111 1372.16 152.231 1371.75 C 152.473 1370.93 152.953 1369.88 153.914 1368.91 C 154.875 1367.95 155.931 1367.47 156.752 1367.23 C 157.162 1367.11 157.506 1367.05 157.734 1367.02 C 157.848 1367.01 157.932 1367 157.978 1367 C 157.997 1367 158.009 1367 158.016 1367 L 861.984 1367 C 861.991 1367 862.003 1367 862.022 1367 C 862.068 1367 862.152 1367.01 862.266 1367.02 C 862.494 1367.05 862.838 1367.11 863.248 1367.23 C 864.069 1367.47 865.125 1367.95 866.086 1368.91 C 866.971 1369.8 867.473 1371.02 867.742 1372.15 C 867.872 1372.7 867.938 1373.18 867.97 1373.52 C 867.986 1373.69 867.993 1373.83 867.997 1373.91 C 867.999 1373.95 868 1373.98 868 1374 L 868 1374 Z M 868 1374 L 870 1374 C 868 1374 868 1374 868 1374 Z" stroke="#888888" stroke-width="4" fill="none"/><path d="M 973 1749.5 L 1705 1749.5" stroke="#888888" stroke-width="4" fill="none"/><path d="M 976 1557.5 L 1708 1557.5" stroke="#888888" stroke-width="4" fill="none"/><path d="M 976 1461.5 L 1708 1461.5" stroke="#888888" stroke-width="4" fill="none"/><path d="M 973 1845.5 L 1705 1845.5" stroke="#888888" stroke-width="4" fill="none"/><path d="M 976 1653.5 L 1708 1653.5" stroke="#888888" stroke-width="4" fill="none"/><path d="M 868 1907 L 868 1907.01 L 868 2370.98 C 868 2370.99 867.999 2371 867.998 2371.02 C 867.996 2371.07 867.99 2371.15 867.976 2371.27 C 867.948 2371.49 867.889 2371.84 867.769 2372.25 C 867.527 2373.07 867.047 2374.12 866.086 2375.09 C 865.125 2376.05 864.069 2376.53 863.248 2376.77 C 862.838 2376.89 862.494 2376.95 862.266 2376.98 C 862.152 2376.99 862.068 2377 862.022 2377 C 862.003 2377 861.99 2377 861.984 2377 L 158.016 2377 C 158.01 2377 157.997 2377 157.978 2377 C 157.932 2377 157.848 2376.99 157.734 2376.98 C 157.506 2376.95 157.162 2376.89 156.752 2376.77 C 155.931 2376.53 154.875 2376.05 153.914 2375.09 C 152.953 2374.12 152.473 2373.07 152.231 2372.25 C 152.111 2371.84 152.052 2371.49 152.024 2371.27 C 152.01 2371.15 152.004 2371.07 152.002 2371.02 C 152.001 2371 152 2370.99 152 2370.98 L 152 1906.02 C 152 1906.01 152.001 1906 152.002 1905.98 C 152.004 1905.93 152.01 1905.85 152.024 1905.73 C 152.052 1905.51 152.111 1905.16 152.231 1904.75 C 152.473 1903.93 152.953 1902.88 153.914 1901.91 C 154.875 1900.95 155.931 1900.47 156.752 1900.23 C 157.162 1900.11 157.506 1900.05 157.734 1900.02 C 157.848 1900.01 157.932 1900 157.978 1900 C 157.997 1900 158.009 1900 158.016 1900 L 861.984 1900 C 861.991 1900 862.003 1900 862.022 1900 C 862.068 1900 862.152 1900.01 862.266 1900.02 C 862.494 1900.05 862.838 1900.11 863.248 1900.23 C 864.069 1900.47 865.125 1900.95 866.086 1901.91 C 866.971 1902.8 867.473 1904.02 867.742 1905.15 C 867.872 1905.7 867.938 1906.18 867.97 1906.52 C 867.986 1906.69 867.993 1906.83 867.997 1906.91 C 867.999 1906.95 868 1906.98 868 1907 L 868 1907 Z M 868 1907 L 870 1907 C 868 1907 868 1907 868 1907 Z" stroke="#888888" stroke-width="4" fill="none"/><path d="M 973 2282.5 L 1705 2282.5" stroke="#888888" stroke-width="4" fill="none"/><path d="M 976 2090.5 L 1708 2090.5" stroke="#888888" stroke-width="4" fill="none"/><path d="M 976 1994.5 L 1708 1994.5" stroke="#888888" stroke-width="4" fill="none"/><path d="M 973 2378.5 L 1705 2378.5" stroke="#888888" stroke-width="4" fill="none"/><path d="M 976 2186.5 L 1708 2186.5" stroke="#888888" stroke-width="4" fill="none"/></svg>
