<svg xmlns="http://www.w3.org/2000/svg" version="1.1" preserveAspectRatio="xMidYMid meet" viewBox="0 0 1860 2480" class="class-0"><path d="M 97.5 0 L 97.5 2480" stroke="#888888" stroke-width="4" fill="none"/><path d="M 208.5 0 L 208.5 2480" stroke="#888888" stroke-width="4" fill="none"/><path d="M 319.5 0 L 319.5 2480" stroke="#888888" stroke-width="4" fill="none"/><path d="M 430.5 0 L 430.5 2480" stroke="#888888" stroke-width="4" fill="none"/><path d="M 541.5 0 L 541.5 2480" stroke="#888888" stroke-width="4" fill="none"/><path d="M 652.5 0 L 652.5 2480" stroke="#888888" stroke-width="4" fill="none"/><path d="M 763.5 0 L 763.5 2480" stroke="#888888" stroke-width="4" fill="none"/><path d="M 874.5 0 L 874.5 2480" stroke="#888888" stroke-width="4" fill="none"/><path d="M 985.5 0 L 985.5 2480" stroke="#888888" stroke-width="4" fill="none"/><path d="M 1096.5 0 L 1096.5 2480" stroke="#888888" stroke-width="4" fill="none"/><path d="M 1207.5 0 L 1207.5 2480" stroke="#888888" stroke-width="4" fill="none"/><path d="M 1318.5 0 L 1318.5 2480" stroke="#888888" stroke-width="4" fill="none"/><path d="M 1429.5 0 L 1429.5 2480" stroke="#888888" stroke-width="4" fill="none"/><path d="M 1540.5 0 L 1540.5 2480" stroke="#888888" stroke-width="4" fill="none"/><path d="M 1651.5 0 L 1651.5 2480" stroke="#888888" stroke-width="4" fill="none"/><path d="M 1762.5 0 L 1762.5 2480" stroke="#888888" stroke-width="4" fill="none"/></svg>
