<svg xmlns="http://www.w3.org/2000/svg" version="1.1" preserveAspectRatio="xMidYMid meet" viewBox="0 0 1860 2480" class="class-0"><path d="M 0 153.5 L 1860 153.5" stroke="#888888" stroke-width="4" fill="none"/><path d="M 0 299.5 L 1860 299.5" stroke="#888888" stroke-width="4" fill="none"/><path d="M 0 445.5 L 1860 445.5" stroke="#888888" stroke-width="4" fill="none"/><path d="M 0 591.5 L 1860 591.5" stroke="#888888" stroke-width="4" fill="none"/><path d="M 0 737.5 L 1860 737.5" stroke="#888888" stroke-width="4" fill="none"/><path d="M 0 883.5 L 1860 883.5" stroke="#888888" stroke-width="4" fill="none"/><path d="M 0 1029.5 L 1860 1029.5" stroke="#888888" stroke-width="4" fill="none"/><path d="M 0 1175.5 L 1860 1175.5" stroke="#888888" stroke-width="4" fill="none"/><path d="M 0 1321.5 L 1860 1321.5" stroke="#888888" stroke-width="4" fill="none"/><path d="M 0 1467.5 L 1860 1467.5" stroke="#888888" stroke-width="4" fill="none"/><path d="M 0 1613.5 L 1860 1613.5" stroke="#888888" stroke-width="4" fill="none"/><path d="M 0 1759.5 L 1860 1759.5" stroke="#888888" stroke-width="4" fill="none"/><path d="M 0 1905.5 L 1860 1905.5" stroke="#888888" stroke-width="4" fill="none"/><path d="M 0 2051.5 L 1860 2051.5" stroke="#888888" stroke-width="4" fill="none"/><path d="M 0 2197.5 L 1860 2197.5" stroke="#888888" stroke-width="4" fill="none"/><path d="M 0 2343.5 L 1860 2343.5" stroke="#888888" stroke-width="4" fill="none"/></svg>
