<svg width="24" height="24" viewBox="0 0 24 24" fill="none" xmlns="http://www.w3.org/2000/svg">
<rect width="24" height="24" fill="black"/>
<g clip-path="url(#clip0_1_46)">
<path fill-rule="evenodd" clip-rule="evenodd" d="M18.5583 3.81667H14.475C14.0833 2.725 13.0167 2 11.75 2C10.4833 2 9.41667 2.725 9.025 3.81667H4.94167C3.875 3.81667 3 4.63333 3 5.63333V20.175C3 21.175 3.875 21.9917 4.94167 21.9917H18.55C19.6167 21.9917 20.4917 21.175 20.4917 20.175V5.63333C20.4917 4.63333 19.6167 3.81667 18.55 3.81667H18.5583ZM11.75 3.81667C12.3333 3.81667 12.725 4.18333 12.725 4.725C12.725 5.26667 12.3333 5.63333 11.75 5.63333C11.1667 5.63333 10.775 5.26667 10.775 4.725C10.775 4.18333 11.1667 3.81667 11.75 3.81667ZM18.5583 20.1833H4.94167V5.63333H6.88333V8.35833H16.6083V5.63333H18.55V20.175L18.5583 20.1833Z" fill="white"/>
</g>
<defs>
<clipPath id="clip0_1_46">
<rect width="17.5" height="20" fill="white" transform="translate(3 2)"/>
</clipPath>
</defs>
</svg>
