<svg width="56" height="56" viewBox="0 0 56 56" fill="none" xmlns="http://www.w3.org/2000/svg">
<mask id="path-1-inside-1_1_2231" fill="white">
<path d="M0 0H56V56H0V0Z"/>
</mask>
<path d="M0 0H56V56H0V0Z" fill="black"/>
<path fill-rule="evenodd" clip-rule="evenodd" d="M36.6667 18.1818H31.7667C31.3 16.8727 30.0167 16 28.5 16C26.9833 16 25.7 16.8727 25.2333 18.1818H20.3333C19.05 18.1818 18 19.1636 18 20.3636V37.8182C18 39.0182 19.05 40 20.3333 40H36.6667C37.95 40 39 39.0182 39 37.8182V20.3636C39 19.1636 37.95 18.1818 36.6667 18.1818ZM28.5 18.1818C29.2 18.1818 29.6667 18.6182 29.6667 19.2727C29.6667 19.9273 29.2 20.3636 28.5 20.3636C27.8 20.3636 27.3333 19.9273 27.3333 19.2727C27.3333 18.6182 27.8 18.1818 28.5 18.1818ZM36.6667 37.8182H20.3333V20.3636H22.6667V23.6364H34.3333V20.3636H36.6667V37.8182Z" fill="white"/>
<path d="M54 0V56H58V0H54ZM2 56V0H-2V56H2Z" fill="black" mask="url(#path-1-inside-1_1_2231)"/>
</svg>
