<?xml version="1.0" encoding="UTF-8"?>
<svg id="Layer_1" data-name="Layer 1" xmlns="http://www.w3.org/2000/svg" viewBox="0 0 56 56">
  <defs>
    <style>
      .cls-1 {
        fill: #fff;
      }
    </style>
  </defs>
  <g id="Fountain_pen_T1_inverted" data-name="Fountain pen T1 inverted">
    <rect width="56" height="56"/>
    <path class="cls-1" d="m44.77,37.87c.1.88-2.56,1.81-2.6,1.5-.13-1.07-.25-2.15-.38-3.22-.08-.72,0-2.13-.58-2.71-1.01-1.01-4.01,1.59-4.9,2.2-2.82,1.93-5.75,3.9-9.19,4.49-.14.03-.62.13-.55-.18,1.37-6.43,6.87-10.96,8.57-17.21-7.45,4.86-14.8,9.88-22.05,15.04-.1.08-2.1,1-1.87.44,3.76-8.93,12.43-15,15.38-24.31-4.23,1.99-8.37,4.14-12.43,6.45-.19.11-1.31.75-1.53.36-.22-.38.84-1,1.08-1.14,4.73-2.69,9.57-5.19,14.51-7.48.05-.02,1.33-.55,1.19-.05-2.65,9.25-10.89,15.2-14.99,23.65,7.13-5.05,14.36-9.95,21.69-14.7.12-.08,2.01-1.09,1.88-.44-1.37,6.66-7.18,11.26-8.73,17.83,3.56-.87,6.35-3.62,9.48-5.4,1.14-.65,3.48-2.22,4.8-1.28.74.52.69,1.68.79,2.48.14,1.22.28,2.45.43,3.68Z"/>
  </g>
</svg>