<?xml version="1.0" encoding="UTF-8"?>
<svg id="Layer_1" data-name="Layer 1" xmlns="http://www.w3.org/2000/svg" viewBox="0 0 56 56">
  <defs>
    <style>
      .cls-1 {
        fill: #fff;
      }
    </style>
  </defs>
  <g id="Marker_T2" data-name="Marker T2">
    <rect class="cls-1" width="56" height="56"/>
    <path d="m45.42,37.5c.07.61-1.32,1.28-1.73,1.51-.15.09-2.13,1.11-2.17.74-.13-1.08-.25-2.15-.38-3.23-.09-.79,0-2.06-.58-2.71-.92-1.03-3.44,1.29-4.23,1.84-3.05,2.09-6.31,4.2-10.02,4.85-.18.03-.42.06-.37-.19,1.37-6.39,6.82-10.91,8.55-17.13-7.02,4.59-13.95,9.33-20.78,14.19-.68.49-1.4.93-2.18,1.22-.07.03-1.12.42-.94,0,3.77-8.96,12.46-15.02,15.41-24.38-4.02,1.89-7.97,3.95-11.83,6.15-.16.09-1.94,1.15-2.18.74-.24-.42,1.47-1.37,1.73-1.52,4.95-2.81,10.01-5.41,15.17-7.81.08-.03,1.29-.56,1.15-.08-2.62,9.17-10.78,15.12-14.9,23.48,6.85-4.82,13.79-9.51,20.81-14.07.2-.13,2.8-1.53,2.67-.9-1.37,6.67-7.2,11.27-8.73,17.87,3.37-.77,6.07-3.5,9.02-5.17,1.16-.66,3.93-2.52,5.29-1.56.74.51.7,1.69.79,2.47.14,1.23.28,2.46.43,3.69Z"/>
  </g>
</svg>