<?xml version="1.0" encoding="UTF-8"?>
<svg id="Layer_1" data-name="Layer 1" xmlns="http://www.w3.org/2000/svg" viewBox="0 0 56 56">
  <defs>
    <style>
      .cls-1 {
        fill: #fff;
      }
    </style>
  </defs>
  <g id="Marker_T5" data-name="Marker T5">
    <rect class="cls-1" width="56" height="56"/>
    <path d="m49.96,34.87c.12,1-5.54,3.63-6.3,4.08-.52.3-6.69,3.4-6.69,3.42-.17-1.45-.63-3.14-.54-4.61.1-1.55-.94-1.38-.94-1.51-4.28,2.61-8.88,5.67-13.82,6.78-.1.02-.19.03-.28.05,1.55-6.13,6.28-10.66,8.32-16.54-3.85,2.62-7.68,5.29-11.48,7.99-2.29,1.63-4.79,3.02-7.24,4.39-.41.22-4.47,1.86-4.92,2.39,4.02-9,12.43-15.24,15.49-24.74-3.11,1.47-6.17,3.02-9.16,4.71-.76.43-4.52,2.67-4.77,2.22-.18-.32,7.12-4.42,7.86-4.84,5.93-3.35,11.96-6.5,18.13-9.39.3-.19.63-.31.98-.35-2.74,8.68-9.94,14.64-14.29,22.41,3.86-2.62,7.74-5.19,11.65-7.73,2.29-1.49,4.66-2.85,7.05-4.16.21-.12,4.09-1.7,4.17-2.01-1.14,4.61-4,8.15-6.33,12.18-.49.84-.95,1.68-1.34,2.56-.22.43-.39.88-.54,1.34-.39.59-.3,1.13.26,1.61,3.41-2.23,7.05-4.58,10.77-5.92,4.21-1.52,3.56,2.24,3.96,5.67Z"/>
  </g>
</svg>