<?xml version="1.0" encoding="UTF-8"?>
<svg id="Layer_1" data-name="Layer 1" xmlns="http://www.w3.org/2000/svg" viewBox="0 0 56 56">
  <defs>
    <style>
      .cls-1 {
        fill: #fff;
      }
    </style>
  </defs>
  <g id="Marker_T4" data-name="Marker T4">
    <rect class="cls-1" width="56" height="56"/>
    <path d="m48.23,35.87c.25,2.12-9.52,4.85-9.52,5.49,0-.29-.08-.6-.12-.89s-.09-.59-.14-.89c-.1-.63-.17-1.26-.22-1.89-.03-.39-.05-.79-.12-1.18-.06-.3-.05-.51-.05-.55,0-.14-.04-.53-.52-.65-.32-.08-.45.07-.57.15-.77.5-1.55,1-2.33,1.48-3.53,2.17-7.22,4.25-11.28,5.17-.08-.01-.16-.02-.24-.03,1.57-6.2,6.36-10.75,8.37-16.7-5.18,3.46-10.31,7-15.4,10.62-1.8,1.28-3.74,2.44-5.73,3.4-.08.05-2.8,1.41-2.5.73,3.97-8.88,12.28-15.05,15.36-24.36-3.05,1.47-6.05,3.02-9,4.68-.43.24-4.34,2.82-5.04,2.27-.26-.2,4.14-3.02,4.49-3.22,5.75-3.25,11.59-6.29,17.6-9.1.18-.06,1.65-.64,1.6-.48-2.78,8.79-10.06,14.81-14.42,22.68,5.15-3.56,10.35-7.03,15.59-10.44.76-.49,7.32-3.38,7.41-3.73-.98,3.95-3.13,7.13-5.28,10.54-1.28,2.02-2.12,4.07-3.17,6.21-.77,1.57-2.25,2.47-.11,1.41.84-.42,1.63-1.11,2.42-1.62,2.81-1.8,6.29-4.39,9.6-5.13,3.6-.81,3,3.3,3.32,6.03Z"/>
  </g>
</svg>