<svg width="56" height="56" viewBox="0 0 56 56" fill="none" xmlns="http://www.w3.org/2000/svg">
<rect width="56" height="56" fill="white"/>
<path d="M33.1166 37.2317C31.2441 36.4039 29.3987 35.5882 27.0918 35.4061C26.1535 32.2192 25.4099 30.3347 23.8428 27.9271L30.6463 23.9991C31.9479 26.5599 33.2089 28.146 35.5061 30.5484C34.5047 32.6439 34.2871 34.6554 34.0662 36.697C34.0395 36.9441 34.0127 37.1916 33.9845 37.4398L33.8138 37.5383C33.5803 37.4367 33.3482 37.3341 33.1166 37.2317Z" fill="white" stroke="black" stroke-width="2"/>
<path fill-rule="evenodd" clip-rule="evenodd" d="M33.8385 37.3843C33.4798 37.5914 32.9651 37.3715 32.689 36.8933L30.189 32.5631C29.9129 32.0848 29.9798 31.5292 30.3385 31.3221C30.6972 31.115 31.2119 31.3348 31.488 31.8131L33.988 36.1433C34.2642 36.6215 34.1972 37.1772 33.8385 37.3843Z" fill="black"/>
<path d="M33.1932 20.2663C34.0217 21.7012 33.53 23.536 32.0952 24.3644L23.4349 29.3644C22 30.1928 20.1653 29.7012 19.3368 28.2663L17.9104 25.7957C17.6343 25.3174 17.7982 24.7058 18.2765 24.4297L30.4008 17.4297C30.8791 17.1536 31.4907 17.3174 31.7668 17.7957L33.1932 20.2663Z" fill="black"/>
</svg>
