<?xml version="1.0" encoding="UTF-8"?>
<svg id="Layer_1" data-name="Layer 1" xmlns="http://www.w3.org/2000/svg" viewBox="0 0 56 56">
  <defs>
    <style>
      .cls-1 {
        fill: #fff;
      }
    </style>
  </defs>
  <g id="Marker_T3" data-name="Marker T3">
    <rect class="cls-1" width="56" height="56"/>
    <path d="m46.5,36.87c.18,1.55-6.08,3.38-6.06,3.5-.13-.77-.07-1.57-.18-2.35-.12-.89-.27-1.77-.52-2.63-.03-.11-.06-.25-.11-.37-.03-.09-.11-.51-.47-.54-.51-.04-1.02.26-1.48.47s-.94.47-1.37.73c-.89.53-1.66,1.21-2.54,1.75-2.64,1.6-5.36,2.96-8.37,3.64-.27.06-.6.17-.51-.18,1.58-6.24,6.44-10.81,8.42-16.83-6.41,4.24-12.75,8.59-19.02,13.05-.5.36-4.93,2.46-4.75,2.06,3.96-8.87,12.18-15.06,15.36-24.31-3.63,1.73-7.19,3.59-10.7,5.57-.05.03-3.17,1.75-3.29,1.29-.18-.68,2.32-1.94,2.77-2.2,5.14-2.91,10.38-5.62,15.73-8.12.08-.04,1.88-.9,1.69-.29-2.81,8.89-10.31,14.92-14.62,22.98,6.31-4.4,12.7-8.69,19.14-12.88.35-.23,4.21-2.23,4.06-1.6-1.02,4.12-3.37,7.38-5.58,10.93-.73,1.19-2.56,5.7-2.58,6.35-.02.54,3.49-1.66,4.77-2.47,1.85-1.19,5.2-3.86,7.58-3.85,2.97,0,2.36,4.03,2.63,6.3Z"/>
  </g>
</svg>