<svg width="56" height="56" viewBox="0 0 56 56" fill="none" xmlns="http://www.w3.org/2000/svg">
<rect width="56" height="56" fill="black"/>
<path d="M39.0925 35.3479C39.4774 36.0145 38.9963 36.8478 38.2265 36.8479L27.8346 36.8485C27.4773 36.8485 27.1472 36.6579 26.9685 36.3485L22.9563 29.3991L32.4825 23.8991L39.0925 35.3479Z" fill="black"/>
<path fill-rule="evenodd" clip-rule="evenodd" d="M36.4945 34.848L31.7505 26.6311L25.6883 30.1311L28.4119 34.8485L36.4945 34.848ZM38.2265 36.8479C38.9963 36.8478 39.4774 36.0145 39.0925 35.3479L32.4825 23.8991L22.9563 29.3991L26.9685 36.3485C27.1472 36.6579 27.4773 36.8485 27.8346 36.8485L38.2265 36.8479Z" fill="white"/>
<path d="M18.7893 25.205L30.9136 18.205C32.3155 20.2131 31.9456 22.1125 33.4196 25.5454L23.8933 31.0454C21.6572 28.0525 19.8774 27.5097 18.7893 25.205Z" fill="white" stroke="white" stroke-width="2" stroke-linejoin="round"/>
</svg>
