<?xml version="1.0" encoding="UTF-8"?>
<svg width="24px" height="24px" viewBox="0 0 24 24" version="1.1" xmlns="http://www.w3.org/2000/svg" xmlns:xlink="http://www.w3.org/1999/xlink">
    <title>F438B443-93D8-42FC-A38B-726C520F91D2</title>
    <g id="Fundamentals" stroke="none" stroke-width="1" fill="none" fill-rule="evenodd">
        <g id="Iconography" transform="translate(-378.000000, -2028.000000)">
            <g id="Icon-/-Highlighter-/-Selected" transform="translate(378.000000, 2028.000000)">
                <rect id="Rectangle" fill="#000000" x="0" y="0" width="24" height="24"></rect>
                <g id="Group" transform="translate(13.000000, 13.638899) rotate(155.000000) translate(-13.000000, -13.638899) translate(5.000000, 3.423878)">
                    <path d="M2.09381686,0.577352982 C2.32737005,0.0768818535 2.92241434,-0.139497886 3.42288547,0.0940553077 L3.42288547,0.0940553077 L13.4228855,4.76072197 C13.7749599,4.92502338 14,5.27838052 14,5.66690511 L14,5.66690511 L14.0009007,12.6010663 C15.1656226,13.0131569 16,14.1241599 16,15.4300421 L16,19.4300421 C16,19.9823268 15.5522847,20.4300421 15,20.4300421 L1,20.4300421 C0.44771525,20.4300421 0,19.9823268 0,19.4300421 L0,15.4300421 C0,14.1241599 0.834377433,13.0131569 1.99909928,12.6010663 L2,1.00023845 C2,0.854115237 2.03202348,0.709767372 2.09381686,0.577352982 Z" id="Combined-Shape" fill="#FFFFFF" stroke-linejoin="round"></path>
                    <polygon id="Rectangle-Copy-2" fill="#000000" transform="translate(8.000000, 7.430042) scale(-1, 1) rotate(180.000000) translate(-8.000000, -7.430042) " points="4 2.43004209 12 2.43004209 12 8.90800291 4 12.4300421"></polygon>
                </g>
            </g>
        </g>
    </g>
</svg>