<svg width="56" height="56" viewBox="0 0 56 56" fill="none" xmlns="http://www.w3.org/2000/svg">
<rect width="56" height="56" fill="white"/>
<path fill-rule="evenodd" clip-rule="evenodd" d="M25.7196 18.1652C26.4585 18.0567 27.221 18 28 18C28.779 18 29.5415 18.0567 30.2804 18.1652C30.8271 18.2455 31.2068 18.7648 31.1285 19.325C31.0501 19.8853 30.5434 20.2744 29.9967 20.1941C29.3521 20.0994 28.6845 20.0496 28 20.0496C27.3155 20.0496 26.6479 20.0994 26.0033 20.1941C25.4566 20.2744 24.9499 19.8853 24.8715 19.325C24.7932 18.7648 25.1729 18.2455 25.7196 18.1652ZM23.6863 19.6379C23.8892 20.1643 23.6374 20.7596 23.1237 20.9676C21.8144 21.4978 20.7023 22.2273 19.8544 23.0808C19.4604 23.4774 18.8273 23.4716 18.4403 23.0678C18.0533 22.6641 18.0589 22.0152 18.4529 21.6186C19.5143 20.5502 20.8618 19.6798 22.3888 19.0614C22.9024 18.8534 23.4833 19.1115 23.6863 19.6379ZM32.3137 19.6379C32.5167 19.1115 33.0976 18.8534 33.6112 19.0614C35.1382 19.6798 36.4857 20.5502 37.5471 21.6186C37.9411 22.0152 37.9467 22.6641 37.5597 23.0678C37.1727 23.4716 36.5396 23.4774 36.1456 23.0808C35.2977 22.2273 34.1856 21.4978 32.8763 20.9676C32.3626 20.7596 32.1108 20.1643 32.3137 19.6379ZM17.7321 24.1116C18.2496 24.3094 18.5126 24.8996 18.3196 25.4299C18.1101 26.0056 18 26.6059 18 27.2233C18 27.8407 18.1101 28.441 18.3196 29.0167C18.5126 29.547 18.2496 30.1372 17.7321 30.335C17.2146 30.5327 16.6387 30.2632 16.4457 29.7329C16.1562 28.9372 16 28.0949 16 27.2233C16 26.3517 16.1562 25.5094 16.4457 24.7137C16.6387 24.1834 17.2146 23.9139 17.7321 24.1116ZM38.2679 24.1116C38.7854 23.9139 39.3613 24.1834 39.5543 24.7137C39.8438 25.5094 40 26.3517 40 27.2233C40 28.0949 39.8438 28.9372 39.5543 29.7329C39.3613 30.2632 38.7854 30.5327 38.2679 30.335C37.7504 30.1372 37.4874 29.547 37.6804 29.0167C37.8899 28.441 38 27.8407 38 27.2233C38 26.6059 37.8899 26.0056 37.6804 25.4299C37.4874 24.8996 37.7504 24.3094 38.2679 24.1116ZM18.4403 31.3788C18.8273 30.975 19.4604 30.9692 19.8544 31.3658C20.7023 32.2193 21.8144 32.9488 23.1237 33.479C23.6374 33.6869 23.8892 34.2823 23.6863 34.8087C23.4833 35.335 22.9024 35.5932 22.3888 35.3852C20.8618 34.7668 19.5143 33.8964 18.4529 32.828C18.0589 32.4314 18.0533 31.7825 18.4403 31.3788Z" fill="black"/>
<path d="M36.9771 32.6272C37.281 32.1791 37.1536 31.5728 36.6926 31.2728C36.2323 30.9733 35.6136 31.0921 35.3092 31.5387L35.3085 31.5398L35.3079 31.5406L35.294 31.5602C35.28 31.5796 35.2567 31.6113 35.2242 31.6535C35.1593 31.7379 35.0582 31.8636 34.9221 32.0161C34.725 32.2369 34.4577 32.5103 34.1242 32.7943C33.0066 31.7186 31.4693 30.7512 29.4808 30.6005C27.2204 30.4291 25.4075 31.4661 25.281 33.2181C25.1545 34.9701 26.7987 36.2691 29.0593 36.4405C30.9643 36.5849 32.5531 36.0848 33.7852 35.4143C34.1008 35.8543 34.3471 36.2715 34.5251 36.6043C34.642 36.8231 34.728 37.0027 34.7837 37.1249C34.8115 37.1858 34.8316 37.2323 34.8441 37.2618L34.8571 37.293L34.859 37.2976L34.8594 37.2987C35.0595 37.8017 35.6379 38.0546 36.1521 37.8637C36.667 37.6725 36.9227 37.1088 36.7232 36.6047C36.6226 36.3707 36.7226 36.6031 36.7226 36.6031L36.7218 36.6011L36.7197 36.5958L36.7131 36.5797C36.7098 36.5715 36.7057 36.5615 36.7007 36.5497C36.6977 36.5426 36.6945 36.5348 36.6909 36.5264C36.672 36.4819 36.6449 36.4195 36.6096 36.3419C36.539 36.1869 36.4348 35.9699 36.2961 35.7105C36.0862 35.3179 35.794 34.8221 35.4151 34.2948C35.8418 33.9342 36.1821 33.5866 36.4335 33.305C36.6042 33.1137 36.7353 32.9512 36.8261 32.8334C36.8714 32.7744 36.9068 32.7264 36.932 32.6914C36.9446 32.674 36.9546 32.6597 36.9622 32.6489L36.9716 32.6354L36.9749 32.6306L36.9761 32.6287L36.9771 32.6272ZM29.3403 32.5471C30.5627 32.6398 31.5864 33.183 32.4202 33.9007C31.5269 34.3186 30.4496 34.5886 29.1998 34.4938C27.4712 34.3628 27.2615 33.564 27.2756 33.3693C27.2896 33.1746 27.6118 32.4161 29.3403 32.5471Z" fill="black"/>
</svg>
