<svg width="24" height="24" viewBox="0 0 24 24" fill="none" xmlns="http://www.w3.org/2000/svg">
<path d="M9.70296 2.2653C10.4415 2.09164 11.2107 2 12 2C12.7893 2 13.5585 2.09164 14.297 2.2653C14.8346 2.39173 15.168 2.93004 15.0416 3.46766C14.9151 4.00528 14.3768 4.33862 13.8392 4.2122C13.2497 4.07357 12.6341 4 12 4C11.3659 4 10.7503 4.07357 10.1608 4.2122C9.62315 4.33862 9.08484 4.00528 8.95842 3.46766C8.83199 2.93004 9.16534 2.39173 9.70296 2.2653Z" fill="#999999"/>
<path d="M15.8824 3.81633C16.1733 3.34682 16.7896 3.20197 17.2591 3.49279C18.5769 4.30902 19.6904 5.42261 20.5067 6.74033C20.7975 7.20984 20.6527 7.82621 20.1831 8.11704C19.7136 8.40787 19.0973 8.26301 18.8064 7.7935C18.153 6.73858 17.2609 5.84648 16.206 5.19304C15.7365 4.90221 15.5916 4.28584 15.8824 3.81633Z" fill="#999999"/>
<path d="M8.11704 3.81633C8.40787 4.28584 8.26301 4.90221 7.7935 5.19304C6.73858 5.84648 5.84648 6.73858 5.19304 7.7935C4.90221 8.26301 4.28584 8.40787 3.81633 8.11704C3.34682 7.82622 3.20197 7.20984 3.49279 6.74033C4.30902 5.42261 5.42261 4.30902 6.74033 3.49279C7.20984 3.20197 7.82621 3.34682 8.11704 3.81633Z" fill="#999999"/>
<path d="M3.46766 8.95842C4.00528 9.08485 4.33862 9.62316 4.2122 10.1608C4.07357 10.7503 4 11.3659 4 12C4 12.6341 4.07357 13.2497 4.2122 13.8392C4.33862 14.3768 4.00528 14.9151 3.46766 15.0416C2.93004 15.168 2.39173 14.8346 2.2653 14.297C2.09164 13.5585 2 12.7893 2 12C2 11.2107 2.09164 10.4415 2.2653 9.70297C2.39173 9.16535 2.93004 8.832 3.46766 8.95842Z" fill="#999999"/>
<path d="M20.532 8.95842C21.0697 8.83199 21.608 9.16534 21.7344 9.70296C21.9081 10.4415 21.9997 11.2107 21.9997 12C21.9997 12.7893 21.9081 13.5585 21.7344 14.297C21.608 14.8346 21.0697 15.168 20.532 15.0416C19.9944 14.9151 19.6611 14.3768 19.7875 13.8392C19.9261 13.2497 19.9997 12.6341 19.9997 12C19.9997 11.3659 19.9261 10.7503 19.7875 10.1608C19.6611 9.62315 19.9944 9.08484 20.532 8.95842Z" fill="#999999"/>
<path d="M3.81633 15.8824C4.28584 15.5916 4.90221 15.7365 5.19304 16.206C5.84648 17.2609 5.99782 17.6462 7.05274 18.2996C7.52225 18.5905 7.66711 19.2068 7.37628 19.6763C7.08546 20.1459 6.46908 20.2907 5.99957 19.9999C4.68185 19.1837 4.30902 18.5769 3.49279 17.2591C3.20197 16.7896 3.34682 16.1733 3.81633 15.8824Z" fill="#999999"/>
<path d="M20.6217 17.4906C20.8925 17.0092 20.7218 16.3995 20.2404 16.1287C19.7598 15.8583 19.1514 16.0276 18.88 16.5075L18.8793 16.5087L18.8788 16.5096L18.8663 16.5307C18.8538 16.5516 18.8328 16.5858 18.8035 16.6314C18.7448 16.7227 18.653 16.859 18.5283 17.0253C18.3476 17.2662 18.1007 17.5663 17.7886 17.8823C16.5966 16.8697 14.9938 16.0003 12.9999 16.0003C10.7333 16.0003 9.00005 17.2003 9 19.0003C8.99995 20.8003 10.7332 22.0003 12.9999 22.0003C14.9101 22.0003 16.4586 21.3662 17.6391 20.5857C17.9855 21.0108 18.2612 21.418 18.4626 21.7443C18.595 21.9588 18.6937 22.1357 18.758 22.2562C18.7901 22.3163 18.8135 22.3622 18.8281 22.3914L18.8433 22.4223L18.8455 22.4268L18.846 22.4279C19.0818 22.9264 19.6768 23.14 20.1759 22.9051C20.6756 22.6699 20.89 22.0741 20.6548 21.5744C20.5376 21.3431 20.6541 21.5729 20.6541 21.5729L20.6531 21.5709L20.6506 21.5656L20.6429 21.5497C20.639 21.5416 20.6342 21.5317 20.6284 21.52C20.6249 21.513 20.6211 21.5053 20.6169 21.4969C20.5949 21.4529 20.5634 21.3913 20.5226 21.3147C20.441 21.1618 20.3215 20.9481 20.1645 20.6938C19.9269 20.3089 19.5998 19.825 19.184 19.3155C19.5835 18.914 19.8979 18.5325 20.1283 18.2253C20.2848 18.0166 20.4039 17.8404 20.4859 17.713C20.5269 17.6492 20.5587 17.5974 20.5813 17.5597C20.5926 17.5409 20.6016 17.5255 20.6084 17.5139L20.6168 17.4994L20.6197 17.4942L20.6208 17.4922L20.6217 17.4906ZM12.9999 18.0003C14.2257 18.0003 15.2857 18.476 16.1689 19.1448C15.3081 19.641 14.2531 20.0003 12.9999 20.0003C11.2666 20.0003 11 19.2003 11 19.0003C11 18.8003 11.2667 18.0003 12.9999 18.0003Z" fill="#999999"/>
</svg>
