<svg width="24" height="24" viewBox="0 0 24 24" fill="none" xmlns="http://www.w3.org/2000/svg">
<rect width="24" height="24" fill="black"/>
<path fill-rule="evenodd" clip-rule="evenodd" d="M9.71957 2.16521C10.4585 2.05669 11.221 2 12 2C12.779 2 13.5415 2.05669 14.2804 2.16521C14.8271 2.24549 15.2068 2.76476 15.1285 3.32502C15.0501 3.88529 14.5434 4.27439 13.9967 4.1941C13.3521 4.09944 12.6845 4.04962 12 4.04962C11.3155 4.04962 10.6479 4.09944 10.0033 4.1941C9.45657 4.27439 8.94987 3.88529 8.87153 3.32502C8.79319 2.76476 9.17287 2.24549 9.71957 2.16521ZM7.68627 3.63793C7.88923 4.16432 7.63736 4.75964 7.12372 4.96763C5.8144 5.49782 4.70227 6.22732 3.85443 7.0808C3.46043 7.47742 2.82729 7.47162 2.44027 7.06784C2.05326 6.66406 2.05892 6.01522 2.45292 5.6186C3.51431 4.55015 4.86175 3.67976 6.38876 3.06142C6.9024 2.85343 7.48332 3.11154 7.68627 3.63793ZM16.3137 3.63793C16.5167 3.11154 17.0976 2.85343 17.6112 3.06142C19.1382 3.67976 20.4857 4.55015 21.5471 5.6186C21.9411 6.01522 21.9467 6.66406 21.5597 7.06784C21.1727 7.47162 20.5396 7.47742 20.1456 7.0808C19.2977 6.22732 18.1856 5.49782 16.8763 4.96763C16.3626 4.75964 16.1108 4.16432 16.3137 3.63793ZM1.73209 8.11163C2.24956 8.30941 2.51261 8.89963 2.31962 9.42994C2.11013 10.0056 2 10.6059 2 11.2233C2 11.8407 2.11013 12.441 2.31962 13.0167C2.51261 13.547 2.24956 14.1372 1.73209 14.335C1.21462 14.5327 0.638686 14.2632 0.445699 13.7329C0.156162 12.9372 0 12.0949 0 11.2233C0 10.3517 0.156162 9.50935 0.445699 8.71373C0.638686 8.18343 1.21462 7.91385 1.73209 8.11163ZM22.2679 8.11163C22.7854 7.91386 23.3613 8.18343 23.5543 8.71373C23.8438 9.50935 24 10.3517 24 11.2233C24 12.0949 23.8438 12.9372 23.5543 13.7329C23.3613 14.2632 22.7854 14.5327 22.2679 14.335C21.7504 14.1372 21.4874 13.547 21.6804 13.0167C21.8899 12.441 22 11.8407 22 11.2233C22 10.6059 21.8899 10.0056 21.6804 9.42994C21.4874 8.89963 21.7504 8.30941 22.2679 8.11163ZM2.44027 15.3788C2.82729 14.975 3.46043 14.9692 3.85443 15.3658C4.70227 16.2193 5.8144 16.9488 7.12372 17.479C7.63736 17.6869 7.88923 18.2823 7.68627 18.8087C7.48332 19.335 6.9024 19.5932 6.38876 19.3852C4.86175 18.7668 3.51431 17.8964 2.45292 16.828C2.05892 16.4314 2.05326 15.7825 2.44027 15.3788Z" fill="white"/>
<path d="M20.9771 16.6272C21.281 16.1791 21.1536 15.5728 20.6926 15.2728C20.2323 14.9733 19.6136 15.0921 19.3092 15.5387L19.3085 15.5398L19.3079 15.5406L19.294 15.5602C19.28 15.5796 19.2567 15.6113 19.2242 15.6535C19.1593 15.7379 19.0582 15.8636 18.9221 16.0161C18.725 16.2369 18.4577 16.5103 18.1242 16.7943C17.0066 15.7186 15.4693 14.7512 13.4808 14.6005C11.2204 14.4291 9.40754 15.4661 9.28103 17.2181C9.15452 18.9701 10.7987 20.2691 13.0593 20.4405C14.9643 20.5849 16.5531 20.0848 17.7852 19.4143C18.1008 19.8543 18.3471 20.2715 18.5251 20.6043C18.642 20.8231 18.728 21.0027 18.7837 21.1249C18.8115 21.1858 18.8316 21.2323 18.8441 21.2618L18.8571 21.293L18.859 21.2976L18.8594 21.2987C19.0595 21.8017 19.6379 22.0546 20.1521 21.8637C20.667 21.6725 20.9227 21.1088 20.7232 20.6047C20.6226 20.3707 20.7226 20.6031 20.7226 20.6031L20.7218 20.6011L20.7197 20.5958L20.7131 20.5797C20.7098 20.5715 20.7057 20.5615 20.7007 20.5497C20.6977 20.5426 20.6945 20.5348 20.6909 20.5264C20.672 20.4819 20.6449 20.4195 20.6096 20.3419C20.539 20.1869 20.4348 19.9699 20.2961 19.7105C20.0862 19.3179 19.794 18.8221 19.4151 18.2948C19.8418 17.9342 20.1821 17.5866 20.4335 17.305C20.6042 17.1137 20.7353 16.9512 20.8261 16.8334C20.8714 16.7744 20.9068 16.7264 20.932 16.6914C20.9446 16.674 20.9546 16.6597 20.9622 16.6489L20.9716 16.6354L20.9749 16.6306L20.9761 16.6287L20.9771 16.6272ZM13.3403 16.5471C14.5627 16.6398 15.5864 17.183 16.4202 17.9007C15.5269 18.3186 14.4496 18.5886 13.1998 18.4938C11.4712 18.3628 11.2615 17.564 11.2756 17.3693C11.2896 17.1746 11.6118 16.4161 13.3403 16.5471Z" fill="white"/>
</svg>
