<?xml version="1.0" encoding="UTF-8"?>
<svg id="Layer_1" data-name="Layer 1" xmlns="http://www.w3.org/2000/svg" viewBox="0 0 56 56">
  <defs>
    <style>
      .cls-1 {
        fill: #fff;
      }
    </style>
  </defs>
  <rect class="cls-1" y="0" width="56" height="56"/>
  <g id="Marker_T1" data-name="Marker T1">
    <path d="m11.55,20.21c4.59-3.34,9.95-5.2,15.07-7.44.76-.35,1.52.63,1,1.27-3.83,5.89-8.69,12.23-11.18,18.78-.83,2.2-1.39,4.48-1.69,6.82,0,0-2.54-1.25-2.54-1.25,7.09-6.63,14.78-14.09,24.89-15.45.73-.19,1.34.72.87,1.31-3.7,5.55-9.18,11.11-9.07,18.19,0,0-.69-.6-.69-.6,1.73-.27,3.4-1.2,4.97-2.2,2.84-1.45,9.9-9.03,11.34-2.65.28,1.49.2,3.01.1,4.49-.03.4-.38.71-.79.67-.41-.03-.71-.39-.67-.8.11-1.61.35-3.8-.41-5.15-.43-.6-1.12-.33-1.76-.09-4.31,2.06-7.65,6.07-12.61,6.93-.37.07-.71-.23-.7-.6-.13-3.64,1.11-7.28,2.98-10.36,1.84-3.09,3.96-5.89,5.91-8.8,0,0,.87,1.31.87,1.31-4.67,1.01-8.96,2.98-12.65,6.02-3.7,2.97-7.07,6.47-10.49,9.92-.59.58-1.54.57-2.12-.03-.33-.34-.47-.79-.42-1.23.29-2.57.94-5.13,1.91-7.54,2.93-7.03,7.93-12.89,12.59-18.71,0,0,1,1.27,1,1.27-5.05,2.16-10.36,3.94-14.83,7.12-.8.58-1.7-.64-.9-1.23h0Z"/>
  </g>
</svg>