<?xml version="1.0" encoding="UTF-8"?>
<svg id="Layer_1" data-name="Layer 1" xmlns="http://www.w3.org/2000/svg" viewBox="0 0 56 56">
  <defs>
    <style>
      .cls-1 {
        fill: #fff;
      }
    </style>
  </defs>
  <rect class="cls-1" y="0" width="56" height="56"/>
  <g id="Marker_T3" data-name="Marker T3">
    <path d="m12.47,20.1c4.46-3.53,9.8-5.64,14.82-8.1,1.43-.72,2.97.97,2.14,2.32-1.31,2.21-2.67,4.38-4.01,6.54-3.68,5.93-7.33,11.98-8.18,18.96,0,0-5.07-2.5-5.07-2.5,7.32-6.56,15.44-14.04,25.76-15.21.95-.23,1.91.38,2.06,1.36.07.47-.05.92-.32,1.27-3.72,5.65-9.07,10.62-9.16,17.71,0,0-1.39-1.2-1.39-1.2,3.45-.57,6.51-3.28,9.52-5.2,6.1-4.28,7.87-.71,7.14,5.45-.12,1.15-1.86,1.01-1.79-.15.08-1.51.25-3.77-.47-4.98-.16-.19-.2-.2-.43-.21-1.14.13-2.22.97-3.25,1.65-1.44.99-11.28,8.8-11.76,4.65-.47-7.51,4.91-13.76,8.79-19.64,0,0,1.75,2.63,1.75,2.63-4.56,1.11-8.57,3.07-12.11,6.13-3.53,2.98-6.82,6.54-10.15,10.05-1.94,2.04-5.51.24-5.07-2.5,1.07-10.62,8.58-18.93,15.31-26.57,0,0,2.01,2.55,2.01,2.55-2.63.98-5.25,1.88-7.8,2.88-2.55,1-5.03,2.11-7.28,3.59-.93.62-1.94-.76-1.06-1.46h0Z"/>
  </g>
</svg>