<?xml version="1.0" encoding="UTF-8"?>
<svg id="Layer_1" data-name="Layer 1" xmlns="http://www.w3.org/2000/svg" viewBox="0 0 56 56">
  <defs>
    <style>
      .cls-1 {
        fill: #fff;
      }
    </style>
  </defs>
  <rect class="cls-1" width="56" height="56"/>
  <g id="Marker_T5" data-name="Marker T5">
    <path d="m12.12,19.62c4.42-3.71,9.76-6.01,14.74-8.65,2.27-1.23,4.85,1.36,3.66,3.61,0,0-.32.64-.32.64-4.17,8.36-9.67,15.64-10.96,24.84,0,0-8.45-4.17-8.45-4.17,3.78-3.14,7.53-6.38,11.94-9.32,4.43-3.07,10.08-5.07,15.4-5.63,2.41-.37,4.04,2.6,2.49,4.43-3.67,5.6-8.99,10.14-9.29,17.07,0,0-2.31-2.01-2.31-2.01,4.33-.73,7.88-4.73,12.04-6.51,3.62-1.54,5.58,1.15,5.49,4.57-.13,1.56.44,4.44-1.81,4.39-.8-.08-1.39-.79-1.34-1.59.04-1.47.23-3.28-.41-4.55-.09-.04.16.1.09.08-.07,0-.38.08-.69.23-4.37,2.34-7.48,6.38-12.81,7.41-1.23.26-2.37-.76-2.31-2-.1-1.93.07-3.97.62-5.9,1.58-5.42,5.06-9.8,8.05-14.39,0,0,2.91,4.38,2.91,4.38-9.26,2.32-14.85,9.6-21.09,16.5-3.16,3.34-8.94.66-8.48-3.86.39-5.69,3.02-11.39,6.31-15.85,3.12-4.29,6.51-7.95,10.12-11.45l3.34,4.24c-2.68.9-5.33,1.72-7.89,2.63-2.56.91-5.03,1.92-7.29,3.29-1.57.94-3.14-1.25-1.75-2.43h0Z"/>
  </g>
</svg>