<svg width="56" height="56" viewBox="0 0 56 56" fill="none" xmlns="http://www.w3.org/2000/svg">
<rect width="56" height="56" fill="white"/>
<path d="M33.83 21.4941C34.3822 22.4507 34.0545 23.6739 33.0979 24.2262L22.7056 30.2262C21.749 30.7785 20.5258 30.4507 19.9735 29.4941L17.9735 26.03C17.6974 25.5518 17.8613 24.9402 18.3396 24.664L30.4639 17.664C30.9422 17.3879 31.5538 17.5518 31.83 18.03L33.83 21.4941Z" fill="black"/>
<path d="M25.8073 29.9728C28.5884 34.7899 33.1614 37.3181 33.6055 37.0617C34.0497 36.8054 34.1089 31.6026 31.3493 26.8229L25.8073 29.9728Z" fill="black"/>
<path d="M33.6055 37.0617L34.1055 37.9278L33.6055 37.0617ZM25.8073 29.9728L25.3131 29.1034C25.0815 29.235 24.912 29.4536 24.8422 29.7107C24.7724 29.9678 24.808 30.2421 24.9412 30.4728L25.8073 29.9728ZM31.3493 26.8229L32.2154 26.3229C31.9405 25.8469 31.3331 25.6819 30.8552 25.9535L31.3493 26.8229ZM33.1056 36.1957C33.2446 36.1154 33.3689 36.0924 33.4339 36.0846C33.5025 36.0765 33.5516 36.08 33.5707 36.0819C33.6065 36.0853 33.6058 36.0896 33.555 36.0738C33.458 36.0435 33.2889 35.9747 33.0498 35.8512C32.5788 35.6079 31.9302 35.2007 31.1965 34.6303C29.729 33.4895 27.9861 31.7466 26.6733 29.4728L24.9412 30.4728C26.4096 33.0161 28.3437 34.9459 29.969 36.2093C30.7818 36.8411 31.5335 37.319 32.1318 37.6281C32.4273 37.7808 32.7101 37.9052 32.959 37.9829C33.0812 38.021 33.227 38.0581 33.38 38.0727C33.4926 38.0835 33.7991 38.1046 34.1055 37.9278L33.1056 36.1957ZM30.4833 27.3229C31.7861 29.5794 32.4281 31.947 32.6888 33.7794C32.8191 34.6955 32.8512 35.4573 32.8293 35.9844C32.8182 36.2519 32.7942 36.4314 32.7726 36.5294C32.7614 36.5807 32.7575 36.5783 32.7727 36.5446C32.7809 36.5266 32.8025 36.4817 32.8443 36.4257C32.8839 36.3725 32.9663 36.2761 33.1056 36.1957L34.1055 37.9278C34.4128 37.7504 34.5476 37.4734 34.5947 37.3695C34.6583 37.229 34.6985 37.0838 34.726 36.959C34.7819 36.7047 34.8138 36.3984 34.8276 36.0675C34.8555 35.3975 34.8131 34.5118 34.6689 33.4977C34.3803 31.4698 33.6721 28.8461 32.2154 26.3229L30.4833 27.3229ZM30.8552 25.9535L25.3131 29.1034L26.3014 30.8422L31.8435 27.6923L30.8552 25.9535Z" fill="black"/>
<path d="M34.0309 28.3629L25.8218 33.1024C25.7023 33.1714 25.5494 33.1305 25.4803 33.0109L23.2833 29.2055L31.9254 24.216L34.1224 28.0214C34.1914 28.141 34.1505 28.2939 34.0309 28.3629Z" fill="white" stroke="black" stroke-width="1.5"/>
</svg>
