<?xml version="1.0" encoding="UTF-8"?>
<svg id="Layer_1" data-name="Layer 1" xmlns="http://www.w3.org/2000/svg" viewBox="0 0 56 56">
  <defs>
    <style>
      .cls-1 {
        fill: #fff;
      }
    </style>
  </defs>
  <g id="Marker_T4_inverted" data-name="Marker T4 inverted">
    <rect width="56" height="56"/>
    <g id="Marker_T4" data-name="Marker T4">
      <path class="cls-1" d="m12.29,19.86c4.44-3.62,9.78-5.83,14.78-8.37,1.86-.97,3.92,1.19,2.9,2.99-1.26,2.32-2.61,4.59-3.92,6.83-3.46,5.92-6.93,11.82-7.8,18.64,0,0-6.76-3.34-6.76-3.34,5.66-4.75,11.52-10.36,18.75-13.14,2.51-.96,5.08-1.54,7.6-1.91,1.28-.31,2.59.5,2.77,1.83.09.62-.09,1.22-.45,1.68-2.79,4.22-6.53,8.03-8.33,12.75-.53,1.47-.83,3.02-.89,4.64l-1.85-1.6c1.45-.17,3.09-1,4.63-1.94,3.28-1.74,10.72-9.17,12.38-2.02.27,1.56.14,3.12,0,4.64-.07.66-.65,1.14-1.31,1.07-.64-.06-1.12-.63-1.08-1.27.08-1.33.13-2.68-.12-3.95-.08-.37-.21-.7-.32-.82-.13-.11-.02-.05-.17-.07-1.04.15-2.07.96-3.05,1.61-1.8,1.2-11.04,8.91-12.33,4.74-.6-5.87,2.57-11.37,5.76-15.99,0,0,2.94-4.35,2.94-4.35,0,0,2.33,3.5,2.33,3.5-9.4,2.17-15.31,9.47-21.68,16.34-2.56,2.67-7.19.47-6.78-3.16.27-2.83.98-5.7,2.1-8.32,3.17-7.28,8.45-13,13.77-18.64,0,0,2.67,3.4,2.67,3.4-5.16,1.87-10.49,3.31-15.12,6.19-1.26.8-2.56-.99-1.41-1.94h0Z"/>
    </g>
  </g>
</svg>