<?xml version="1.0" encoding="UTF-8"?>
<svg id="Layer_1" data-name="Layer 1" xmlns="http://www.w3.org/2000/svg" viewBox="0 0 56 56">
  <defs>
    <style>
      .cls-1 {
        fill: #fff;
      }
    </style>
  </defs>
  <g id="Marker_T2_inverted" data-name="Marker T2 inverted">
    <rect width="56" height="56"/>
    <g id="Marker_T2" data-name="Marker T2">
      <path class="cls-1" d="m12.41,20.03c4.58-3.4,9.94-5.33,15.04-7.64.63-.28,1.37,0,1.65.64.19.44.11.91-.15,1.27,0,0-4,6.23-4,6.23-3.83,5.94-7.62,12.09-8.46,19.2,0,0-3.8-1.88-3.8-1.88,7.19-6.59,15.12-14.07,25.32-15.33.71-.17,1.42.29,1.54,1.01.06.35-.03.69-.23.96-1,1.46-2.05,2.89-3.08,4.31-3.01,4.07-6.1,8.39-6.04,13.64,0,0-1.04-.9-1.04-.9,3.53-.68,6.49-3.44,9.51-5.45,6.03-4.46,7.94-.72,7.3,5.42-.14,1.44-2.27,1.28-2.19-.16.12-1.49.33-3.74-.33-4.94-.3-.41-.82-.15-1.34.03-4.33,2.07-7.67,6.07-12.7,6.92-.52.1-1.03-.31-1.04-.84-.06-1.86.17-3.76.71-5.57,1.05-3.53,3.13-6.58,5.15-9.55,0,0,2.98-4.34,2.98-4.34,0,0,1.31,1.97,1.31,1.97-2.31.56-4.53,1.29-6.59,2.29-6.39,3.19-11.05,8.68-16.1,13.76-1.43,1.49-4.07.22-3.81-1.81.73-7.9,5.36-14.73,10.14-20.73,1.55-1.95,3.14-3.87,4.77-5.74,0,0,1.5,1.91,1.5,1.91-5.06,2.1-10.37,3.81-14.86,6.93-1.05.73-2.19-.82-1.17-1.61h0Z"/>
    </g>
  </g>
</svg>