<?xml version="1.0" encoding="UTF-8"?>
<svg width="56px" height="56px" viewBox="0 0 56 56" version="1.1" xmlns="http://www.w3.org/2000/svg" xmlns:xlink="http://www.w3.org/1999/xlink">
    <title>5AE7DB40-B43F-49F2-987A-BFBB187E713F</title>
    <g id="Toolbar-BOB-&amp;-Specs" stroke="none" stroke-width="1" fill="none" fill-rule="evenodd">
        <g id="Toolbar---GTK-selected-states---GTK-TOOLBAR-ONLY" transform="translate(-118.000000, -668.000000)">
            <g id="More---Unselected---Light-Mode" transform="translate(118.000000, 668.000000)">
                <path d="M0,0 L56,0 L56,56 L12,56 C5.372583,56 -9.64732338e-16,50.627417 0,44 L0,0 L0,0 Z" id="Rectangle"></path>
                <g id="Icon-/-E-reader-/-Eraser-Copy-14" transform="translate(16.000000, 16.000000)">
                    <rect id="Rectangle" fill="#FFFFFF" x="0" y="0" width="24" height="24"></rect>
                    <g id="Icon-/-More" transform="translate(9.700000, 2.000000)" fill="#1D1D1D">
                        <path d="M3.50030308e-11,2.27272727 C3.50021426e-11,3.52791989 1.01753466,4.54545455 2.27272727,4.54545455 C3.52791989,4.54545455 4.54545455,3.52791989 4.54545455,2.27272727 C4.54545455,1.01753466 3.52791989,4.10105005e-11 2.27272727,4.10103119e-11 C1.01753466,4.10101232e-11 3.50030308e-11,1.01753466 3.50030308e-11,2.27272727 Z M3.49550691e-11,10 C3.4954181e-11,11.2551926 1.01753466,12.2727273 2.27272727,12.2727273 C3.52791989,12.2727273 4.54545455,11.2551926 4.54545455,10 C4.54545455,8.74480739 3.52791989,7.72727273 2.27272727,7.72727273 C1.01753466,7.72727273 3.49550691e-11,8.74480739 3.49550691e-11,10 Z M3.50145771e-11,17.7272727 C3.50136889e-11,18.9824653 1.01753466,20 2.27272727,20 C3.52791989,20 4.54545455,18.9824653 4.54545455,17.7272727 C4.54545455,16.4720801 3.52791989,15.4545455 2.27272727,15.4545455 C1.01753466,15.4545455 3.50145771e-11,16.4720801 3.50145771e-11,17.7272727 Z" id="More"></path>
                    </g>
                </g>
            </g>
        </g>
    </g>
</svg>