<svg width="56" height="56" viewBox="0 0 56 56" fill="none" xmlns="http://www.w3.org/2000/svg">
<rect width="56" height="56" fill="black"/>
<circle cx="33.7171" cy="37.0496" r="1.5" transform="rotate(150 33.7171 37.0496)" fill="white"/>
<path d="M34.0664 33.9038L30.6424 35.8806L24.48 29.3227L31.6284 25.1956L34.0664 33.9038Z" fill="black"/>
<path fill-rule="evenodd" clip-rule="evenodd" d="M32.4442 34.845L32.6587 34.1911L31.409 25.1572L27.9905 27.1309L26.9905 25.3988L31.696 22.6822L32.9829 21.9392L33.1865 23.4112L34.6684 34.1231C34.6913 34.2889 34.6761 34.4577 34.6239 34.6167L34.0656 36.319L33.1152 36.0073L32.91 36.9861L31.1565 36.6185C30.9927 36.5842 30.839 36.5129 30.7069 36.4102L22.171 29.7709L20.998 28.8586L22.2849 28.1155L26.9903 25.3989L27.9903 27.1309L24.5719 29.1046L31.7705 34.7038L32.4442 34.845Z" fill="white"/>
<path fill-rule="evenodd" clip-rule="evenodd" d="M17.9394 25.7223C17.6873 25.2858 17.8708 24.708 18.3491 24.4319L30.4734 17.4319C30.9517 17.1557 31.5437 17.2858 31.7958 17.7223L33.6211 20.8838C34.3772 22.1934 33.8269 23.9265 32.392 24.755L23.7317 29.755C22.2969 30.5834 20.5208 30.1934 19.7647 28.8838L17.9394 25.7223Z" fill="white"/>
</svg>
