<svg width="56" height="56" viewBox="0 0 56 56" fill="none" xmlns="http://www.w3.org/2000/svg">
<rect width="56" height="56" fill="black"/>
<path d="M32.8454 36.2321L31.9293 22.1419L20.965 28.4721L32.8454 36.2321Z" fill="black"/>
<path fill-rule="evenodd" clip-rule="evenodd" d="M23.8133 29.7163L24.5147 27.2472C24.5595 27.0895 24.7226 26.997 24.8809 27.0394L27.665 27.7854C27.7984 27.8212 27.9354 27.742 27.9712 27.6086L28.7182 24.8209C28.7602 24.664 28.9194 24.5691 29.0774 24.6067L31.5613 25.1981L31.9169 31.6751L30.0233 31.1677C29.8899 31.132 29.7528 31.2112 29.7171 31.3445L29.2119 33.2298L23.8133 29.7163ZM34.1829 36.4649L33.3627 21.5267C33.3541 21.37 33.3088 21.2175 33.2303 21.0815L31.3738 17.866C31.0977 17.3877 30.4861 17.2238 30.0078 17.5L17.8812 24.5013C17.4029 24.7774 17.239 25.389 17.5151 25.8673L19.3712 29.0821C19.45 29.2185 19.5598 29.3344 19.6918 29.4203L32.2415 37.5877L32.3054 37.6293L32.9201 38.0294L33.4927 38.402C33.8358 38.6253 34.2872 38.3643 34.2647 37.9556L34.2273 37.2734L34.1871 36.5411L34.1829 36.4649Z" fill="white"/>
</svg>
