<?xml version="1.0" encoding="UTF-8"?>
<svg width="24px" height="24px" viewBox="0 0 24 24" version="1.1" xmlns="http://www.w3.org/2000/svg" xmlns:xlink="http://www.w3.org/1999/xlink">
    <title>7808D2B0-3439-431C-935A-F12E93BD5B07</title>
    <g id="Fundamentals" stroke="none" stroke-width="1" fill="none" fill-rule="evenodd">
        <g id="Iconography" transform="translate(-918.000000, -2424.000000)">
            <g id="Icon-/-Finger-/-Selected" transform="translate(918.000000, 2424.000000)">
                <rect id="Rectangle" fill="#000000" x="0" y="0" width="24" height="24"></rect>
                <path d="M9.43983737,2.27362746 L4.06300503,5.69217905 C3.76807936,5.8804151 3.58937573,6.23030984 3.59631033,6.60561821 C3.6734214,9.93551743 4.28607381,12.6954871 5.43426757,14.8855273 C6.6520308,17.2082628 7.86602837,17.7615622 9.07626027,16.5454255 C9.59871927,17.0271998 10.03592,17.1562057 10.3878625,16.9324432 C10.739805,16.7086807 11.1052583,16.292693 11.4842223,15.6844803 C11.8901434,16.4587254 12.4450464,16.6220855 13.1489314,16.1745605 C13.8528164,15.7270354 14.1777696,15.004269 14.123791,14.0062614 L14.4846851,14.6896916 L14.9955571,15.6382281 L15.3158258,16.2195133 L15.6198443,16.7599404 L15.9076127,17.2595096 L16.1791308,17.7182207 L16.4343989,18.1360737 L16.6734167,18.5130688 L16.8961844,18.8492058 L17.1027019,19.1444848 L17.2929693,19.3989057 C17.5965398,19.7888923 17.8324012,20.0086371 18.0005536,20.0581402 C18.8329082,20.3031803 19.3608219,19.9675365 19.5842948,19.0512088 C19.5979897,18.9950546 19.599785,18.919952 19.5896808,18.8259009 L19.5655998,18.670613 C19.5600989,18.6423631 19.5538542,18.6129289 19.5468658,18.5823105 L19.4960109,18.3843887 L19.4273068,18.1580442 L19.3407533,17.903277 L19.2363506,17.6200873 L19.1140985,17.3084749 L18.9739972,16.9684399 L18.7303778,16.4050949 L18.4465976,15.7777991 L18.0057514,14.8419254 L17.493508,13.7923612 L17.0624712,12.9305786 L16.5912734,12.0048451 L15.7166974,10.3198429 L14.9367148,8.8439392 C16.6554025,10.3320271 18.0426601,10.7404272 19.0984876,10.0691397 C19.6044049,9.74748104 19.8307229,8.89252073 18.8481699,8.09508309 L18.6546333,7.9491923 L16.5565632,6.49003924 L10.3972927,2.28843947 C10.1048596,2.09014132 9.73729868,2.08461715 9.43983737,2.27362746 Z" id="Path-3" fill="#FFFFFF" transform="translate(11.596116, 11.135693) scale(-1, 1) rotate(64.000000) translate(-11.596116, -11.135693) "></path>
            </g>
        </g>
    </g>
</svg>