<?xml version="1.0" encoding="UTF-8"?>
<svg width="56px" height="56px" viewBox="0 0 56 56" version="1.1" xmlns="http://www.w3.org/2000/svg" xmlns:xlink="http://www.w3.org/1999/xlink">
    <title>5F6D284A-CEAF-44FF-8D9D-1D19E274C17C</title>
    <g id="Toolbar-BOB-&amp;-Specs" stroke="none" stroke-width="1" fill="none" fill-rule="evenodd">
        <g id="Toolbar---GTK-selected-states---GTK-TOOLBAR-ONLY" transform="translate(-118.000000, -464.000000)">
            <g id="Undo---Disabled---Light-Mode" transform="translate(118.000000, 464.000000)">
                <rect id="Rectangle" x="0" y="0" width="56" height="56"></rect>
                <g id="Icon-/-E-reader-/-Eraser-Copy-14" transform="translate(16.000000, 16.000000)">
                    <rect id="Rectangle" fill="#FFFFFF" x="0" y="0" width="24" height="24"></rect>
                    <g id="Unselected" transform="translate(2.500000, 5.000000)" fill-rule="nonzero">
                        <circle id="Oval" stroke="#AAAAAA" stroke-width="2" fill="#FFFFFF" cx="10.5203055" cy="8" r="8"></circle>
                        <rect id="Rectangle" fill="#FFFFFF" x="0.520305509" y="7" width="11" height="11"></rect>
                        <path d="M1.96151963,1.59066158 L3.092,5.534041 L6.63572853,4.51869073 C7.12869798,4.37733401 7.64140281,4.63191565 7.83401531,5.0940661 L7.87262761,5.2043151 C8.02485791,5.7352052 7.71789341,6.2889838 7.18700325,6.4412141 L7.18700325,6.4412141 L2.6622418,7.7386686 C2.13135162,7.8908989 1.57757305,7.5839344 1.42534275,7.0530442 C1.40636165,6.9868493 1.39451955,6.9202985 1.38936039,6.8542146 L0.0389962388,2.14193629 C-0.113234071,1.61104611 0.193730399,1.05726754 0.724620579,0.90503724 C1.25551075,0.75280693 1.80928932,1.0597714 1.96151963,1.59066158 Z" id="Combined-Shape" fill="#AAAAAA"></path>
                    </g>
                </g>
            </g>
        </g>
    </g>
</svg>